<svg width="48" height="48" viewBox="0 0 48 48" fill="none" xmlns="http://www.w3.org/2000/svg">
<path d="M46.5 18C45.6562 18 45 18.75 45 19.5V43.5C45 44.3438 44.25 45 43.5 45H4.5C3.65625 45 3 44.3438 3 43.5V19.5C3 18.75 2.25 18 1.5 18C0.65625 18 0 18.75 0 19.5V43.5C0 46.0312 1.96875 48 4.5 48H43.5C45.9375 48 48 46.0312 48 43.5938V19.5C48 18.75 47.25 18 46.5 18ZM6 25.9688C6.09375 26.0625 6.09375 26.1562 6.09375 26.25C6.1875 26.3438 6.1875 26.3438 6.28125 26.4375C6.375 26.5312 6.375 26.625 6.46875 26.7188C6.5625 26.7188 6.5625 26.7188 6.5625 26.7188L19.0312 35.9062C20.4375 36.9375 22.125 37.5 24 37.5C25.7812 37.5 27.4688 36.9375 28.875 35.8125L41.3438 26.625C41.3438 26.625 41.3438 26.625 41.4375 26.625C41.5312 26.5312 41.5312 26.4375 41.625 26.3438C41.7188 26.25 41.7188 26.25 41.8125 26.1562C41.8125 26.0625 41.8125 25.9688 41.9062 25.875C41.9062 25.7812 41.9062 25.6875 41.9062 25.5938C41.9062 25.5938 42 25.5938 42 25.5V4.5C42 2.0625 39.9375 0 37.5 0H10.5C7.96875 0 6 2.0625 6 4.5V25.5C6 25.5938 6 25.5938 6 25.6875C6 25.7812 6 25.875 6 25.9688ZM9 4.5C9 3.75 9.65625 3 10.5 3H37.5C38.25 3 39 3.75 39 4.5V24.75L27.0938 33.4688C25.2188 34.875 22.6875 34.875 20.8125 33.4688L9 24.75V4.5ZM33 22.5C33 21.6562 32.25 21 31.5 21H16.5C15.6562 21 15 21.6562 15 22.5C15 23.25 15.6562 23.9062 16.5 23.9062H31.5C32.25 24 33 23.3438 33 22.5ZM16.5 15H31.5C32.25 15 33 14.25 33 13.5C33 12.75 32.25 12.0938 31.5 12.0938H16.5C15.6562 12.0938 15 12.8438 15 13.5C15 14.3438 15.6562 15 16.5 15Z" fill="#DF0A0A"/>
</svg>
