<svg width="54" height="49" viewBox="0 0 54 49" fill="none" xmlns="http://www.w3.org/2000/svg">
<path d="M24.75 10.5C24.75 9.28125 25.6875 8.25 27 8.25C28.2188 8.25 29.25 9.28125 29.25 10.5C29.25 11.8125 28.2188 12.75 27 12.75C25.6875 12.75 24.75 11.8125 24.75 10.5ZM25.5938 29.25C22.5938 25.5 15.75 16.4062 15.75 11.25C15.75 5.0625 20.7188 0 27 0C33.1875 0 38.25 5.0625 38.25 11.25C38.25 16.4062 31.3125 25.5 28.3125 29.25C27.6562 30.1875 26.25 30.1875 25.5938 29.25ZM34.3125 14.5312C34.9688 13.0312 35.25 12 35.25 11.25C35.25 6.75 31.5 3 27 3C22.4062 3 18.75 6.75 18.75 11.25C18.75 12 18.9375 13.0312 19.5938 14.5312C20.1562 16.0312 21.0938 17.625 22.0312 19.2188C23.625 21.8438 25.5 24.375 27 26.25C28.4062 24.375 30.2812 21.8438 31.875 19.2188C32.8125 17.625 33.75 16.0312 34.3125 14.5312ZM37.9688 20.9062C37.9688 21 37.875 21 37.7812 21C38.5312 19.6875 39.2812 18.2812 39.8438 16.9688L50.9062 12.5625C52.3125 12 54 13.0312 54 14.625V40.0312C54 40.9688 53.4375 41.8125 52.5 42.0938L37.9688 47.9062C37.6875 48.0938 37.4062 48.0938 37.0312 48L16.5 42.0938L3 47.5312C1.59375 48.0938 0 47.0625 0 45.4688V20.0625C0 19.125 0.46875 18.2812 1.40625 18L12.9375 13.3125C13.125 14.3438 13.4062 15.2812 13.7812 16.2188L3 20.5312V44.3438L15 39.5625V28.5C15 27.75 15.6562 27 16.5 27C17.25 27 18 27.75 18 28.5V39.375L36 44.5312V28.5C36 27.75 36.6562 27 37.5 27C38.25 27 39 27.75 39 28.5V44.3438L51 39.5625V15.75L37.9688 20.9062Z" fill="#DF0A0A"/>
</svg>
