<svg width="36" height="40" viewBox="0 0 36 40" fill="none" xmlns="http://www.w3.org/2000/svg">
<path d="M15.2446 33.8994C14.921 33.8994 14.6587 34.1618 14.6587 34.4854V39.4137C14.6587 39.7373 14.921 39.9996 15.2446 39.9996C15.5683 39.9996 15.8306 39.7373 15.8306 39.4137V34.4854C15.8306 34.1617 15.5682 33.8994 15.2446 33.8994Z" fill="white"/>
<path d="M6.69504 34.465C6.37215 34.438 6.08918 34.6772 6.06199 34.9997L5.69496 39.3648C5.66785 39.6872 5.90731 39.9707 6.22973 39.9978C6.24645 39.9992 6.26309 39.9999 6.27957 39.9999C6.5809 39.9999 6.83707 39.7688 6.86278 39.463L7.22981 35.0979C7.25684 34.7755 7.01746 34.4921 6.69504 34.465Z" fill="white"/>
<path d="M15.2444 20.53C15.8218 20.53 16.3787 20.2872 16.7723 19.8639C16.9927 19.6269 16.9791 19.2561 16.7422 19.0357C16.5052 18.8154 16.1344 18.8289 15.9141 19.0659C15.7388 19.2543 15.501 19.3581 15.2444 19.3581C14.9877 19.3581 14.7498 19.2543 14.5746 19.0658C14.3543 18.8289 13.9836 18.8154 13.7464 19.0358C13.5095 19.2562 13.4961 19.6269 13.7164 19.864C14.1101 20.2872 14.667 20.53 15.2444 20.53Z" fill="white"/>
<path d="M34.9642 23.918C34.8064 23.6355 34.4496 23.5344 34.1669 23.6921C33.8844 23.8498 33.7832 24.2067 33.9409 24.4893C34.4321 25.3691 34.6918 26.3703 34.6918 27.3849C34.6918 29.3887 33.6917 31.2454 32.0167 32.3515C31.1364 32.9328 30.5549 33.8473 30.3931 34.8702H27.0937C26.934 33.8445 26.3588 32.9342 25.4877 32.3637C23.8446 31.2874 22.8381 29.4755 22.7955 27.5169C22.7244 24.2421 25.3276 21.515 28.5985 21.4378C29.9419 21.4059 31.2145 21.81 32.286 22.6057C32.5457 22.7987 32.9128 22.7445 33.1057 22.4847C33.2987 22.225 33.2444 21.8579 32.9847 21.665C31.7015 20.712 30.1762 20.2282 28.5708 20.2662C25.1433 20.3472 22.3283 22.8582 21.7367 26.1117H18.989V22.9957C21.1613 22.18 22.7465 20.1572 22.9258 17.7485H24.2494C25.9158 17.7485 27.2715 16.3928 27.2715 14.7265V12.9775C27.2715 11.3111 25.9158 9.95545 24.2494 9.95545H24.0205C24.1329 9.70498 24.1953 9.42717 24.1953 9.13514V5.31327C24.1953 3.2339 22.504 1.54218 20.4249 1.54218H19.8637C19.6341 1.13539 19.3141 0.787499 18.923 0.522577C18.4182 0.180703 17.8294 0 17.2204 0H7.81173C6.95579 0 6.25947 0.696014 6.25947 1.55156V9.13514C6.25947 9.42615 6.3233 9.7042 6.43783 9.95545H6.239C4.5726 9.95545 3.2169 11.3112 3.2169 12.9775V14.7265C3.2169 16.3929 4.5726 17.7485 6.239 17.7485H7.56259C7.74204 20.1575 9.32751 22.1803 11.5001 22.9959V26.1117H7.029C4.32111 26.1117 2.01182 28.0469 1.53807 30.7131L0.00916757 39.3114C-0.0475511 39.63 0.164792 39.9342 0.483463 39.9909C0.518073 39.997 0.552682 40 0.586666 40C0.86526 40 1.11237 39.8005 1.16284 39.5166L2.69174 30.9181C3.06596 28.8121 4.89002 27.2835 7.02892 27.2835H11.4992V39.414C11.4992 39.7376 11.7615 39.9999 12.0852 39.9999C12.4088 39.9999 12.6711 39.7376 12.6711 39.414V32.2281L14.6584 30.0734V31.7379C14.6584 32.0615 14.9206 32.3238 15.2443 32.3238C15.568 32.3238 15.8302 32.0615 15.8302 31.7379V30.0731L17.8173 32.2281V39.4141C17.8173 39.7377 18.0795 40 18.4032 40C18.7269 40 18.9891 39.7377 18.9891 39.4141V27.2835H21.6236C21.5705 29.6516 22.8222 32.0404 24.8457 33.344C25.5476 33.8038 25.9667 34.5929 25.967 35.4552V35.4562V38.0881C25.967 39.1423 26.8247 40 27.879 40H29.6072C30.6615 40 31.5191 39.1423 31.5191 38.0881V35.4562V35.4561V35.456C31.5191 34.5973 31.9466 33.8024 32.6626 33.3295C34.6671 32.0058 35.8639 29.7835 35.8639 27.3849C35.8637 26.1708 35.5526 24.972 34.9642 23.918ZM26.0997 12.9775V14.7265C26.0997 15.7467 25.2697 16.5766 24.2495 16.5766H22.9448V11.1273H24.2495C25.2697 11.1273 26.0997 11.9572 26.0997 12.9775ZM7.43134 1.55156C7.43134 1.34219 7.60204 1.17187 7.81173 1.17187H17.2204C17.5942 1.17187 17.9559 1.28289 18.2661 1.49297C18.5759 1.70281 18.8131 1.99757 18.952 2.34546C19.0409 2.56812 19.2564 2.71414 19.4962 2.71414H20.4251C21.8579 2.71414 23.0236 3.88015 23.0236 5.31335V9.13522C23.0236 9.35873 22.9347 9.56154 22.7895 9.70983C22.2941 7.93553 20.6643 6.62967 18.7341 6.62967C18.4105 6.62967 18.1482 6.89202 18.1482 7.21561C18.1482 7.5392 18.4105 7.80155 18.7341 7.80155C20.4098 7.80155 21.773 9.16483 21.773 10.8404V11.6297C21.1312 11.0416 20.2768 10.6821 19.3398 10.6821C17.7014 10.6821 16.3157 11.7811 15.8788 13.2803C15.5698 13.1589 15.107 13.084 14.6095 13.2793C14.1722 11.7806 12.7868 10.6821 11.1488 10.6821C10.2117 10.6821 9.35735 11.0416 8.71556 11.6297V10.8404C8.71556 9.16475 10.0788 7.80155 11.7545 7.80155H15.9782C16.3019 7.80155 16.5641 7.5392 16.5641 7.21561C16.5641 6.89202 16.3019 6.62967 15.9782 6.62967H11.7545C9.81571 6.62967 8.17978 7.94709 7.69236 9.73342C7.53181 9.58295 7.43126 9.36944 7.43126 9.13522V1.55156H7.43134ZM21.773 14.2871C21.773 15.6287 20.6814 16.7203 19.3397 16.7203C17.998 16.7203 16.9065 15.6287 16.9065 14.2871C16.9065 12.9454 17.998 11.8539 19.3397 11.8539C20.6815 11.854 21.773 12.9454 21.773 14.2871ZM11.1488 16.7204C9.80712 16.7204 8.71556 15.6288 8.71556 14.2872C8.71556 12.9455 9.80712 11.854 11.1488 11.854C12.4905 11.854 13.582 12.9454 13.582 14.2872C13.582 15.6289 12.4905 16.7204 11.1488 16.7204ZM14.7539 14.8125C14.7539 14.544 14.9723 14.3257 15.248 14.3257C15.5164 14.3257 15.7347 14.544 15.7347 14.8125V16.4808C15.7347 16.7493 15.5163 16.9676 15.248 16.9676H15.2406C14.9722 16.9676 14.7539 16.7493 14.7539 16.4808V14.8125ZM4.38885 14.7265V12.9775C4.38885 11.9572 5.21884 11.1273 6.23908 11.1273H7.54376V16.5766H6.23908C5.21884 16.5766 4.38885 15.7466 4.38885 14.7265ZM8.71556 17.2922C8.71556 17.2324 8.71556 17.089 8.71556 16.9445C9.35727 17.5326 10.2117 17.8922 11.1488 17.8922C12.1125 17.8922 12.9884 17.5113 13.6359 16.893C13.8199 17.6085 14.4686 18.1395 15.2406 18.1395H15.248C16.02 18.1395 16.6686 17.6085 16.8527 16.8931C17.5001 17.5113 18.376 17.8922 19.3398 17.8922C20.2768 17.8922 21.1312 17.5326 21.773 16.9445C21.9521 19.7532 19.6979 22.2197 16.8545 22.2107H13.6341C10.922 22.2107 8.71556 20.0043 8.71556 17.2922ZM13.6341 23.3826H16.8545C17.1821 23.3826 17.5035 23.3558 17.8173 23.3057V26.364L15.2446 27.8919L12.672 26.364V23.3058C12.9855 23.3559 13.3067 23.3826 13.6341 23.3826ZM12.6711 27.7266L14.3234 28.7079L12.6711 30.4995V27.7266ZM16.1656 28.7079L17.8173 27.7271V30.4992L16.1656 28.7079ZM30.3471 38.0881C30.3471 38.4961 30.0151 38.8281 29.6071 38.8281H27.8788C27.4707 38.8281 27.1387 38.4961 27.1387 38.0881V36.042H30.347V38.0881H30.3471Z" fill="white"/>
<path d="M32.1148 24.966C31.8232 24.826 31.4731 24.9489 31.333 25.2406L29.9236 28.176L28.1004 26.7467C27.9625 26.6386 27.7836 26.598 27.6126 26.6357C27.4416 26.6735 27.2963 26.7858 27.2169 26.9418L25.7959 29.7303C25.649 30.0187 25.7637 30.3715 26.052 30.5185C26.1372 30.5619 26.2281 30.5824 26.3175 30.5824C26.5308 30.5824 26.7365 30.4655 26.84 30.2624L27.9377 28.1082L29.7745 29.5482C29.9143 29.6578 30.0963 29.6979 30.2691 29.6578C30.442 29.6174 30.5873 29.5008 30.6642 29.3407L32.3893 25.748C32.5295 25.4562 32.4066 25.1061 32.1148 24.966Z" fill="white"/>
</svg>
