<svg width="45" height="40" viewBox="0 0 45 40" fill="none" xmlns="http://www.w3.org/2000/svg">
<path d="M38.2452 26.0931L30.3369 29.434C30.351 29.3354 30.3651 29.2367 30.3651 29.131C30.3651 27.5944 29.1175 26.3468 27.5809 26.3468H21.8858C21.6532 26.3468 21.4276 26.2975 21.2162 26.1988L16.388 24.0138C15.6338 23.6754 14.795 23.4922 13.9704 23.4922H10.0373V24.9019H13.9704C14.5977 24.9019 15.232 25.0358 15.81 25.2966L20.6382 27.4816C21.0329 27.6578 21.4558 27.7495 21.8928 27.7495H27.588C28.3492 27.7495 28.9624 28.3697 28.9624 29.1239C28.9624 29.8781 28.3422 30.4984 27.588 30.4984H20.2082V31.908H27.5809C28.0673 31.908 28.5184 31.7741 28.9131 31.5556V31.5627L38.788 27.3829C39.6056 27.0376 40.5008 27.0446 41.3113 27.397C41.9316 27.6719 42.4391 28.116 42.7774 28.694L25.3466 37.9415C24.0144 38.6464 22.4285 38.7873 20.9906 38.3292L12.462 35.5873L10.0303 35.5521V36.9618H12.1378L20.5607 39.6684C21.2585 39.8939 21.9774 39.9997 22.7034 39.9997C23.8452 39.9997 24.9871 39.7248 26.0021 39.1821L44.5748 29.3424L44.3704 28.7644C43.9404 27.5662 43.0523 26.6217 41.8823 26.1072C40.7122 25.6067 39.4223 25.5926 38.2452 26.0931Z" fill="white"/>
<path d="M8.50749 38.0689V23.105C8.50749 22.3297 7.87313 21.6953 7.0978 21.6953H0V23.105H7.0978V38.0759H0V39.4856H7.0978C7.87313 39.4786 8.50749 38.8442 8.50749 38.0689Z" fill="white"/>
<path d="M5.2438 35.8766C5.2438 36.4194 4.79975 36.8634 4.25702 36.8634C3.70724 36.8634 3.26318 36.4194 3.26318 35.8766C3.26318 35.3269 3.70724 34.8828 4.25702 34.8828C4.79975 34.8828 5.2438 35.3269 5.2438 35.8766Z" fill="white"/>
<path d="M16.6769 16.7753L17.4381 17.3392L22.6822 14.4352L27.4258 17.2899L27.8346 17.5295L28.5958 16.9797L27.454 11.1013L31.6478 7.46432L31.9861 7.14009L31.6901 6.26608L25.7553 5.53304L23.5985 0.429956L23.4011 0.00704828L22.95 0H22.4707L19.9403 5.43436L14.4143 5.89956L13.9421 5.95595L13.6602 6.837L18.0372 10.9181L16.6769 16.7753ZM16.0778 7.17533L20.4619 6.79471L20.8778 6.74537L22.9007 2.40352L24.6135 6.44229L24.7897 6.82996L29.5544 7.41498L26.2558 10.2767L25.9245 10.5586L26.8408 15.2811L23.0628 13.0044L22.7033 12.8141L18.5236 15.133L19.5033 10.904L19.6232 10.467L16.0778 7.17533Z" fill="white"/>
<path d="M7.40802 14.1746L6.386 18.5658L6.24503 19.0733L7.0415 19.6583L11.4327 17.2266L15.3093 19.5526L15.7463 19.8275L16.5287 19.2565L15.5701 14.3297L16.5922 13.4486L15.6688 12.3843L14.3085 13.5614L14.1041 13.801V14.083L14.7666 17.586L11.9049 15.8592L11.7569 15.7182L11.1578 15.7041L11.0168 15.8451L8.09172 17.4662L8.88115 14.0407V13.6248L6.1393 11.0733L9.49437 10.7772L9.8186 10.7702L10.1146 10.4742L11.616 7.24596L12.9693 10.4389L13.1878 10.8548H13.5825L15.2811 11.0662L15.4574 9.66358L14.097 9.50147L12.3067 5.27239L12.0671 4.82129L11.0944 4.89882L10.9604 5.31468L9.05736 9.40983L4.57454 9.7975L4.01771 9.82569L3.72168 10.8548L4.10934 11.1085L7.40802 14.1746Z" fill="white"/>
<path d="M30.5759 9.50159L30.7028 10.9042L32.0632 10.7774L32.3803 10.7633L32.6764 10.4672L34.1777 7.23904L35.4676 10.2769L35.4817 10.8478H36.1442L39.5063 11.2637L36.8914 13.5333L36.6588 13.78V14.0831L37.3284 17.5791L34.4596 15.8593L34.3116 15.7113L33.6914 15.7183L33.5645 15.8523L30.6535 17.4663L31.4499 14.0408L31.4429 13.6249L29.6385 11.9404L28.6729 12.9694L29.9627 14.1747L28.9477 18.5659L28.8068 19.0382L29.5751 19.6725L33.9944 17.2267L37.8781 19.5597L38.3151 19.8276L39.0834 19.2496L38.1248 14.3298L41.5151 11.3906C41.7477 11.2073 41.8464 10.8972 41.7689 10.6152L41.6068 10.1148L36.6588 9.50864L34.8543 5.26547L34.6429 4.8778L33.8041 4.84961L33.5856 5.19498L31.6121 9.40996L30.5759 9.50159Z" fill="white"/>
</svg>
