<svg width="45" height="45" viewBox="0 0 45 45" fill="none" xmlns="http://www.w3.org/2000/svg">
<path d="M15.6236 10.5663C15.4943 10.9642 15.6216 11.3906 15.9477 11.6528L18.8511 13.9864L17.8739 17.5811C17.7642 17.9847 17.9119 18.4044 18.2506 18.6507C18.5893 18.8965 19.0339 18.9073 19.384 18.6782L22.5007 16.638L25.6175 18.6783C25.7855 18.7883 25.9753 18.8429 26.1647 18.8429C26.37 18.8429 26.5748 18.7787 26.7507 18.6507C27.0895 18.4047 27.2374 17.9847 27.1274 17.5811L26.1502 13.9865L29.0534 11.653C29.3798 11.3909 29.507 10.9643 29.3777 10.5663C29.2484 10.1681 28.8947 9.89787 28.4768 9.87766L24.7561 9.69625L23.4339 6.21386C23.2855 5.82265 22.919 5.56979 22.5006 5.56979C22.0821 5.56979 21.7157 5.82257 21.5674 6.21377L20.2451 9.69634L16.5247 9.87766C16.1066 9.89787 15.7529 10.1681 15.6236 10.5663ZM20.5803 11.0878C20.9768 11.0685 21.3241 10.8162 21.4648 10.4451L22.5005 7.7174L23.5362 10.4453C23.6772 10.8163 24.0245 11.0685 24.4207 11.0878L27.3349 11.2299L25.0607 13.0578C24.7512 13.3066 24.6187 13.7149 24.7228 14.0977L25.4883 16.9132L23.047 15.3151C22.881 15.2065 22.6907 15.1521 22.5004 15.1521C22.3101 15.1521 22.1197 15.2065 21.9536 15.3152L19.5125 16.9132L20.2779 14.0979C20.3822 13.7148 20.2495 13.3064 19.94 13.0578L17.6658 11.23L20.5803 11.0878ZM21.7974 3.28341V0.703124C21.7974 0.314824 22.1122 0 22.5005 0C22.8888 0 23.2036 0.314824 23.2036 0.703124V3.28341C23.2036 3.67171 22.8888 3.98654 22.5005 3.98654C22.1122 3.98654 21.7974 3.67171 21.7974 3.28341ZM26.0793 7.44924C25.8195 7.1607 25.8428 6.71606 26.1313 6.45626L29.0067 3.86718C29.2953 3.60729 29.7399 3.63058 29.9998 3.91921C30.2596 4.20776 30.2363 4.65239 29.9477 4.9122L27.0723 7.50127C26.9379 7.6223 26.7697 7.68189 26.602 7.68189C26.4098 7.68189 26.2182 7.60349 26.0793 7.44924ZM15.0013 3.91921C15.2611 3.63058 15.7056 3.60729 15.9943 3.86718L18.8698 6.45626C19.1583 6.71606 19.1816 7.1607 18.9218 7.44924C18.7829 7.6034 18.5913 7.68189 18.399 7.68189C18.2314 7.68189 18.0632 7.6223 17.9287 7.50127L15.0533 4.9122C14.7647 4.65239 14.7415 4.20776 15.0013 3.91921ZM31.5211 11.6528L34.4245 13.9864L33.4473 17.5811C33.3376 17.9847 33.4853 18.4044 33.824 18.6507C34.1624 18.8965 34.6072 18.9072 34.9574 18.6782L38.0741 16.638L41.1908 18.6783C41.3589 18.7883 41.5487 18.8429 41.7381 18.8429C41.9434 18.8429 42.1482 18.7787 42.3241 18.6507C42.6628 18.4049 42.8106 17.985 42.7008 17.5811L41.7236 13.9865L44.6268 11.653C44.9531 11.391 45.0804 10.9644 44.951 10.5663C44.8217 10.1681 44.468 9.89787 44.0502 9.87766L40.3295 9.69625L39.0074 6.21386C38.8589 5.82265 38.4925 5.56979 38.0741 5.56979C37.6555 5.56979 37.2891 5.82257 37.1407 6.21377L35.8185 9.69625L32.0981 9.87757C31.68 9.89778 31.3263 10.1681 31.197 10.5663C31.0676 10.9643 31.1949 11.3909 31.5211 11.6528ZM36.1536 11.0878C36.5502 11.0685 36.8976 10.8162 37.0384 10.445L38.074 7.71731L39.1095 10.4449C39.2504 10.8162 39.5977 11.0685 39.9942 11.0877L42.9084 11.2299L40.6344 13.0575C40.3248 13.3063 40.1921 13.7146 40.2963 14.0976L41.0617 16.9131L38.6205 15.315C38.4544 15.2064 38.2641 15.1521 38.0738 15.1521C37.8834 15.1521 37.6931 15.2065 37.5271 15.3151L35.086 16.9131L35.8514 14.0978C35.9556 13.7149 35.823 13.3066 35.5135 13.0577L33.2393 11.2299L36.1536 11.0878ZM0.374088 11.6528L3.27755 13.9864L2.3003 17.5811C2.19061 17.9847 2.33835 18.4044 2.67699 18.6507C3.01572 18.8965 3.46036 18.9073 3.81043 18.6782L6.92711 16.638L10.0439 18.6783C10.2119 18.7883 10.4017 18.8429 10.5911 18.8429C10.7964 18.8429 11.0013 18.7787 11.1771 18.6507C11.5158 18.4049 11.6636 17.985 11.5538 17.5811L10.5766 13.9865L13.4799 11.653C13.8059 11.3911 13.9333 10.9647 13.804 10.5658C13.6745 10.168 13.3208 9.89778 12.9032 9.87757L9.18256 9.69616L7.86042 6.21386C7.71197 5.82265 7.34556 5.56979 6.92711 5.56979C6.50858 5.56979 6.14216 5.82257 5.99372 6.21377L4.67158 9.69625L0.951177 9.87757C0.533082 9.89778 0.179411 10.1681 0.0502116 10.5658C-0.0794268 10.9641 0.0477507 11.3908 0.374088 11.6528ZM5.00662 11.0878C5.40327 11.0685 5.75061 10.8162 5.89141 10.445L6.92702 7.71731L7.96255 10.4449C8.10344 10.8162 8.45078 11.0685 8.84725 11.0877L11.7614 11.2299L9.48745 13.0575C9.17781 13.3063 9.0451 13.7146 9.14933 14.0976L9.91477 16.9131L7.47353 15.315C7.30741 15.2064 7.11713 15.1521 6.92685 15.1521C6.73648 15.1521 6.54611 15.2065 6.38008 15.3151L3.93901 16.9131L4.70445 14.0978C4.8086 13.7149 4.67606 13.3066 4.36651 13.0577L2.09235 11.2299L5.00662 11.0878ZM44.8898 37.3476C44.3951 35.7499 43.3818 34.3153 42.0364 33.3079C41.3924 32.8257 40.691 32.45 39.9512 32.1841C40.9769 31.379 41.6379 30.1292 41.6379 28.7271C41.6379 26.3043 39.6667 24.3333 37.244 24.3333C34.8213 24.3333 32.8501 26.3043 32.8501 28.7271C32.8501 30.1275 33.5095 31.3761 34.5332 32.1813C33.1612 32.671 31.9457 33.5314 31.0148 34.6909C30.5797 34.0822 30.0779 33.5169 29.5137 33.0067C28.377 31.9787 27.0429 31.2237 25.6061 30.7775C27.1297 29.7674 28.1369 28.038 28.1369 26.0771C28.1369 22.9693 25.6084 20.4409 22.5006 20.4409C19.3928 20.4409 16.8643 22.9693 16.8643 26.0771C16.8643 28.038 17.8714 29.7674 19.395 30.7775C17.9582 31.2236 16.6241 31.9787 15.4873 33.0067C14.9231 33.5169 14.4213 34.0822 13.9863 34.6908C13.0555 33.5313 11.84 32.6708 10.4679 32.181C11.4915 31.3758 12.151 30.1273 12.151 28.7268C12.151 26.304 10.1798 24.333 7.75715 24.333C5.33436 24.333 3.36324 26.304 3.36324 28.7268C3.36324 30.1288 4.02418 31.3787 5.04986 32.1838C4.31 32.4498 3.60863 32.8254 2.96448 33.3077C1.61914 34.315 0.605855 35.7496 0.11112 37.3472C-0.117483 38.0851 0.00916681 38.834 0.467691 39.4561C0.926128 40.0781 1.60411 40.4205 2.37667 40.4205H12.0967V41.6894C12.0967 43.5149 13.5818 45 15.4073 45H29.5937C31.4191 45 32.9043 43.5149 32.9044 41.6894V40.4208H42.6243C43.397 40.4208 44.075 40.0783 44.5333 39.4565C44.9918 38.8344 45.1184 38.0854 44.8898 37.3476ZM37.244 25.7395C38.8914 25.7395 40.2316 27.0798 40.2316 28.7271C40.2316 30.3745 38.8914 31.7147 37.244 31.7147C35.5966 31.7147 34.2564 30.3745 34.2564 28.7271C34.2564 27.0798 35.5966 25.7395 37.244 25.7395ZM18.2705 26.0771C18.2705 23.7447 20.1682 21.8471 22.5006 21.8471C24.833 21.8471 26.7307 23.7447 26.7307 26.0771C26.7307 28.4088 24.8343 30.3059 22.5029 30.3071C22.5021 30.3071 22.5012 30.3071 22.5005 30.3071C22.4998 30.3071 22.499 30.3071 22.4982 30.3071C20.1668 30.3058 18.2705 28.4087 18.2705 26.0771ZM7.75715 25.7392C9.40448 25.7392 10.7447 27.0794 10.7447 28.7267C10.7447 30.3742 9.40448 31.7144 7.75715 31.7144C6.10973 31.7144 4.76949 30.3742 4.76949 28.7267C4.76949 27.0794 6.10973 25.7392 7.75715 25.7392ZM12.1881 39.0141H2.37676C2.05315 39.0141 1.79176 38.8821 1.59972 38.6216C1.40759 38.3611 1.35881 38.0723 1.45453 37.7632C2.31445 34.9863 4.84736 33.1206 7.75715 33.1206C9.95819 33.1206 11.9632 34.1841 13.1964 35.9844C12.7089 36.9315 12.3674 37.9523 12.1881 39.0141ZM31.4981 41.6893C31.498 42.7394 30.6437 43.5937 29.5937 43.5937H15.4073C14.3573 43.5937 13.503 42.7394 13.503 41.6893V39.7555C14.012 35.1687 17.8725 31.7145 22.4982 31.7133C22.499 31.7133 22.4998 31.7134 22.5006 31.7134C22.5014 31.7134 22.5022 31.7133 22.5029 31.7133C27.1285 31.7146 30.9889 35.1687 31.4981 39.7555V41.6893ZM43.4014 38.6221C43.2093 38.8825 42.948 39.0145 42.6243 39.0145H32.8131C32.6337 37.9526 32.2922 36.9317 31.8048 35.9846C33.038 34.1844 35.043 33.121 37.244 33.121C40.1537 33.121 42.6867 34.9867 43.5466 37.7636C43.6423 38.0726 43.5934 38.3614 43.4014 38.6221Z" fill="white"/>
</svg>
