<svg width="43" height="45" viewBox="0 0 43 45" fill="none" xmlns="http://www.w3.org/2000/svg">
<path d="M10.2532 4.34672C8.72683 4.34672 7.48504 5.59708 7.48504 7.134C7.48504 8.67091 8.72683 9.92136 10.2532 9.92136C11.7796 9.92136 13.0215 8.67091 13.0215 7.134C13.0215 5.59708 11.7796 4.34672 10.2532 4.34672ZM10.2532 8.60288C9.44886 8.60288 8.79449 7.94399 8.79449 7.134C8.79449 6.3241 9.44886 5.66521 10.2532 5.66521C11.0577 5.66521 11.712 6.3241 11.712 7.134C11.7119 7.94399 11.0576 8.60288 10.2532 8.60288Z" fill="white"/>
<path d="M13.0212 19.6183V17.0698C13.0212 16.7056 12.7282 16.4105 12.3665 16.4105H5.69758C5.33591 16.4105 5.04286 16.7056 5.04286 17.0698V19.6183C5.04286 19.9825 5.33591 20.2776 5.69758 20.2776H12.3666C12.7282 20.2776 13.0212 19.9825 13.0212 19.6183ZM11.7118 18.959H6.35231V17.7291H11.7119L11.7118 18.959Z" fill="white"/>
<path d="M40.6207 5.47188H36.4648C35.741 5.47188 35.1098 5.87741 34.7828 6.47445H17.3385V6.05653C17.3385 5.74478 17.1217 5.47575 16.8187 5.4115L15.2232 5.0733C15.2204 5.06627 15.2175 5.05924 15.2145 5.05221L16.1052 3.67725C16.2744 3.41613 16.2387 3.07142 16.0197 2.85108L14.5068 1.32776C14.2879 1.10733 13.9456 1.0713 13.6861 1.24172L12.3204 2.13855C12.3134 2.13565 12.3065 2.13275 12.2995 2.12976L11.9636 0.523388C11.8999 0.21832 11.6325 0 11.3229 0H9.18318C8.87354 0 8.60632 0.21832 8.54251 0.523388L8.20659 2.12976C8.1996 2.13266 8.19271 2.13556 8.18572 2.13855L6.82005 1.24172C6.5607 1.07138 6.21832 1.10751 5.99938 1.32776L4.48635 2.85099C4.26741 3.07151 4.23179 3.41621 4.40089 3.67725L5.29166 5.0523C5.28878 5.05933 5.2859 5.06627 5.28293 5.0733L3.68741 5.4115C3.38441 5.47566 3.16756 5.74478 3.16756 6.05653V6.47445H3.15019C1.41325 6.47445 0 7.89722 0 9.64607V30.1512C0 31.8999 1.41316 33.3228 3.15019 33.3228H5.63064C5.94717 35.6196 7.95081 37.3635 10.2528 37.3635C10.9316 37.3635 11.5763 37.2156 12.1588 36.9523L10.678 42.786C10.0899 45.102 13.7551 45.8888 14.32 43.6649L16.9453 33.323H19.0769V43.2254C19.0769 44.1905 19.8809 45 20.8395 45C21.7982 45 22.6021 44.1905 22.6021 43.2254V33.3228H24.7338L27.359 43.6646C27.9234 45.8881 31.5893 45.1027 31.0011 42.7858L28.599 33.3228H38.529C40.2659 33.3228 41.6792 31.9 41.6792 30.1512V15.9082C41.6792 15.544 41.3861 15.249 41.0245 15.249C40.6628 15.249 40.3697 15.544 40.3697 15.9082V30.1512C40.3697 31.1731 39.544 32.0044 38.529 32.0044L14.8747 32.0045C14.5552 29.7241 12.6049 27.9638 10.2529 27.9638C7.95081 27.9638 5.94726 29.7073 5.63072 32.0044H3.15019C2.13519 32.0044 1.30945 31.1731 1.30945 30.1512V11.0056H4.29779C4.31045 11.1565 4.37365 11.3029 4.48635 11.4164L5.99938 12.9396C6.21823 13.1598 6.56043 13.196 6.81997 13.0256L8.18564 12.1288C8.19262 12.1317 8.1996 12.1346 8.20659 12.1376L8.54251 13.744C8.60623 14.049 8.87354 14.2673 9.18318 14.2673H11.3229C11.6325 14.2673 11.8998 14.049 11.9636 13.744L12.2995 12.1376C12.3065 12.1347 12.3135 12.1318 12.3204 12.1288L13.6861 13.0256C13.9456 13.196 14.288 13.1599 14.5068 12.9396L16.0197 11.4164C16.1324 11.3029 16.1955 11.1565 16.2082 11.0056H34.3107L28.2072 17.1506L25.0722 13.9951C24.5842 13.5017 23.7735 13.502 23.2848 13.9942L21.2496 16.0432C20.9938 16.3006 20.9938 16.718 21.2495 16.9753C21.5052 17.2327 21.9198 17.2329 22.1754 16.9754L24.178 14.9593L27.314 18.1158C27.8023 18.607 28.6126 18.6085 29.1005 18.1157L38.0107 9.14483C38.198 8.95621 38.2539 8.67277 38.1526 8.42641C38.0513 8.18005 37.8125 8.01948 37.5477 8.01948H36.4646C35.6772 8.01948 35.678 6.79024 36.4646 6.79024H40.6206C40.9477 6.79024 41.2138 7.05778 41.2138 7.38658V11.5708C41.2138 11.9064 40.9361 12.1859 40.6028 12.1859C40.266 12.1859 39.9919 11.9099 39.9919 11.5708V10.4813C39.9919 10.2147 39.8324 9.97425 39.5877 9.8723C39.3431 9.77008 39.0615 9.82659 38.8743 10.0151L28.2077 20.7534L25.0714 17.5965C24.5795 17.1015 23.7786 17.1013 23.2847 17.5966L17.9114 23.0074C17.3613 23.5621 16.4904 22.6996 17.0482 22.1376L19.9934 19.1725C20.2491 18.915 20.2491 18.4977 19.9934 18.2403C19.7377 17.983 19.3231 17.9828 19.0675 18.2403L16.1223 21.2053C15.3594 21.9736 15.3908 23.2551 16.1785 23.9915C16.9243 24.6888 18.1186 24.6647 18.8378 23.9393L24.1781 18.5618L27.3141 21.7183C27.8002 22.2094 28.6138 22.2111 29.1005 21.7191L38.7349 12.0201C38.9365 12.8703 39.6976 13.5045 40.6029 13.5045C41.6489 13.5045 42.5234 12.6243 42.5234 11.571V7.38658C42.5234 6.33075 41.6699 5.47188 40.6207 5.47188ZM13.0513 43.3382C12.9061 43.9101 11.7816 43.7621 11.9467 43.1124L13.835 35.6735C14.3801 35.0171 14.7503 34.2094 14.8746 33.3229H15.5938L13.0513 43.3382ZM21.2927 43.2253C21.2927 43.8123 20.3863 43.8133 20.3863 43.2253V33.3228H21.2927V43.2253ZM29.7325 43.1123C29.8971 43.7605 28.773 43.9095 28.6279 43.3382L26.0855 33.3228H27.2475L29.7325 43.1123ZM9.49483 29.3683C9.7424 29.3112 9.99748 29.2822 10.2529 29.2822C12.1048 29.2822 13.6114 30.7985 13.612 32.6625L13.6119 32.6636L13.612 32.6648C13.6114 34.5287 12.1047 36.045 10.2529 36.045C8.41531 36.045 6.89434 34.5121 6.89434 32.6635C6.89434 31.0786 7.96399 29.7235 9.49483 29.3683ZM1.30945 9.64607C1.30945 8.62416 2.13519 7.79281 3.15019 7.79281H3.16756V8.21081C3.16756 8.52256 3.38441 8.7916 3.68741 8.85584L5.28293 9.19405C5.28581 9.20108 5.2887 9.20802 5.29166 9.21505L4.98578 9.6872H1.30945V9.64607ZM13.9565 11.6291L12.7334 10.8258C12.2892 10.5344 11.2002 10.9944 11.0924 11.5105L10.7916 12.9488H9.71446L9.41373 11.5105C9.30461 10.9881 8.21139 10.5378 7.77272 10.8258L6.54961 11.6291L5.78786 10.8622L6.58566 9.63077C6.87505 9.18367 6.41831 8.08715 5.90571 7.97861L4.47701 7.67583V6.59143L5.90571 6.28865C6.42469 6.17879 6.87156 5.07814 6.58566 4.63649L5.78786 3.40505L6.54961 2.63812L7.77272 3.44135C8.2168 3.7328 9.30591 3.27286 9.41373 2.75677L9.71455 1.31836H10.7917L11.0924 2.75677C11.2016 3.27919 12.2948 3.72928 12.7334 3.44135L13.9566 2.63812L14.7182 3.40505L13.9204 4.63649C13.6309 5.0835 14.0879 6.18019 14.6005 6.28865L16.0291 6.59143V7.67591L14.6005 7.9787C14.0817 8.08847 13.6343 9.1893 13.9204 9.63086L14.7182 10.8623L13.9565 11.6291ZM36.019 9.28572L35.6203 9.68711H15.5203L15.2145 9.21505C15.2174 9.20802 15.2203 9.20099 15.2232 9.19396L16.8187 8.85576C17.1217 8.7916 17.3385 8.52247 17.3385 8.21073V7.79272H34.5841C34.7304 8.51984 35.3017 9.11494 36.019 9.28572Z" fill="white"/>
<path d="M37.0382 27.5993H24.6296C24.2679 27.5993 23.9749 27.8946 23.9749 28.259C23.9749 28.6234 24.2679 28.9187 24.6296 28.9187H37.0382C37.3999 28.9187 37.693 28.6234 37.693 28.259C37.693 27.8946 37.3998 27.5993 37.0382 27.5993Z" fill="white"/>
<path d="M37.0382 24.7072H29.6817C29.32 24.7072 29.0269 25.0024 29.0269 25.3668C29.0269 25.7313 29.32 26.0265 29.6817 26.0265H37.0382C37.3999 26.0265 37.693 25.7313 37.693 25.3668C37.693 25.0024 37.3998 24.7072 37.0382 24.7072Z" fill="white"/>
<path d="M5.69759 21.4619C5.33592 21.4619 5.04287 21.7572 5.04287 22.1216C5.04287 22.486 5.33592 22.7813 5.69759 22.7813H10.2531C10.6148 22.7813 10.9078 22.486 10.9078 22.1216C10.9078 21.7572 10.6148 21.4619 10.2531 21.4619H5.69759Z" fill="white"/>
<path d="M10.2532 34.2123C10.6148 34.2123 10.9079 33.9172 10.9079 33.553V31.7748C10.9079 31.4106 10.6148 31.1155 10.2532 31.1155C9.8915 31.1155 9.59844 31.4106 9.59844 31.7748V33.553C9.59844 33.9171 9.8915 34.2123 10.2532 34.2123Z" fill="white"/>
</svg>
