<svg width="40" height="40" viewBox="0 0 40 40" fill="none" xmlns="http://www.w3.org/2000/svg">
<path d="M39.3333 23.3333C39.5101 23.3333 39.6797 23.2631 39.8047 23.1381C39.9298 23.013 40 22.8435 40 22.6667V17.3333C40 17.1565 39.9298 16.987 39.8047 16.8619C39.6797 16.7369 39.5101 16.6667 39.3333 16.6667H35.6447C35.2394 14.7547 34.4853 12.9339 33.42 11.2953L36.0253 8.684C36.1501 8.55901 36.2202 8.38961 36.2202 8.213C36.2202 8.03639 36.1501 7.86699 36.0253 7.742L32.2587 3.97533C32.1337 3.85056 31.9643 3.78048 31.7877 3.78048C31.6111 3.78048 31.4417 3.85056 31.3167 3.97533L28.7047 6.58C27.0661 5.51471 25.2453 4.76056 23.3333 4.35533V0.666667C23.3333 0.489856 23.2631 0.320286 23.1381 0.195262C23.013 0.0702379 22.8435 0 22.6667 0H17.3333C17.1565 0 16.987 0.0702379 16.8619 0.195262C16.7369 0.320286 16.6667 0.489856 16.6667 0.666667V4.35533C14.7547 4.76056 12.9339 5.51471 11.2953 6.58L8.684 3.97467C8.55901 3.84989 8.38961 3.77981 8.213 3.77981C8.03639 3.77981 7.86699 3.84989 7.742 3.97467L3.97533 7.74133C3.85056 7.86632 3.78048 8.03572 3.78048 8.21233C3.78048 8.38895 3.85056 8.55834 3.97533 8.68333L6.58067 11.2947C5.51507 12.9334 4.76068 14.7545 4.35533 16.6667H0.666667C0.489856 16.6667 0.320286 16.7369 0.195262 16.8619C0.0702379 16.987 0 17.1565 0 17.3333V22.6667C0 22.8435 0.0702379 23.013 0.195262 23.1381C0.320286 23.2631 0.489856 23.3333 0.666667 23.3333H4.35533C4.76056 25.2453 5.51471 27.0661 6.58 28.7047L3.97467 31.316C3.84989 31.441 3.77981 31.6104 3.77981 31.787C3.77981 31.9636 3.84989 32.133 3.97467 32.258L7.74133 36.0247C7.86632 36.1494 8.03572 36.2195 8.21233 36.2195C8.38895 36.2195 8.55834 36.1494 8.68333 36.0247L11.2947 33.4193C12.9334 34.4849 14.7545 35.2393 16.6667 35.6447V39.3333C16.6667 39.5101 16.7369 39.6797 16.8619 39.8047C16.987 39.9298 17.1565 40 17.3333 40H22.6667C22.8435 40 23.013 39.9298 23.1381 39.8047C23.2631 39.6797 23.3333 39.5101 23.3333 39.3333V35.6447C25.2447 35.2378 27.0648 34.4826 28.7027 33.4167L34.142 38.856C34.7681 39.4766 35.6145 39.8239 36.496 39.822C37.3775 39.8201 38.2224 39.469 38.8457 38.8457C39.469 38.2224 39.8201 37.3775 39.822 36.496C39.8239 35.6145 39.4766 34.7681 38.856 34.142L33.4167 28.7027C34.4826 27.0648 35.2378 25.2447 35.6447 23.3333H39.3333ZM37.9133 37.9133C37.7276 38.0991 37.5071 38.2464 37.2644 38.347C37.0218 38.4475 36.7617 38.4992 36.499 38.4992C36.2363 38.4992 35.9762 38.4475 35.7336 38.347C35.4909 38.2464 35.2704 38.0991 35.0847 37.9133L22.3193 25.1487C22.0093 24.839 21.641 24.5938 21.2357 24.4272C20.8304 24.2606 20.3962 24.1759 19.958 24.178C19.819 24.1779 19.6801 24.1862 19.542 24.2027C18.6771 24.3066 17.7999 24.1968 16.9872 23.883C16.1745 23.5692 15.4512 23.061 14.8805 22.4028C14.3098 21.7446 13.9092 20.9566 13.7138 20.1076C13.5183 19.2587 13.5339 18.3748 13.7593 17.5333L16.7 20.4747C16.825 20.5997 16.9945 20.67 17.1713 20.67H20C20.1768 20.67 20.3464 20.5998 20.4714 20.4747C20.5964 20.3497 20.6667 20.1801 20.6667 20.0033V17.1713C20.6666 16.9945 20.5964 16.825 20.4713 16.7L17.5333 13.7593C18.3746 13.5345 19.2582 13.5192 20.1068 13.7149C20.9554 13.9106 21.743 14.3113 22.4009 14.8819C23.0587 15.4526 23.5667 16.1757 23.8803 16.9881C24.194 17.8005 24.3037 18.6774 24.2 19.542C24.1357 20.0464 24.1875 20.5589 24.3514 21.0402C24.5154 21.5215 24.7872 21.9591 25.146 22.3193L37.9133 35.0847C38.0991 35.2704 38.2464 35.4909 38.347 35.7336C38.4475 35.9762 38.4992 36.2363 38.4992 36.499C38.4992 36.7617 38.4475 37.0218 38.347 37.2644C38.2464 37.5071 38.0991 37.7276 37.9133 37.9133ZM26.0913 21.38C25.8757 21.1621 25.7127 20.8977 25.615 20.607C25.5172 20.3164 25.4872 20.0073 25.5273 19.7033C25.6702 18.5183 25.4921 17.3167 25.0116 16.2241C24.5311 15.1315 23.7659 14.1881 22.796 13.4924C21.8261 12.7968 20.6872 12.3745 19.4982 12.2697C18.3093 12.1649 17.114 12.3814 16.0373 12.8967C15.9413 12.9428 15.8576 13.0113 15.7935 13.0964C15.7293 13.1815 15.6865 13.2807 15.6686 13.3858C15.6507 13.4908 15.6583 13.5986 15.6907 13.7002C15.723 13.8017 15.7793 13.894 15.8547 13.9693L19.3333 17.4473V19.3333H17.4473L13.9693 15.8547C13.894 15.7793 13.8017 15.723 13.7002 15.6907C13.5986 15.6583 13.4908 15.6507 13.3858 15.6686C13.2807 15.6865 13.1815 15.7293 13.0964 15.7935C13.0113 15.8576 12.9428 15.9413 12.8967 16.0373C12.3816 17.1137 12.165 18.3086 12.2697 19.4972C12.3744 20.6858 12.7964 21.8245 13.4916 22.7942C14.1869 23.764 15.1299 24.5292 16.222 25.0098C17.3141 25.4905 18.5153 25.669 19.7 25.5267C20.004 25.4867 20.3132 25.5168 20.6038 25.6147C20.8944 25.7125 21.1588 25.8756 21.3767 26.0913L24.806 29.52C22.5405 30.6645 19.9413 30.9642 17.4748 30.3652C15.0083 29.7663 12.8359 28.308 11.3476 26.252C9.85921 24.196 9.15227 21.6769 9.3536 19.1467C9.55493 16.6165 10.6513 14.2409 12.4461 12.4461C14.2409 10.6513 16.6165 9.55493 19.1467 9.3536C21.6769 9.15227 24.196 9.85921 26.252 11.3476C28.308 12.8359 29.7663 15.0083 30.3652 17.4748C30.9642 19.9413 30.6645 22.5405 29.52 24.806L26.0913 21.38ZM34.4367 22.5573C34.1152 24.3973 33.442 26.1581 32.454 27.7433L30.5047 25.794C31.9033 23.2596 32.3398 20.3054 31.7339 17.4749C31.1281 14.6443 29.5206 12.1276 27.2072 10.3877C24.8937 8.64783 22.0298 7.80172 19.1423 8.005C16.2548 8.20829 13.5377 9.4473 11.4908 11.4942C9.44397 13.541 8.20496 16.2581 8.00167 19.1456C7.79839 22.0332 8.6445 24.897 10.3844 27.2105C12.1243 29.5239 14.6409 31.1314 17.4715 31.7373C20.3021 32.3431 23.2563 31.9066 25.7907 30.508L27.74 32.4573C26.1548 33.4453 24.394 34.1185 22.554 34.44C22.3996 34.4665 22.2595 34.5465 22.1582 34.6659C22.0569 34.7854 22.0009 34.9367 22 35.0933V38.6667H18V35.0933C17.9999 34.9361 17.9443 34.784 17.8429 34.6639C17.7415 34.5437 17.6009 34.4632 17.446 34.4367C15.343 34.0685 13.3469 33.2414 11.6 32.014C11.4716 31.9238 11.3155 31.8817 11.1592 31.8953C11.0029 31.9088 10.8563 31.9771 10.7453 32.088L8.21733 34.6113L5.392 31.786L7.91533 29.258C8.02628 29.147 8.09453 29.0005 8.10806 28.8442C8.1216 28.6878 8.07956 28.5317 7.98933 28.4033C6.76152 26.6554 5.93432 24.6582 5.56667 22.554C5.54 22.3985 5.45905 22.2575 5.3382 22.156C5.21735 22.0546 5.06444 21.9993 4.90667 22H1.33333V18H4.90667C5.06387 17.9999 5.21599 17.9443 5.33614 17.8429C5.4563 17.7415 5.53677 17.6009 5.56333 17.446C5.93146 15.343 6.75864 13.3469 7.986 11.6C8.07622 11.4716 8.11827 11.3155 8.10473 11.1592C8.09119 11.0029 8.02295 10.8563 7.912 10.7453L5.38867 8.21733L8.214 5.392L10.742 7.91533C10.853 8.02628 10.9995 8.09453 11.1558 8.10806C11.3122 8.1216 11.4683 8.07956 11.5967 7.98933C13.3446 6.76152 15.3418 5.93432 17.446 5.56667C17.6015 5.54 17.7425 5.45905 17.844 5.3382C17.9454 5.21735 18.0007 5.06444 18 4.90667V1.33333H22V4.90667C22.0001 5.06387 22.0557 5.21599 22.1571 5.33614C22.2585 5.4563 22.3991 5.53677 22.554 5.56333C24.6582 5.93099 26.6554 6.75819 28.4033 7.986C28.5317 8.07622 28.6878 8.11827 28.8442 8.10473C29.0005 8.09119 29.147 8.02295 29.258 7.912L31.786 5.38867L34.6113 8.214L32.088 10.742C31.9771 10.853 31.9088 10.9995 31.8953 11.1558C31.8817 11.3122 31.9238 11.4683 32.014 11.5967C33.2418 13.3446 34.069 15.3418 34.4367 17.446C34.4632 17.6009 34.5437 17.7415 34.6639 17.8429C34.784 17.9443 34.9361 17.9999 35.0933 18H38.6667V22H35.0933C34.9361 22.0001 34.784 22.0557 34.6639 22.1571C34.5437 22.2585 34.4632 22.3991 34.4367 22.554V22.5573Z" fill="white"/>
<path d="M24.2429 23.3002C24.1814 23.2365 24.1078 23.1857 24.0265 23.1508C23.9451 23.1159 23.8577 23.0975 23.7691 23.0967C23.6806 23.0959 23.5928 23.1128 23.5109 23.1463C23.429 23.1798 23.3545 23.2293 23.2919 23.2919C23.2293 23.3545 23.1798 23.429 23.1463 23.5109C23.1128 23.5928 23.0959 23.6806 23.0967 23.7691C23.0975 23.8577 23.1159 23.9451 23.1508 24.0265C23.1857 24.1078 23.2365 24.1814 23.3002 24.2429L23.7715 24.7142C23.8973 24.8356 24.0657 24.9028 24.2405 24.9013C24.4153 24.8998 24.5825 24.8297 24.7061 24.7061C24.8297 24.5825 24.8998 24.4153 24.9013 24.2405C24.9028 24.0657 24.8356 23.8973 24.7142 23.7715L24.2429 23.3002Z" fill="white"/>
<path d="M33.6708 34.613C33.7965 34.7344 33.9649 34.8016 34.1397 34.8001C34.3145 34.7986 34.4817 34.7285 34.6053 34.6049C34.7289 34.4812 34.7991 34.314 34.8006 34.1392C34.8021 33.9644 34.7349 33.796 34.6135 33.6703L26.6001 25.6563C26.475 25.5312 26.3054 25.4609 26.1285 25.4609C25.9516 25.4609 25.7819 25.5312 25.6568 25.6563C25.5317 25.7814 25.4614 25.9511 25.4614 26.128C25.4614 26.3049 25.5317 26.4745 25.6568 26.5996L33.6708 34.613Z" fill="white"/>
<path d="M36.0282 36.9704C36.1539 37.0918 36.3223 37.159 36.4971 37.1575C36.6719 37.156 36.8392 37.0859 36.9628 36.9623C37.0864 36.8387 37.1565 36.6715 37.158 36.4967C37.1595 36.3219 37.0923 36.1535 36.9709 36.0277L36.4995 35.5557C36.3745 35.4306 36.2048 35.3604 36.0279 35.3604C35.851 35.3604 35.6813 35.4306 35.5562 35.5557C35.4311 35.6808 35.3608 35.8505 35.3608 36.0274C35.3608 36.2043 35.4311 36.374 35.5562 36.4991L36.0282 36.9704Z" fill="white"/>
</svg>
