<svg width="43" height="43" viewBox="0 0 43 43" fill="none" xmlns="http://www.w3.org/2000/svg">
<path d="M24.6094 37.2656H23.2031V30.375C23.2031 30.1885 23.129 30.0097 22.9972 29.8778C22.8653 29.746 22.6865 29.6719 22.5 29.6719C22.3135 29.6719 22.1347 29.746 22.0028 29.8778C21.871 30.0097 21.7969 30.1885 21.7969 30.375V37.2656H3.51562V23.2031H9.36562C9.5521 23.2031 9.73095 23.129 9.86281 22.9972C9.99467 22.8653 10.0687 22.6865 10.0687 22.5C10.0687 22.3135 9.99467 22.1347 9.86281 22.0028C9.73095 21.871 9.5521 21.7969 9.36562 21.7969H2.8125C2.62602 21.7969 2.44718 21.871 2.31532 22.0028C2.18345 22.1347 2.10938 22.3135 2.10938 22.5V37.2656H0.703125C0.516645 37.2656 0.337802 37.3397 0.205941 37.4716C0.074079 37.6034 0 37.7823 0 37.9688V39.375C0 40.3074 0.370395 41.2016 1.0297 41.8609C1.68901 42.5202 2.58322 42.8906 3.51562 42.8906H21.7969C22.7293 42.8906 23.6235 42.5202 24.2828 41.8609C24.9421 41.2016 25.3125 40.3074 25.3125 39.375V37.9688C25.3125 37.7823 25.2384 37.6034 25.1066 37.4716C24.9747 37.3397 24.7959 37.2656 24.6094 37.2656ZM23.9062 39.375C23.9062 39.9344 23.684 40.471 23.2884 40.8666C22.8928 41.2621 22.3563 41.4844 21.7969 41.4844H20.3906V40.7813C20.3906 40.5948 20.3165 40.4159 20.1847 40.2841C20.0528 40.1522 19.874 40.0781 19.6875 40.0781C19.501 40.0781 19.3222 40.1522 19.1903 40.2841C19.0585 40.4159 18.9844 40.5948 18.9844 40.7813V41.4844H6.32812V40.7813C6.32812 40.5948 6.25405 40.4159 6.12218 40.2841C5.99032 40.1522 5.81148 40.0781 5.625 40.0781C5.43852 40.0781 5.25968 40.1522 5.12782 40.2841C4.99595 40.4159 4.92188 40.5948 4.92188 40.7813V41.4844H3.51562C2.95618 41.4844 2.41966 41.2621 2.02407 40.8666C1.62849 40.471 1.40625 39.9344 1.40625 39.375V38.6719H23.9062V39.375Z" fill="white"/>
<path d="M36.5625 4.92188H37.9688C38.1552 4.92188 38.3341 4.8478 38.4659 4.71594C38.5978 4.58408 38.6719 4.40523 38.6719 4.21875C38.6719 4.03227 38.5978 3.85343 38.4659 3.72157C38.3341 3.58971 38.1552 3.51563 37.9688 3.51563H36.5625C36.0031 3.51563 35.4665 3.73786 35.0709 4.13345C34.6754 4.52903 34.4531 5.06556 34.4531 5.625V6.32813H33.75C33.5635 6.32813 33.3847 6.40221 33.2528 6.53407C33.121 6.66593 33.0469 6.84477 33.0469 7.03125C33.0469 7.21773 33.121 7.39658 33.2528 7.52844C33.3847 7.6603 33.5635 7.73438 33.75 7.73438H34.4531V9.84375C34.4531 10.0302 34.5272 10.2091 34.6591 10.3409C34.7909 10.4728 34.9698 10.5469 35.1562 10.5469C35.3427 10.5469 35.5216 10.4728 35.6534 10.3409C35.7853 10.2091 35.8594 10.0302 35.8594 9.84375V7.73438H36.5625C36.749 7.73438 36.9278 7.6603 37.0597 7.52844C37.1915 7.39658 37.2656 7.21773 37.2656 7.03125C37.2656 6.84477 37.1915 6.66593 37.0597 6.53407C36.9278 6.40221 36.749 6.32813 36.5625 6.32813H35.8594V5.625C35.8594 5.43852 35.9335 5.25968 36.0653 5.12782C36.1972 4.99596 36.376 4.92188 36.5625 4.92188Z" fill="white"/>
<path d="M40.0781 0.703128H31.6406C31.0812 0.703128 30.5447 0.925365 30.1491 1.32095C29.7535 1.71653 29.5312 2.25306 29.5312 2.8125V4.21875C29.5312 4.40523 29.6053 4.58408 29.7372 4.71594C29.8691 4.8478 30.0479 4.92188 30.2344 4.92188C30.4209 4.92188 30.5997 4.8478 30.7316 4.71594C30.8634 4.58408 30.9375 4.40523 30.9375 4.21875V2.8125C30.9375 2.62602 31.0116 2.44718 31.1434 2.31532C31.2753 2.18346 31.4541 2.10938 31.6406 2.10938H40.0781C40.2646 2.10938 40.4434 2.18346 40.5753 2.31532C40.7072 2.44718 40.7812 2.62602 40.7812 2.8125V11.25C40.7812 11.4365 40.7072 11.6153 40.5753 11.7472C40.4434 11.879 40.2646 11.9531 40.0781 11.9531H31.6406C31.4541 11.9531 31.2753 11.879 31.1434 11.7472C31.0116 11.6153 30.9375 11.4365 30.9375 11.25V7.03125C30.9375 6.84477 30.8634 6.66593 30.7316 6.53407C30.5997 6.40221 30.4209 6.32813 30.2344 6.32813C30.0479 6.32813 29.8691 6.40221 29.7372 6.53407C29.6053 6.66593 29.5312 6.84477 29.5312 7.03125V11.25C29.5312 11.8094 29.7535 12.346 30.1491 12.7416C30.5447 13.1371 31.0812 13.3594 31.6406 13.3594H40.0781C40.6376 13.3594 41.1741 13.1371 41.5697 12.7416C41.9653 12.346 42.1875 11.8094 42.1875 11.25V2.8125C42.1875 2.25306 41.9653 1.71653 41.5697 1.32095C41.1741 0.925365 40.6376 0.703128 40.0781 0.703128Z" fill="white"/>
<path d="M33.0469 28.8281C33.0469 29.3844 33.2118 29.9282 33.5209 30.3907C33.8299 30.8532 34.2692 31.2137 34.7831 31.4266C35.297 31.6394 35.8625 31.6951 36.4081 31.5866C36.9536 31.4781 37.4548 31.2102 37.8481 30.8169C38.2415 30.4235 38.5093 29.9224 38.6178 29.3768C38.7264 28.8313 38.6707 28.2658 38.4578 27.7518C38.2449 27.2379 37.8844 26.7987 37.4219 26.4896C36.9594 26.1806 36.4156 26.0156 35.8594 26.0156C35.1135 26.0156 34.3981 26.3119 33.8706 26.8394C33.3432 27.3668 33.0469 28.0822 33.0469 28.8281ZM37.2656 28.8281C37.2656 29.1063 37.1832 29.3782 37.0286 29.6094C36.8741 29.8407 36.6545 30.0209 36.3975 30.1273C36.1406 30.2338 35.8578 30.2616 35.585 30.2074C35.3122 30.1531 35.0617 30.0192 34.865 29.8225C34.6683 29.6258 34.5344 29.3753 34.4801 29.1025C34.4259 28.8297 34.4537 28.5469 34.5602 28.29C34.6666 28.033 34.8469 27.8134 35.0781 27.6589C35.3094 27.5044 35.5813 27.4219 35.8594 27.4219C36.2323 27.4219 36.59 27.57 36.8538 27.8338C37.1175 28.0975 37.2656 28.4552 37.2656 28.8281Z" fill="white"/>
<path d="M40.0781 22.5H31.6406C31.0812 22.5 30.5447 22.7222 30.1491 23.1178C29.7535 23.5134 29.5312 24.0499 29.5312 24.6094V33.0469C29.5312 33.6063 29.7535 34.1428 30.1491 34.5384C30.5447 34.934 31.0812 35.1563 31.6406 35.1563H40.0781C40.6376 35.1563 41.1741 34.934 41.5697 34.5384C41.9653 34.1428 42.1875 33.6063 42.1875 33.0469V31.6406C42.1875 31.4541 42.1134 31.2753 41.9816 31.1434C41.8497 31.0116 41.6709 30.9375 41.4844 30.9375C41.2979 30.9375 41.1191 31.0116 40.9872 31.1434C40.8553 31.2753 40.7812 31.4541 40.7812 31.6406V33.0469C40.7812 33.2334 40.7072 33.4122 40.5753 33.5441C40.4434 33.6759 40.2646 33.75 40.0781 33.75H31.6406C31.4541 33.75 31.2753 33.6759 31.1434 33.5441C31.0116 33.4122 30.9375 33.2334 30.9375 33.0469V24.6094C30.9375 24.4229 31.0116 24.2441 31.1434 24.1122C31.2753 23.9803 31.4541 23.9063 31.6406 23.9063H40.0781C40.2646 23.9063 40.4434 23.9803 40.5753 24.1122C40.7072 24.2441 40.7812 24.4229 40.7812 24.6094V28.8281C40.7812 29.0146 40.8553 29.1935 40.9872 29.3253C41.1191 29.4572 41.2979 29.5313 41.4844 29.5313C41.6709 29.5313 41.8497 29.4572 41.9816 29.3253C42.1134 29.1935 42.1875 29.0146 42.1875 28.8281V24.6094C42.1875 24.0499 41.9653 23.5134 41.5697 23.1178C41.1741 22.7222 40.6376 22.5 40.0781 22.5Z" fill="white"/>
<path d="M15.7992 9.03516C15.9111 9.1045 16.0402 9.14105 16.1719 9.14062C16.2819 9.13997 16.3903 9.11347 16.4883 9.06328L20.707 6.95391C20.8222 6.8949 20.9189 6.80526 20.9864 6.69484C21.0538 6.58443 21.0896 6.45753 21.0896 6.32813C21.0896 6.19872 21.0538 6.07182 20.9864 5.96141C20.9189 5.851 20.8222 5.76135 20.707 5.70235L16.4883 3.59297C16.3812 3.53903 16.2622 3.51336 16.1424 3.51837C16.0227 3.52339 15.9062 3.55893 15.8041 3.62163C15.7019 3.68433 15.6175 3.7721 15.5588 3.87661C15.5001 3.98112 15.4691 4.0989 15.4687 4.21875V8.4375C15.4685 8.55699 15.4987 8.67457 15.5565 8.77915C15.6144 8.88372 15.6979 8.97183 15.7992 9.03516ZM16.875 5.35781L18.8156 6.32813L16.875 7.29844V5.35781Z" fill="white"/>
<path d="M17.5781 12.6563C18.8297 12.6563 20.0532 12.2851 21.0938 11.5898C22.1345 10.8944 22.9456 9.90611 23.4246 8.74979C23.9035 7.59348 24.0288 6.32111 23.7847 5.09357C23.5405 3.86604 22.9378 2.73847 22.0528 1.85347C21.1678 0.968463 20.0402 0.365768 18.8127 0.121596C17.5851 -0.122576 16.3128 0.00274184 15.1565 0.481703C14.0001 0.960663 13.0118 1.77175 12.3165 2.81241C11.6211 3.85306 11.25 5.07654 11.25 6.32813C11.25 8.00645 11.9167 9.61603 13.1035 10.8028C14.2902 11.9895 15.8998 12.6563 17.5781 12.6563ZM17.5781 1.40625C18.5516 1.40625 19.5032 1.69492 20.3126 2.23574C21.122 2.77656 21.7528 3.54525 22.1253 4.44461C22.4979 5.34396 22.5953 6.33359 22.4054 7.28834C22.2155 8.24309 21.7468 9.12008 21.0584 9.80842C20.3701 10.4968 19.4931 10.9655 18.5383 11.1554C17.5836 11.3453 16.594 11.2479 15.6946 10.8753C14.7953 10.5028 14.0266 9.87197 13.4857 9.06257C12.9449 8.25318 12.6562 7.30158 12.6562 6.32813C12.6562 5.02276 13.1748 3.77087 14.0978 2.84784C15.0209 1.92481 16.2728 1.40625 17.5781 1.40625Z" fill="white"/>
<path d="M24.6094 15.4688C24.7185 15.4688 24.8262 15.4433 24.9238 15.3945C25.0215 15.3457 25.1064 15.2748 25.1719 15.1875L27.2813 12.375C27.3931 12.2258 27.4412 12.0383 27.4148 11.8537C27.3884 11.6691 27.2898 11.5025 27.1406 11.3906C26.9914 11.2787 26.8039 11.2307 26.6193 11.2571C26.4347 11.2834 26.2681 11.3821 26.1563 11.5313L24.0469 14.3438C23.935 14.4929 23.8869 14.6805 23.9133 14.8651C23.9397 15.0497 24.0383 15.2162 24.1875 15.3281C24.3092 15.4194 24.4572 15.4688 24.6094 15.4688Z" fill="white"/>
<path d="M26.1562 18C26.2217 18.0873 26.3067 18.1582 26.4043 18.207C26.5019 18.2558 26.6096 18.2813 26.7188 18.2813C26.8709 18.2813 27.0189 18.2319 27.1406 18.1406L29.9531 16.0313C30.1023 15.9194 30.2009 15.7528 30.2273 15.5682C30.2537 15.3836 30.2056 15.1961 30.0938 15.0469C29.9819 14.8977 29.8153 14.7991 29.6307 14.7727C29.4461 14.7463 29.2586 14.7944 29.1094 14.9063L26.2969 17.0156C26.1477 17.1275 26.0491 17.2941 26.0227 17.4787C25.9963 17.6633 26.0444 17.8508 26.1562 18Z" fill="white"/>
<path d="M33.0469 19.5469C33.0302 19.4537 32.9948 19.3648 32.9429 19.2856C32.891 19.2064 32.8236 19.1385 32.7448 19.0859C32.666 19.0334 32.5774 18.9973 32.4843 18.9799C32.3912 18.9624 32.2956 18.964 32.2031 18.9844L28.6875 19.6875C28.5952 19.6967 28.5055 19.7241 28.4238 19.7679C28.342 19.8118 28.2697 19.8713 28.2109 19.9432C28.0922 20.0882 28.036 20.2745 28.0547 20.4609C28.0733 20.6474 28.1653 20.8189 28.3103 20.9375C28.4554 21.0562 28.6416 21.1124 28.8281 21.0938H28.9687L32.4844 20.3906C32.5776 20.3739 32.6665 20.3385 32.7457 20.2866C32.8249 20.2347 32.8928 20.1674 32.9453 20.0886C32.9979 20.0098 33.0339 19.9212 33.0514 19.8281C33.0688 19.735 33.0673 19.6394 33.0469 19.5469Z" fill="white"/>
<path d="M0.703125 19.6875H9.14062C9.32711 19.6875 9.50595 19.6134 9.63781 19.4816C9.76967 19.3497 9.84375 19.1709 9.84375 18.9844V7.73438C9.84375 7.5479 9.76967 7.36906 9.63781 7.23719C9.50595 7.10533 9.32711 7.03125 9.14062 7.03125H0.703125C0.516645 7.03125 0.337802 7.10533 0.205941 7.23719C0.074079 7.36906 0 7.5479 0 7.73438V18.9844C0 19.1709 0.074079 19.3497 0.205941 19.4816C0.337802 19.6134 0.516645 19.6875 0.703125 19.6875ZM1.40625 8.4375H8.4375V18.2813H1.40625V8.4375Z" fill="white"/>
<path d="M6.32812 9.84375H4.92188C4.73539 9.84375 4.55655 9.91783 4.42469 10.0497C4.29283 10.1816 4.21875 10.3604 4.21875 10.5469C4.21875 10.7334 4.29283 10.9122 4.42469 11.0441C4.55655 11.1759 4.73539 11.25 4.92188 11.25H6.32812C6.51461 11.25 6.69345 11.1759 6.82531 11.0441C6.95717 10.9122 7.03125 10.7334 7.03125 10.5469C7.03125 10.3604 6.95717 10.1816 6.82531 10.0497C6.69345 9.91783 6.51461 9.84375 6.32812 9.84375Z" fill="white"/>
<path d="M6.32812 12.6563H3.51562C3.32914 12.6563 3.1503 12.7303 3.01844 12.8622C2.88658 12.9941 2.8125 13.1729 2.8125 13.3594C2.8125 13.5459 2.88658 13.7247 3.01844 13.8566C3.1503 13.9884 3.32914 14.0625 3.51562 14.0625H6.32812C6.51461 14.0625 6.69345 13.9884 6.82531 13.8566C6.95717 13.7247 7.03125 13.5459 7.03125 13.3594C7.03125 13.1729 6.95717 12.9941 6.82531 12.8622C6.69345 12.7303 6.51461 12.6563 6.32812 12.6563Z" fill="white"/>
<path d="M6.32812 15.4688H3.51562C3.32914 15.4688 3.1503 15.5428 3.01844 15.6747C2.88658 15.8066 2.8125 15.9854 2.8125 16.1719C2.8125 16.3584 2.88658 16.5372 3.01844 16.6691C3.1503 16.8009 3.32914 16.875 3.51562 16.875H6.32812C6.51461 16.875 6.69345 16.8009 6.82531 16.6691C6.95717 16.5372 7.03125 16.3584 7.03125 16.1719C7.03125 15.9854 6.95717 15.8066 6.82531 15.6747C6.69345 15.5428 6.51461 15.4688 6.32812 15.4688Z" fill="white"/>
<path d="M23.9906 19.4766C23.9445 19.3962 23.8829 19.3258 23.8095 19.2692C23.7361 19.2127 23.6523 19.1711 23.5629 19.147C23.4734 19.1228 23.3801 19.1165 23.2882 19.1284C23.1963 19.1403 23.1077 19.1702 23.0273 19.2164C22.947 19.2626 22.8766 19.3241 22.82 19.3975C22.7635 19.4709 22.7219 19.5547 22.6978 19.6442C22.6736 19.7336 22.6673 19.827 22.6792 19.9188C22.6911 20.0107 22.721 20.0994 22.7672 20.1797L25.868 25.5445L14.618 29.7633C14.618 29.7633 14.618 29.7633 14.5687 29.7633H14.5125L11.468 31.5211C11.3078 31.6137 11.131 31.6737 10.9476 31.6979C10.7642 31.722 10.5779 31.7097 10.3992 31.6617C10.0403 31.5648 9.73445 31.3297 9.54844 31.0078L8.14219 28.575C7.97675 28.2567 7.9392 27.8872 8.03723 27.5422C8.13526 27.1971 8.36146 26.9025 8.66953 26.7188L11.1023 25.3125L12.8602 28.357C12.9221 28.4643 13.0113 28.5534 13.1187 28.6151C13.2261 28.6768 13.348 28.7091 13.4719 28.7086C13.5955 28.7091 13.7171 28.677 13.8244 28.6154C13.9317 28.5539 14.0209 28.4652 14.0829 28.3582C14.1449 28.2513 14.1777 28.1298 14.1778 28.0062C14.1779 27.8825 14.1454 27.761 14.0836 27.6539L12.2695 24.518L21.0937 17.2406L21.382 17.7398C21.4282 17.8202 21.4897 17.8906 21.5631 17.9472C21.6365 18.0037 21.7203 18.0453 21.8098 18.0694C21.8992 18.0936 21.9926 18.0999 22.0845 18.088C22.1763 18.0761 22.265 18.0462 22.3453 18C22.4256 17.9538 22.4961 17.8923 22.5526 17.8189C22.6092 17.7455 22.6507 17.6617 22.6749 17.5722C22.699 17.4828 22.7053 17.3895 22.6934 17.2976C22.6815 17.2057 22.6516 17.1171 22.6055 17.0367L21.9023 15.8203C21.8508 15.7322 21.7807 15.6564 21.6969 15.5981C21.6132 15.5398 21.5177 15.5005 21.4172 15.4828C21.3161 15.4638 21.2121 15.4671 21.1125 15.4926C21.0129 15.5181 20.9201 15.5652 20.8406 15.6305L10.9969 23.7445L8.00156 25.4742C7.46403 25.7873 7.04547 26.2698 6.81137 26.8461C6.57727 27.4225 6.54085 28.0601 6.70781 28.6594L6.00469 29.0602C5.64241 29.2682 5.35006 29.5791 5.16471 29.9535C4.97937 30.3279 4.90937 30.7489 4.9636 31.1632C5.01783 31.5774 5.19383 31.9662 5.46931 32.2803C5.74478 32.5944 6.10731 32.8196 6.51094 32.9273C6.68987 32.9748 6.87427 32.9984 7.05937 32.9977C7.42927 32.9961 7.79252 32.8993 8.11406 32.7164L8.81719 32.3156C9.15495 32.6646 9.57973 32.917 10.0477 33.0469C10.2879 33.1141 10.5364 33.1472 10.7859 33.1453C11.2802 33.1465 11.7657 33.0154 12.1922 32.7656L12.8039 32.4141L14.2102 34.8539C14.4896 35.3371 14.9492 35.6898 15.4882 35.8348C16.0273 35.9797 16.6018 35.9052 17.0859 35.6273C17.3261 35.489 17.5367 35.3046 17.7056 35.0848C17.8744 34.8649 17.9983 34.614 18.0702 34.3463C18.142 34.0785 18.1604 33.7992 18.1242 33.5244C18.088 33.2496 17.998 32.9846 17.8594 32.7445L16.5797 30.5156L27.1266 26.557C27.2222 26.5211 27.3089 26.4647 27.3805 26.3919C27.4522 26.319 27.5071 26.2314 27.5414 26.1352C27.5756 26.0401 27.5889 25.9387 27.5804 25.838C27.572 25.7373 27.5418 25.6396 27.4922 25.5516L23.9906 19.4766ZM7.38281 31.493C7.30274 31.5393 7.21433 31.5693 7.12263 31.5814C7.03093 31.5934 6.93776 31.5873 6.84844 31.5633C6.6683 31.5165 6.51406 31.4002 6.41953 31.2398C6.37324 31.1598 6.3432 31.0714 6.33114 30.9797C6.31907 30.888 6.32522 30.7948 6.34922 30.7055C6.37322 30.6157 6.41479 30.5316 6.47151 30.4579C6.52823 30.3843 6.59899 30.3227 6.67969 30.2766L7.29141 29.925L7.99453 31.1414L7.38281 31.493ZM16.6359 33.4617C16.6822 33.5418 16.7123 33.6302 16.7243 33.7219C16.7364 33.8136 16.7302 33.9068 16.7062 33.9961C16.6561 34.1748 16.5373 34.3265 16.3758 34.418C16.2152 34.5102 16.0247 34.5354 15.8456 34.488C15.6666 34.4406 15.5135 34.3245 15.4195 34.1648L14.0133 31.725L15.1805 31.057H15.2367L16.6359 33.4617Z" fill="white"/>
</svg>
