<svg width="72" height="70" viewBox="0 0 72 70" fill="none" xmlns="http://www.w3.org/2000/svg">
<path d="M13.9049 28.6885C12.759 28.6885 11.6389 28.352 10.6861 27.7215C9.73335 27.0911 8.99075 26.195 8.55224 25.1465C8.11372 24.0981 7.99899 22.9445 8.22254 21.8314C8.44609 20.7184 8.99789 19.6961 9.80816 18.8936C10.6184 18.0912 11.6508 17.5448 12.7746 17.3234C13.8985 17.102 15.0634 17.2156 16.1221 17.6499C17.1808 18.0841 18.0856 18.8196 18.7222 19.7631C19.3589 20.7067 19.6986 21.816 19.6986 22.9508C19.6968 24.472 19.0858 25.9303 17.9997 27.006C16.9135 28.0816 15.441 28.6867 13.9049 28.6885ZM13.9049 19.5082C13.2174 19.5082 12.5453 19.7101 11.9736 20.0884C11.402 20.4667 10.9564 21.0043 10.6933 21.6334C10.4302 22.2624 10.3614 22.9546 10.4955 23.6224C10.6296 24.2902 10.9607 24.9037 11.4469 25.3851C11.933 25.8666 12.5524 26.1945 13.2268 26.3273C13.9011 26.4601 14.6 26.392 15.2352 26.1314C15.8704 25.8708 16.4133 25.4296 16.7953 24.8634C17.1773 24.2973 17.3812 23.6317 17.3812 22.9508C17.3812 22.0378 17.0149 21.1621 16.363 20.5165C15.7111 19.8709 14.8269 19.5082 13.9049 19.5082Z" fill="#F41E1E"/>
<path d="M10.4287 52.7869H1.15876C0.85144 52.7869 0.556709 52.666 0.339402 52.4508C0.122096 52.2356 1.42722e-05 51.9437 1.42722e-05 51.6393C-0.0034091 48.4609 0.609052 45.3113 1.80418 42.3615L5.58979 32.9872C6.0963 31.7336 7.02997 30.6952 8.2288 30.0521C9.42763 29.409 10.816 29.2018 12.1529 29.4666C12.9323 29.6221 13.6715 29.9331 14.3255 30.3808C14.9796 30.8284 15.5347 31.4033 15.9571 32.0703L20.3939 39.1036L25.84 39.8736C26.7525 40.0015 27.5821 40.4673 28.1614 41.1772C28.7407 41.887 29.0266 42.788 28.9615 43.6984C28.8964 44.6088 28.485 45.4609 27.8105 46.0827C27.1359 46.7046 26.2483 47.05 25.3267 47.0492H16.2224C16.0071 47.0493 15.796 46.99 15.6128 46.8779C15.4296 46.7658 15.2816 46.6053 15.1853 46.4146L13.2641 42.6093L11.5677 51.8448C11.5192 52.109 11.3786 52.3479 11.1705 52.5201C10.9624 52.6922 10.6999 52.7867 10.4287 52.7869ZM2.34647 50.4918H9.46115L11.6071 38.811C11.6508 38.5742 11.7686 38.3569 11.9437 38.19C12.1189 38.0231 12.3427 37.915 12.5834 37.881C12.824 37.847 13.0694 37.8888 13.2847 38.0005C13.5001 38.1122 13.6745 38.2882 13.7833 38.5034L16.9385 44.7541H25.3267C25.6608 44.7535 25.9823 44.6277 26.2267 44.402C26.4711 44.1763 26.6202 43.8675 26.6441 43.5374C26.668 43.2073 26.565 42.8805 26.3556 42.6226C26.1463 42.3647 25.8462 42.1947 25.5155 42.1469L19.5341 41.3C19.3672 41.2763 19.2075 41.2167 19.0662 41.1256C18.9249 41.0344 18.8054 40.9138 18.716 40.7721L13.9918 33.2867C13.6474 32.7412 13.1571 32.3007 12.5753 32.0142C11.9935 31.7278 11.343 31.6065 10.6959 31.6637C10.0487 31.721 9.43023 31.9547 8.90898 32.3388C8.38772 32.7229 7.98406 33.2424 7.74274 33.8398L3.95596 43.213C3.01598 45.5342 2.47207 47.994 2.34647 50.4918Z" fill="#F41E1E"/>
<path d="M57.9372 28.6885C56.7913 28.6885 55.6711 28.352 54.7184 27.7215C53.7656 27.0911 53.023 26.195 52.5845 25.1465C52.146 24.0981 52.0312 22.9445 52.2548 21.8314C52.4783 20.7184 53.0301 19.6961 53.8404 18.8936C54.6507 18.0912 55.683 17.5448 56.8069 17.3234C57.9307 17.102 59.0957 17.2156 60.1543 17.6499C61.213 18.0841 62.1179 18.8196 62.7545 19.7631C63.3911 20.7067 63.7309 21.816 63.7309 22.9508C63.7291 24.472 63.1181 25.9303 62.0319 27.006C60.9458 28.0816 59.4732 28.6867 57.9372 28.6885ZM57.9372 19.5082C57.2496 19.5082 56.5775 19.7101 56.0059 20.0884C55.4342 20.4667 54.9887 21.0043 54.7256 21.6334C54.4625 22.2624 54.3936 22.9546 54.5277 23.6224C54.6619 24.2902 54.993 24.9037 55.4791 25.3851C55.9653 25.8666 56.5847 26.1945 57.259 26.3273C57.9333 26.4601 58.6323 26.392 59.2675 26.1314C59.9027 25.8708 60.4456 25.4296 60.8276 24.8634C61.2095 24.2973 61.4134 23.6317 61.4134 22.9508C61.4134 22.0378 61.0472 21.1621 60.3952 20.5165C59.7433 19.8709 58.8591 19.5082 57.9372 19.5082Z" fill="#F41E1E"/>
<path d="M70.6833 52.7869H61.4134C61.1422 52.7867 60.8797 52.6922 60.6716 52.5201C60.4635 52.3479 60.3229 52.109 60.2744 51.8448L58.578 42.6093L56.6626 46.4146C56.5659 46.6062 56.4169 46.7672 56.2326 46.8794C56.0483 46.9915 55.836 47.0503 55.6197 47.0492H46.5154C45.5935 47.0509 44.7053 46.7061 44.0301 46.0845C43.3548 45.4629 42.9428 44.6108 42.8772 43.7001C42.8116 42.7894 43.0973 41.888 43.6767 41.1778C44.256 40.4676 45.0858 40.0015 45.9986 39.8736L51.4447 39.1036L55.8839 32.0703C56.3063 31.4033 56.8614 30.8284 57.5154 30.3808C58.1694 29.9331 58.9087 29.6221 59.688 29.4666C61.025 29.2012 62.4137 29.408 63.6127 30.0512C64.8116 30.6944 65.7452 31.7332 66.2512 32.9872L70.0368 42.3615C71.2323 45.3113 71.8452 48.4608 71.8421 51.6393C71.8421 51.9437 71.72 52.2356 71.5027 52.4508C71.2854 52.666 70.9907 52.7869 70.6833 52.7869ZM62.381 50.4918H69.4956C69.37 47.994 68.8261 45.5342 67.8861 43.213L64.0994 33.8398C63.8583 33.2424 63.4547 32.7228 62.9336 32.3386C62.4124 31.9544 61.794 31.7208 61.1469 31.6635C60.4998 31.6062 59.8493 31.7275 59.2676 32.0141C58.6859 32.3006 58.1957 32.7411 57.8514 33.2867L53.1261 40.7721C53.0367 40.9138 52.9172 41.0344 52.7759 41.1256C52.6346 41.2167 52.4749 41.2763 52.308 41.3L46.3266 42.1469C45.9959 42.1947 45.6958 42.3647 45.4865 42.6226C45.2771 42.8805 45.1741 43.2073 45.198 43.5374C45.2219 43.8675 45.371 44.1763 45.6154 44.402C45.8598 44.6277 46.1813 44.7535 46.5154 44.7541H54.9036L58.0588 38.5034C58.1676 38.2882 58.3421 38.1122 58.5574 38.0005C58.7727 37.8888 59.0181 37.847 59.2588 37.881C59.4994 37.915 59.7232 38.0231 59.8984 38.19C60.0736 38.3569 60.1913 38.5742 60.235 38.811L62.381 50.4918Z" fill="#F41E1E"/>
<path d="M50.5606 35.9915L49.0346 32.1311H22.8076L21.7357 34.8439L19.5828 34.0085L20.942 30.5659C21.0265 30.3516 21.1742 30.1675 21.3657 30.0373C21.5572 29.9072 21.7838 29.8371 22.0161 29.8361H49.826C50.0592 29.8359 50.2871 29.9055 50.4798 30.0357C50.6725 30.166 50.821 30.3507 50.9059 30.5659L52.7194 35.1561L50.5606 35.9915Z" fill="#F41E1E"/>
<path d="M35.9211 57.377C34.0777 57.3752 32.3104 56.6492 31.007 55.3584C29.7035 54.0676 28.9704 52.3173 28.9686 50.4918V49.3443C28.9686 47.5182 29.7011 45.7669 31.0049 44.4757C32.3088 43.1844 34.0771 42.459 35.9211 42.459C37.765 42.459 39.5333 43.1844 40.8372 44.4757C42.141 45.7669 42.8735 47.5182 42.8735 49.3443V50.4918C42.8717 52.3173 42.1386 54.0676 40.8352 55.3584C39.5317 56.6492 37.7644 57.3752 35.9211 57.377ZM35.9211 44.7541C34.6918 44.7541 33.5129 45.2377 32.6436 46.0985C31.7744 46.9593 31.2861 48.1269 31.2861 49.3443V50.4918C31.2861 51.7092 31.7744 52.8767 32.6436 53.7375C33.5129 54.5984 34.6918 55.082 35.9211 55.082C37.1503 55.082 38.3292 54.5984 39.1985 53.7375C40.0677 52.8767 40.556 51.7092 40.556 50.4918V49.3443C40.556 48.1269 40.0677 46.9593 39.1985 46.0985C38.3292 45.2377 37.1503 44.7541 35.9211 44.7541Z" fill="#F41E1E"/>
<path d="M48.6672 70H46.3497V64.2623C46.3497 63.3493 45.9835 62.4736 45.3316 61.828C44.6797 61.1824 43.7955 60.8197 42.8735 60.8197H28.9686C28.0466 60.8197 27.1624 61.1824 26.5105 61.828C25.8586 62.4736 25.4924 63.3493 25.4924 64.2623V70H23.1749V64.2623C23.1767 62.7411 23.7877 61.2828 24.8738 60.2071C25.96 59.1315 27.4326 58.5264 28.9686 58.5246H42.8735C44.4095 58.5264 45.8821 59.1315 46.9683 60.2071C48.0544 61.2828 48.6654 62.7411 48.6672 64.2623V70Z" fill="#F41E1E"/>
<path d="M60.2547 63.1147H49.826V60.8197H59.0959V57.5928L55.5478 48.6144L57.7066 47.779L61.3346 56.9593C61.3869 57.0925 61.4136 57.2342 61.4134 57.377V61.9672C61.4134 62.2716 61.2913 62.5634 61.074 62.7786C60.8567 62.9939 60.562 63.1147 60.2547 63.1147Z" fill="#F41E1E"/>
<path d="M22.0161 63.1147H11.5874C11.2801 63.1147 10.9854 62.9939 10.7681 62.7786C10.5508 62.5634 10.4287 62.2716 10.4287 61.9672V57.377C10.4285 57.2342 10.4552 57.0925 10.5075 56.9593L14.1355 47.779L16.2954 48.6144L12.7462 57.5928V60.8197H22.0161V63.1147Z" fill="#F41E1E"/>
<path d="M68.3659 30.9836H66.0484V2.29508H5.79373V30.9836H3.47624V1.14754C3.47624 0.843194 3.59833 0.551313 3.81563 0.336107C4.03294 0.120901 4.32767 0 4.63499 0H67.2071C67.5144 0 67.8092 0.120901 68.0265 0.336107C68.2438 0.551313 68.3659 0.843194 68.3659 1.14754V30.9836Z" fill="#F41E1E"/>
<path d="M23.9941 23.7621L22.3556 22.1395L30.4668 14.1067C30.6841 13.8916 30.9788 13.7707 31.2861 13.7707C31.5933 13.7707 31.888 13.8916 32.1053 14.1067L38.2385 20.1807L52.483 6.07393L54.1214 7.69656L39.0578 22.6146C38.8405 22.8297 38.5458 22.9506 38.2385 22.9506C37.9313 22.9506 37.6366 22.8297 37.4193 22.6146L31.2861 16.5407L23.9941 23.7621Z" fill="#F41E1E"/>
<path d="M54.4609 13.7705H52.1435V8.03279H46.3497V5.7377H53.3022C53.6095 5.7377 53.9043 5.85861 54.1216 6.07381C54.3389 6.28902 54.4609 6.5809 54.4609 6.88525V13.7705Z" fill="#F41E1E"/>
<path d="M11.5874 5.7377H25.4924V8.03279H11.5874V5.7377Z" fill="#F41E1E"/>
<path d="M11.5874 10.3279H19.6986V12.623H11.5874V10.3279Z" fill="#F41E1E"/>
</svg>
