<svg width="68" height="70" viewBox="0 0 68 70" fill="none" xmlns="http://www.w3.org/2000/svg">
<path d="M7.42424 50.9091C8.68285 50.9091 9.91319 50.5359 10.9597 49.8366C12.0062 49.1374 12.8218 48.1435 13.3035 46.9807C13.7851 45.8179 13.9111 44.5384 13.6656 43.304C13.4201 42.0695 12.814 40.9356 11.924 40.0457C11.034 39.1557 9.90015 38.5496 8.66572 38.3041C7.4313 38.0585 6.15179 38.1846 4.98898 38.6662C3.82618 39.1479 2.83232 39.9635 2.13307 41.01C1.43383 42.0565 1.06061 43.2868 1.06061 44.5455C1.06245 46.2326 1.7335 47.8502 2.92651 49.0432C4.11952 50.2362 5.73707 50.9072 7.42424 50.9091ZM7.42424 40.303C8.26331 40.303 9.08354 40.5518 9.78121 41.018C10.4789 41.4842 11.0226 42.1467 11.3437 42.9219C11.6648 43.6971 11.7488 44.5502 11.5851 45.3731C11.4215 46.1961 11.0174 46.952 10.4241 47.5453C9.83078 48.1386 9.07485 48.5427 8.2519 48.7064C7.42895 48.8701 6.57594 48.786 5.80074 48.4649C5.02553 48.1438 4.36296 47.6001 3.8968 46.9024C3.43063 46.2048 3.18182 45.3845 3.18182 44.5455C3.18294 43.4206 3.63027 42.3422 4.42564 41.5468C5.221 40.7515 6.29943 40.3042 7.42424 40.303Z" fill="#F41E1E"/>
<path d="M55.9014 8.79561C55.7019 8.5997 55.4331 8.4905 55.1535 8.49177C54.8739 8.49303 54.6061 8.60466 54.4084 8.80237C54.2107 9.00007 54.0991 9.26785 54.0978 9.54744C54.0966 9.82704 54.2058 10.0958 54.4017 10.2953L57.5835 13.4771C57.714 13.6076 57.8764 13.7017 58.0544 13.7502C58.2325 13.7986 58.4201 13.7998 58.5988 13.7536C58.7775 13.7074 58.941 13.6153 59.0732 13.4865C59.2054 13.3578 59.3017 13.1967 59.3526 13.0193C59.3733 12.9489 61.4002 6.0156 65.1714 4.13053C65.4223 4.00432 65.613 3.78373 65.7015 3.51715C65.79 3.25057 65.7691 2.95977 65.6435 2.70853C65.5179 2.4573 65.2978 2.26615 65.0314 2.17701C64.765 2.08787 64.4742 2.10802 64.2226 2.23304C60.8875 3.90059 58.8088 8.33259 57.8797 10.7738L55.9014 8.79561Z" fill="#F41E1E"/>
<path d="M58.3333 19.0909C60.8641 19.0881 63.2904 18.0816 65.0799 16.2921C66.8695 14.5025 67.876 12.0762 67.8788 9.54545C67.8777 8.74322 67.7779 7.94417 67.5815 7.16634C67.5131 6.89357 67.3392 6.65914 67.0979 6.51462C66.8567 6.3701 66.5679 6.32734 66.2951 6.39574C66.0224 6.46414 65.7879 6.6381 65.6434 6.87934C65.4989 7.12059 65.4561 7.40936 65.5245 7.68214C65.6779 8.29142 65.7562 8.91717 65.7576 9.54545C65.7576 11.0138 65.3222 12.4492 64.5064 13.6701C63.6906 14.8911 62.5311 15.8426 61.1745 16.4046C59.8179 16.9665 58.3251 17.1135 56.8849 16.827C55.4448 16.5406 54.1219 15.8335 53.0836 14.7952C52.0453 13.7569 51.3382 12.434 51.0517 10.9939C50.7653 9.55369 50.9123 8.06092 51.4742 6.70432C52.0361 5.34772 52.9877 4.18821 54.2086 3.37242C55.4295 2.55664 56.8649 2.12121 58.3333 2.12121C58.9616 2.12262 59.5874 2.20089 60.1966 2.35426C60.4694 2.42266 60.7582 2.37989 60.9994 2.23538C61.2407 2.09086 61.4146 1.85643 61.483 1.58365C61.5514 1.31088 61.5087 1.0221 61.3642 0.780858C61.2196 0.539611 60.9852 0.365655 60.7124 0.297256C59.9346 0.100896 59.1356 0.00105895 58.3333 0C55.8017 3.7724e-08 53.3738 1.00568 51.5837 2.7958C49.7936 4.58592 48.7879 7.01384 48.7879 9.54545C48.7879 12.0771 49.7936 14.505 51.5837 16.2951C53.3738 18.0852 55.8017 19.0909 58.3333 19.0909Z" fill="#F41E1E"/>
<path d="M14.8495 41.3636C15.0693 41.3639 15.2837 41.2955 15.4627 41.1679L46.1635 19.3802L45.6268 22.0645C45.5716 22.3403 45.6282 22.6268 45.7842 22.8608C45.9402 23.0949 46.1827 23.2574 46.4585 23.3126C46.5274 23.3266 46.5975 23.3336 46.6677 23.3333C46.9127 23.3332 47.1501 23.2481 47.3395 23.0927C47.5288 22.9373 47.6586 22.7211 47.7066 22.4809L48.7672 17.1779C48.7682 17.1727 48.7662 17.1678 48.7672 17.1627C48.7787 17.0722 48.7785 16.9806 48.7667 16.8901C48.7686 16.843 48.7674 16.7958 48.7632 16.7489C48.7477 16.7035 48.7291 16.6592 48.7078 16.6162C48.682 16.53 48.6454 16.4473 48.5987 16.3703L48.5921 16.3555C48.556 16.3156 48.5168 16.2787 48.4748 16.2451C48.3737 16.1111 48.2276 16.0182 48.0634 15.9834C48.0221 15.9626 47.9793 15.9447 47.9355 15.9298L42.6324 14.8692C42.357 14.8149 42.0713 14.872 41.8379 15.0281C41.6046 15.1841 41.4426 15.4263 41.3875 15.7015C41.3323 15.9768 41.3886 16.2627 41.5439 16.4965C41.6993 16.7303 41.941 16.8931 42.2161 16.949L45.1087 17.5274L14.2343 39.4382C14.0507 39.5685 13.9134 39.7538 13.8422 39.9673C13.7709 40.1808 13.7694 40.4114 13.8379 40.6259C13.9065 40.8403 14.0414 41.0273 14.2233 41.1599C14.4051 41.2926 14.6245 41.3639 14.8495 41.3636Z" fill="#F41E1E"/>
<path d="M66.8182 67.8788H64.697V22.2727C64.697 22.1334 64.6697 21.9955 64.6164 21.8668C64.5631 21.738 64.485 21.6211 64.3865 21.5226C64.288 21.4241 64.171 21.346 64.0423 21.2927C63.9136 21.2394 63.7757 21.212 63.6364 21.2121H53.0303C52.891 21.212 52.753 21.2394 52.6243 21.2927C52.4956 21.346 52.3787 21.4241 52.2802 21.5226C52.1817 21.6211 52.1035 21.738 52.0503 21.8668C51.997 21.9955 51.9696 22.1334 51.9697 22.2727V67.8788H47.7273V35C47.7273 34.8607 47.7 34.7227 47.6467 34.594C47.5934 34.4653 47.5153 34.3484 47.4168 34.2499C47.3183 34.1514 47.2013 34.0732 47.0726 34.02C46.9439 33.9667 46.806 33.9393 46.6667 33.9394H36.0606C35.9213 33.9393 35.7834 33.9667 35.6546 34.02C35.5259 34.0732 35.409 34.1514 35.3105 34.2499C35.212 34.3484 35.1338 34.4653 35.0806 34.594C35.0273 34.7227 34.9999 34.8607 35 35V67.8788H30.7576V47.7273C30.7577 47.588 30.7303 47.45 30.677 47.3213C30.6237 47.1926 30.5456 47.0756 30.4471 46.9771C30.3486 46.8786 30.2317 46.8005 30.1029 46.7472C29.9742 46.694 29.8363 46.6666 29.697 46.6667H19.0909C18.9516 46.6666 18.8137 46.694 18.6849 46.7472C18.5562 46.8005 18.4393 46.8786 18.3408 46.9771C18.2423 47.0756 18.1641 47.1926 18.1109 47.3213C18.0576 47.45 18.0302 47.588 18.0303 47.7273V67.8788H13.7879V54.0909C13.788 53.9516 13.7606 53.8137 13.7073 53.6849C13.654 53.5562 13.5759 53.4393 13.4774 53.3408C13.3789 53.2423 13.262 53.1641 13.1332 53.1109C13.0045 53.0576 12.8666 53.0302 12.7273 53.0303H2.12121C1.98191 53.0302 1.84396 53.0576 1.71524 53.1109C1.58653 53.1641 1.46958 53.2423 1.37107 53.3408C1.27257 53.4393 1.19445 53.5562 1.14118 53.6849C1.08791 53.8137 1.06053 53.9516 1.06061 54.0909V67.8788C0.779316 67.8788 0.509547 67.9905 0.310645 68.1894C0.111742 68.3883 0 68.6581 0 68.9394C0 69.2207 0.111742 69.4904 0.310645 69.6894C0.509547 69.8883 0.779316 70 1.06061 70H66.8182C67.0995 70 67.3692 69.8883 67.5681 69.6894C67.767 69.4904 67.8788 69.2207 67.8788 68.9394C67.8788 68.6581 67.767 68.3883 67.5681 68.1894C67.3692 67.9905 67.0995 67.8788 66.8182 67.8788ZM54.0909 23.3333H62.5758V67.8788H54.0909V23.3333ZM37.1212 36.0606H45.6061V67.8788H37.1212V36.0606ZM20.1515 48.7879H28.6364V67.8788H20.1515V48.7879ZM3.18182 55.1515H11.6667V67.8788H3.18182V55.1515Z" fill="#F41E1E"/>
</svg>
