<svg width="70" height="70" viewBox="0 0 70 70" fill="none" xmlns="http://www.w3.org/2000/svg">
<path d="M34.9971 24.8153H8.74932C8.18303 24.8153 7.72406 25.2744 7.72406 25.8405C7.72406 26.4068 8.18303 26.8658 8.74932 26.8658H34.9973C35.5636 26.8658 36.0225 26.4067 36.0225 25.8405C36.0225 25.2744 35.5636 24.8153 34.9971 24.8153Z" fill="#F41E1E"/>
<path d="M34.9971 32.0198H8.74932C8.18303 32.0198 7.72406 32.4789 7.72406 33.0451C7.72406 33.6112 8.18303 34.0703 8.74932 34.0703H34.9973C35.5636 34.0703 36.0225 33.6112 36.0225 33.0451C36.0225 32.4789 35.5636 32.0198 34.9971 32.0198Z" fill="#F41E1E"/>
<path d="M34.9971 39.2242H8.74932C8.18303 39.2242 7.72406 39.6833 7.72406 40.2495C7.72406 40.8156 8.18303 41.2747 8.74932 41.2747H34.9973C35.5636 41.2747 36.0225 40.8156 36.0225 40.2495C36.0225 39.6833 35.5636 39.2242 34.9971 39.2242Z" fill="#F41E1E"/>
<path d="M36.0225 47.4541C36.0225 46.8878 35.5636 46.4289 34.9973 46.4289H8.74932C8.18303 46.4289 7.72406 46.888 7.72406 47.4541C7.72406 48.0203 8.18303 48.4794 8.74932 48.4794H34.9973C35.5636 48.4794 36.0225 48.0204 36.0225 47.4541Z" fill="#F41E1E"/>
<path d="M8.74932 56.9872C8.18303 56.9872 7.72406 57.4463 7.72406 58.0125C7.72406 58.5787 8.18303 59.0378 8.74932 59.0378H21.9069C22.4731 59.0378 22.9321 58.5787 22.9321 58.0125C22.9321 57.4463 22.4731 56.9872 21.9069 56.9872H8.74932Z" fill="#F41E1E"/>
<path d="M46.8125 12.6947V9.36783C46.8125 8.10045 45.7815 7.06932 44.514 7.06932H23.4638C22.1964 7.06932 21.1654 8.10045 21.1654 9.36783V12.6947C21.1654 13.9621 22.1964 14.9931 23.4638 14.9931H25.2414C25.8077 14.9931 26.2667 14.534 26.2667 13.9679C26.2667 13.4016 25.8077 12.9426 25.2414 12.9426H23.4638C23.3272 12.9426 23.2161 12.8315 23.2161 12.6949V9.36783C23.2161 9.23125 23.3272 9.11996 23.4638 9.11996H44.514C44.6507 9.11996 44.7619 9.23111 44.7619 9.36783V12.6947C44.7619 12.8313 44.6507 12.9425 44.514 12.9425H30.0348C29.4685 12.9425 29.0095 13.4016 29.0095 13.9677C29.0095 14.534 29.4685 14.993 30.0348 14.993H44.5141C45.7815 14.9933 46.8125 13.9621 46.8125 12.6947Z" fill="#F41E1E"/>
<path d="M54.4789 62.5209C53.9126 62.5209 53.4536 62.98 53.4536 63.5462V64.9269C53.4536 66.5934 52.0978 67.9494 50.431 67.9494H5.07295C3.40648 67.9494 2.05051 66.5935 2.05051 64.9269V15.6445C2.05051 15.4226 2.07648 15.2049 2.12283 14.9931H11.4584C13.4075 14.9931 14.9931 13.4075 14.9931 11.4584V2.12297C15.2049 2.07662 15.4224 2.05064 15.6443 2.05064H50.4309C52.0975 2.05064 53.4535 3.40648 53.4535 5.07309V18.7234C53.4535 19.2896 53.9124 19.7486 54.4787 19.7486C55.045 19.7486 55.504 19.2895 55.504 18.7234V5.07295C55.5041 2.27582 53.2283 0 50.431 0H15.6445C14.2894 0 13.0154 0.527734 12.0572 1.48586L1.48572 12.0574C0.527598 13.0155 0 14.2894 0 15.6446V64.927C0 67.7243 2.27568 70 5.07295 70H50.431C53.2283 70 55.5041 67.7242 55.5041 64.927V63.5463C55.5041 62.98 55.0452 62.5209 54.4789 62.5209ZM12.9426 3.50055V11.4584C12.9426 12.2768 12.2768 12.9426 11.4584 12.9426H3.50055L12.9426 3.50055Z" fill="#F41E1E"/>
<path d="M68.5218 36.6405C69.2415 35.5841 69.4277 34.281 69.0327 33.0653C68.6377 31.8496 67.721 30.9049 66.5179 30.4734C65.7197 30.1871 65.1872 29.4543 65.1618 28.6066C65.1231 27.329 64.5077 26.1652 63.4735 25.4138C62.4395 24.6626 61.1423 24.4371 59.9156 24.795C59.1011 25.0327 58.2401 24.7527 57.7212 24.0821C56.939 23.071 55.7572 22.4912 54.4789 22.4912C53.2007 22.4912 52.0187 23.071 51.2364 24.0821C50.7175 24.7528 49.856 25.0324 49.0421 24.795C47.8153 24.4368 46.5183 24.6626 45.484 25.4138C44.4499 26.1652 43.8348 27.3288 43.7959 28.6065C43.7704 29.4541 43.238 30.1868 42.4397 30.4732C41.2366 30.9047 40.3199 31.8496 39.925 33.0652C39.53 34.2809 39.7162 35.5841 40.4359 36.6403C40.9134 37.3413 40.9134 38.2469 40.4359 38.9478C39.7162 40.0042 39.53 41.3072 39.925 42.5229C40.3199 43.7387 41.2366 44.6834 42.4397 45.115C43.238 45.4014 43.7705 46.1341 43.7959 46.9818C43.8316 48.157 44.3702 49.2613 45.2739 50.0112C45.8701 50.5061 46.5864 50.8158 47.336 50.9193V60.2541C47.336 61.0418 47.7632 61.7698 48.4508 62.1539C49.1375 62.5376 49.9818 62.5205 50.6529 62.1072L54.4134 59.7923C54.4746 59.7544 54.5111 59.7715 54.5449 59.7923L58.3051 62.1072C58.976 62.5201 59.8199 62.5379 60.5073 62.1537C61.195 61.7695 61.6221 61.0415 61.6221 60.254V50.919C62.3715 50.8156 63.0878 50.506 63.684 50.0112C64.5878 49.2613 65.1265 48.1571 65.1622 46.9816C65.1876 46.134 65.7202 45.4012 66.5183 45.1149C67.7216 44.6834 68.6383 43.7385 69.0331 42.5228C69.4281 41.3071 69.2419 40.004 68.5222 38.9476C68.0442 38.2471 68.0442 37.3414 68.5218 36.6405ZM59.3798 60.3611L55.6195 58.0461C54.9205 57.6159 54.0378 57.6152 53.3381 58.0461L49.5778 60.3609C49.4922 60.413 49.3865 60.353 49.3865 60.254V50.7246C50.0914 50.643 50.7903 50.9298 51.2364 51.5063C52.0189 52.5172 53.2007 53.0971 54.479 53.0971C55.7572 53.0971 56.939 52.5172 57.7212 51.5063C58.1674 50.9296 58.8664 50.643 59.5712 50.7246V60.254C59.5712 60.3537 59.4642 60.4131 59.3798 60.3611ZM66.8272 40.1026C67.187 40.6306 67.28 41.2818 67.0826 41.8894C66.8851 42.497 66.427 42.9692 65.8256 43.1849C64.2284 43.7578 63.1634 45.2238 63.1121 46.9198C63.0939 47.5161 62.8318 48.0535 62.3742 48.4333C61.8598 48.8603 61.163 49.0213 60.4901 48.825C58.8614 48.3498 57.1378 48.9098 56.0993 50.2515C55.7084 50.7567 55.1176 51.0465 54.4787 51.0465C53.84 51.0465 53.2492 50.7568 52.8581 50.2515C52.0652 49.2267 50.8729 48.6579 49.6284 48.6579C49.2431 48.6579 48.8526 48.7125 48.4676 48.8249C47.7881 49.0228 47.0935 48.8569 46.5831 48.4332C46.1255 48.0534 45.8634 47.5159 45.8455 46.9198C45.7941 45.2238 44.729 43.7578 43.1318 43.1848C42.5305 42.9691 42.0725 42.497 41.8749 41.8894C41.6775 41.2818 41.7704 40.6305 42.1303 40.1025C43.0855 38.7002 43.0855 36.8882 42.1303 35.4859C41.7704 34.9579 41.6775 34.3066 41.8749 33.6988C42.0723 33.0913 42.5305 32.619 43.1318 32.4034C44.729 31.8304 45.7941 30.3644 45.8455 28.6684C45.8648 28.0298 46.1721 27.4482 46.689 27.0728C47.2057 26.6972 47.8538 26.5846 48.4675 26.7634C50.0958 27.2388 51.8198 26.6786 52.8581 25.3369C53.2491 24.8315 53.8397 24.5417 54.4787 24.5417C55.1176 24.5417 55.7082 24.8314 56.0993 25.3367C57.1376 26.6786 58.8608 27.2386 60.49 26.7634C61.1033 26.5843 61.7513 26.6971 62.2683 27.0726C62.7852 27.4481 63.0928 28.0298 63.112 28.6683C63.1634 30.3643 64.2284 31.8304 65.8256 32.4033C66.427 32.6189 66.885 33.0911 67.0826 33.6987C67.28 34.3063 67.187 34.9578 66.8272 35.4856C65.8716 36.8881 65.8716 38.7003 66.8272 40.1026Z" fill="#F41E1E"/>
<path d="M54.4789 29.2008C49.7405 29.2008 45.8855 33.0557 45.8855 37.7941C45.8855 42.5325 49.7405 46.3874 54.4789 46.3874C59.2171 46.3874 63.0721 42.5325 63.0721 37.7941C63.0721 33.0557 59.2171 29.2008 54.4789 29.2008ZM54.4789 44.3369C50.8711 44.3369 47.9361 41.4019 47.9361 37.7943C47.9361 34.1867 50.8711 31.2514 54.4789 31.2514C58.0866 31.2514 61.0215 34.1865 61.0215 37.7943C61.0215 41.402 58.0865 44.3369 54.4789 44.3369Z" fill="#F41E1E"/>
</svg>
