<svg width="40" height="32" viewBox="0 0 40 32" fill="none" xmlns="http://www.w3.org/2000/svg">
<path d="M36.2207 3.47591C34.6283 1.94012 32.4814 0.99666 30.1294 1.00001C27.3386 1.00398 24.852 2.32481 23.2312 4.38463C22.9693 4.7176 22.4716 4.7176 22.2096 4.38463C20.5889 2.32481 18.1022 1.00398 15.3115 1.00001C10.4409 0.993077 6.44992 5.04614 6.4409 10.012C6.43487 13.3421 7.99565 16.6493 10.1529 19.628M13.1702 23.2437C16.6182 26.9028 20.4145 29.6813 21.9815 30.768C22.4277 31.0773 23.0131 31.0773 23.4593 30.768C26.6415 28.5613 39.0169 19.3771 39 10.0121C38.9971 8.41962 38.5846 6.92097 37.865 5.62001M9.65652 9.60522H15.2945L17.1586 15.8488L19.6287 7.57569L20.5841 10.7758H26.0474M20.463 23.2437H6.59365M18.0836 19.6283H20.463M6.59367 19.6283H15.4924M23.2391 18.1316C23.2391 17.7014 23.5811 17.3527 24.003 17.3527H25.2512C25.673 17.3527 26.0151 17.7014 26.0151 18.1316V24.7982C26.0151 25.2283 25.673 25.577 25.2512 25.577H24.003C23.5811 25.577 23.2391 25.2283 23.2391 24.7982M3.77604 18.8492V16.7346C3.77604 16.3044 4.11813 15.9557 4.53997 15.9557H5.78824C6.21008 15.9557 6.55217 16.3044 6.55217 16.7346V26.1951C6.55217 26.6253 6.21008 26.974 5.78824 26.974H4.53997C4.11813 26.974 3.77604 26.6253 3.77604 26.1951V21.5762M3.77604 24.7981C3.77604 25.2283 3.43403 25.577 3.01211 25.577H1.76393C1.34201 25.577 1 25.2283 1 24.7981V18.1316C1 17.7014 1.34201 17.3527 1.76393 17.3527H3.01211C3.43403 17.3527 3.77604 17.7014 3.77604 18.1316M22.4751 26.974H21.2269C20.805 26.974 20.4629 26.6253 20.4629 26.1951V16.7346C20.4629 16.3044 20.805 15.9557 21.2269 15.9557H22.4751C22.897 15.9557 23.2391 16.3044 23.2391 16.7346V26.1951C23.2391 26.6253 22.897 26.974 22.4751 26.974Z" stroke="white" stroke-width="1.5" stroke-miterlimit="10" stroke-linecap="round" stroke-linejoin="round"/>
</svg>
