<svg width="36" height="32" viewBox="0 0 36 32" fill="none" xmlns="http://www.w3.org/2000/svg">
<path d="M20.0738 13.9023C22.3035 13.3147 24.0687 12.8413 24.5651 12.6868C25.3152 12.4534 26.116 12.333 26.9473 12.3458C30.9077 12.4068 34.2777 15.7345 34.3326 19.6379C34.3907 23.7718 31.0082 27.1408 26.8272 27.1408H15.503H32.3755C33.4567 27.1408 34.3333 28.0047 34.3333 29.0704C34.3333 30.1361 33.4568 31 32.3755 31H5.21301C4.13172 31 3.2552 30.1361 3.2552 29.0704C3.2552 28.0047 4.13172 27.1408 5.21301 27.1408H13.4909L8.33608 27.1408C5.53005 27.1408 3.25526 24.8987 3.25526 22.1331C3.25526 19.8416 4.8334 17.8424 7.08706 17.2791C7.08706 17.2791 13.1528 15.7161 18.1661 14.4032M31.4972 19.7428C31.4972 22.2848 29.4064 24.3455 26.8272 24.3455C24.2481 24.3455 22.1573 22.2848 22.1573 19.7428C22.1573 17.2008 24.2481 15.1401 26.8272 15.1401C29.4064 15.1401 31.4972 17.2008 31.4972 19.7428ZM26.8272 21.5416C25.8209 21.5416 25.0022 20.7346 25.0022 19.7428C25.0022 18.751 25.8209 17.944 26.8272 17.944C27.8335 17.944 28.6522 18.751 28.6522 19.7428C28.6522 20.7346 27.8335 21.5416 26.8272 21.5416ZM11.764 10.0682V10.077C11.764 10.9011 11.0862 11.5691 10.2501 11.5691H3.44641C2.09497 11.5691 1 10.4892 1 9.15793C1 7.82661 2.09497 6.74747 3.44641 6.74747C3.97351 6.74747 4.46184 6.91194 4.86123 7.19162C6.05775 8.02948 7.45956 8.5394 8.92676 8.58005C9.38625 8.59274 9.81858 8.58911 10.2007 8.57747C11.0557 8.55249 11.764 9.22555 11.764 10.0682ZM25.7605 6.74727H20.2913C19.5339 6.74727 18.92 6.14217 18.92 5.39573C18.92 4.64929 19.5339 4.04418 20.2913 4.04418H25.1925L27.8796 1.39583C28.4151 0.868058 29.2833 0.868058 29.8189 1.39583C30.3545 1.92366 30.3544 2.77937 29.8188 3.3072L26.7302 6.35145C26.473 6.60489 26.1242 6.74727 25.7605 6.74727ZM24.5652 12.6867C25.047 12.5368 25.5501 12.4342 26.0685 12.3829L24.7748 6.74734H21.963L23.4017 13.0148C23.9598 12.8627 24.3654 12.7488 24.5652 12.6867ZM7.08706 17.2792C7.08706 17.2792 8.05265 17.0304 9.53132 16.648L8.36546 11.5692H5.55359L6.87746 17.3363C6.94661 17.3158 7.0165 17.2967 7.08706 17.2792ZM11.231 23.4847C10.4736 23.4847 9.85969 22.8796 9.85969 22.1332C9.85969 21.3867 10.4736 20.7816 11.231 20.7816H11.5856C11.1485 20.1544 10.4159 19.7428 9.58545 19.7428C8.24601 19.7428 7.16016 20.813 7.16016 22.1332C7.16016 23.4534 8.24601 24.5235 9.58545 24.5235C10.4158 24.5235 11.1485 24.1119 11.5856 23.4847H11.231ZM15.3282 23.4847H11.2311C10.4737 23.4847 9.85976 22.8796 9.85976 22.1331C9.85976 21.3867 10.4737 20.7816 11.2311 20.7816H15.3282C16.0856 20.7816 16.6995 21.3867 16.6995 22.1331C16.6995 22.8796 16.0856 23.4847 15.3282 23.4847Z" stroke="white" stroke-width="1.5" stroke-miterlimit="10" stroke-linecap="round" stroke-linejoin="round"/>
</svg>
