<svg width="58" height="58" viewBox="0 0 58 58" fill="none" xmlns="http://www.w3.org/2000/svg">
<path d="M56.8812 41.069L56.129 39.9417V37.5179C56.129 35.472 55.6454 33.4243 54.7314 31.5945C53.665 29.4645 52.0223 27.6889 49.9792 26.4635C48.6629 25.6739 47.1577 25.2577 45.6245 25.2577C44.7938 25.2577 43.9995 25.4466 43.2745 25.7796C42.6992 25.3718 42.3082 24.7684 42.1641 24.0827L44.312 23.4971C49.0661 22.1996 52.3871 17.8534 52.3871 12.9254C52.3871 7.86168 48.2672 3.74188 43.1642 3.74188C39.8628 3.74188 36.7945 5.52207 35.1564 8.38835L34.5923 9.37527C34.2153 10.0366 33.5745 10.5212 32.8364 10.7055L31.8289 10.9581C30.7147 11.2359 29.9355 12.2341 29.9355 13.3838C29.9355 14.0517 30.1955 14.6803 30.668 15.1527L30.7353 15.221L30.2302 16.7355C30.0346 17.3258 29.9355 17.9385 29.9355 18.5578C29.9355 21.3278 31.9 23.6468 34.5091 24.1968C34.3575 24.8423 34.0366 25.4466 33.5642 25.919L32.3546 27.1286H32.031C31.3593 27.1286 30.7222 27.2989 30.1563 27.5963L30.058 27.5467C26.5677 25.8012 22.257 25.7853 18.7434 27.4803C18.7293 27.2895 18.7097 27.0987 18.7097 26.9078V14.3155L19.6377 12.9235C19.9866 12.4006 20.2308 11.8253 20.3879 11.2266H22.4516V14.9684C22.4516 16.0003 23.2907 16.8394 24.3226 16.8394H26.1935C27.2254 16.8394 28.0645 16.0003 28.0645 14.9684V1.87094C28.0645 0.839115 27.2254 0 26.1935 0H24.3226C23.2907 0 22.4516 0.839115 22.4516 1.87094V5.61281H20.5806V3.74188C20.5806 2.71005 19.7415 1.87094 18.7097 1.87094C17.2045 1.87094 15.9032 2.76431 15.3101 4.04964C14.9266 3.8532 14.4916 3.74188 14.0323 3.74188H10.2903C9.07232 3.74188 8.04329 4.52673 7.656 5.61281H5.6129V1.87094C5.6129 0.839115 4.77377 0 3.74194 0H1.87097C0.839129 0 0 0.839115 0 1.87094V14.9675C0 15.9993 0.839129 16.8384 1.87097 16.8384H3.74194C4.77377 16.8384 5.6129 15.9993 5.6129 14.9675V11.2256H7.57648C7.77668 12.3435 8.30803 13.3725 9.12845 14.1929L9.35484 14.4193V32.3289C9.35484 36.1905 12.3699 39.4665 16.2175 39.7874L21.2935 40.2102C22.4385 40.8192 23.7248 41.1606 25.0466 41.1606C25.9082 41.1606 26.7595 41.0231 27.5753 40.7509L27.912 40.6386C28.1637 41.4254 28.4696 42.1953 28.8391 42.9343C29.5575 44.3655 29.9355 45.9689 29.9355 47.5723V54.1739C29.9355 56.2834 31.6521 58 33.7616 58C35.076 58 36.3922 57.6894 37.5644 57.102L41.5271 55.1206L53.7183 50.8184C56.2796 49.9129 58 47.4816 58 44.7659C58 43.445 57.6127 42.1663 56.8812 41.069ZM24.3226 1.87094H26.1935L26.1954 14.9675H24.3226V1.87094ZM22.4516 7.48375V9.35469H20.5806V7.48375H22.4516ZM43.2034 5.61281C47.2354 5.61281 50.5161 8.8935 50.5161 12.9254C50.5161 17.0115 47.763 20.6168 43.8209 21.6917L42.0968 22.1622V20.0321L44.0482 18.0807C44.5917 17.5372 44.9032 16.7851 44.9032 16.0162C44.9032 14.4352 43.6394 13.1433 42.0687 13.0975C41.8507 10.9141 40.3745 9.04224 38.2594 8.3369L37.6457 8.13203C39.0265 6.55857 41.035 5.61281 43.2034 5.61281ZM33.6774 28.4513L34.887 27.2418C35.6794 26.4494 36.2032 25.4186 36.3969 24.3222H38.3548V22.4513H35.6999C33.553 22.4513 31.8065 20.7047 31.8065 18.5578C31.8065 18.1397 31.8738 17.7243 32.0057 17.3268L32.8776 14.7149L31.9917 13.83C31.8738 13.7112 31.8065 13.5493 31.8065 13.3838C31.8065 13.0938 32.0029 12.8421 32.2835 12.7729L33.2901 12.5203C34.5212 12.2135 35.5877 11.4052 36.2173 10.3033L36.5409 9.73636L37.6673 10.1115C39.1968 10.6213 40.2258 12.0479 40.2258 13.6616V14.9675H41.9836C42.5617 14.9675 43.0323 15.438 43.0323 16.0162C43.0323 16.2921 42.9209 16.5625 42.7254 16.758L40.2258 19.2576V23.4962C40.2258 24.8068 40.7646 26.0163 41.6805 26.8826C41.3765 27.1847 41.0995 27.5196 40.8657 27.8947L38.6224 31.4841C38.1303 32.2709 37.2828 32.7414 36.3529 32.7414C34.8776 32.7414 33.6774 31.5412 33.6774 30.066V28.4513ZM9.35484 6.54828C9.35484 6.0319 9.77394 5.61281 10.2903 5.61281H14.0323C14.5486 5.61281 14.9677 6.0319 14.9677 6.54828V8.41922C14.9677 8.9356 14.5486 9.35469 14.0323 9.35469H10.2903C9.77394 9.35469 9.35484 8.9356 9.35484 8.41922V6.54828ZM1.87097 14.9675V1.87094H3.74194L3.74381 14.9675H1.87097ZM5.6129 7.48375H7.48387V9.35469H5.6129V7.48375ZM26.985 38.9754C26.3591 39.184 25.7071 39.2897 25.0466 39.2897C23.1289 39.2897 21.2963 38.3739 20.1456 36.8397L19.4581 35.922L17.9613 37.0446L18.6489 37.9623C18.6919 38.0193 18.7415 38.0689 18.7864 38.1241L16.3728 37.923C13.4869 37.6816 11.2258 35.2241 11.2258 32.3289V13.6447L10.4512 12.8702C9.95355 12.3725 9.62332 11.756 9.46616 11.0881C9.7281 11.1695 10.0013 11.2256 10.2903 11.2256H14.0323C15.5795 11.2256 16.8387 9.96649 16.8387 8.41922V5.61281C16.8387 4.58099 17.6778 3.74188 18.7097 3.74188V9.80933C18.7097 10.5512 18.4926 11.2687 18.081 11.8851L16.8387 13.7486V26.9069C16.8387 28.4186 17.1961 29.9331 17.8724 31.2886L19.546 30.4514C19.3729 30.1053 19.2354 29.7423 19.1147 29.3737L19.4235 29.2194C22.2626 27.7993 25.7342 27.7301 28.6501 28.9771C28.5117 29.1922 28.3854 29.4177 28.2872 29.6618C27.5191 31.5861 27.129 33.6123 27.129 35.6835C27.129 36.7368 27.2394 37.7892 27.4443 38.8229L26.985 38.9754ZM29 35.6835C29 33.8509 29.3452 32.0594 30.0262 30.3588C30.3275 29.6057 31.015 29.1174 31.8065 29.0341V30.0669C31.8065 32.574 33.8467 34.6133 36.3529 34.6133C37.932 34.6133 39.3736 33.8144 40.208 32.4767L42.4504 28.8882C43.1389 27.7872 44.3251 27.1295 45.6245 27.1295C46.8182 27.1295 47.9903 27.4551 49.0156 28.0687C49.0465 28.0875 49.0774 28.1062 49.1082 28.1249C46.502 28.4261 44.1464 29.8527 42.6702 32.0669C41.6833 33.5468 41.1613 35.27 41.1613 37.0492C41.1613 39.9127 42.6861 42.6041 45.1408 44.0774L45.1801 44.1008L40.0191 48.5246L38.0864 47.881C37.7468 47.7669 37.3913 47.7089 37.0302 47.7089C35.7598 47.7089 34.6166 48.4152 34.0488 49.5508L33.915 49.8184L32.0497 50.7501C31.9645 50.7931 31.8869 50.8455 31.8055 50.8942V47.5723C31.8055 45.6808 31.3584 43.7865 30.5127 42.097C29.5239 40.1166 29 37.8986 29 35.6835ZM53.0962 49.0532L40.8498 53.375L36.7271 55.4275C35.8122 55.8858 34.7878 56.1281 33.7616 56.1281C32.6839 56.1281 31.8065 55.2516 31.8065 54.173C31.8065 53.4274 32.2199 52.7567 32.8869 52.4237L35.3098 51.2132L35.7224 50.3881C35.9722 49.8895 36.4726 49.5798 37.0302 49.5798C37.1883 49.5798 37.3436 49.6042 37.4923 49.6547L40.4325 50.6351L48.3683 43.8333L46.1035 42.474C44.2091 41.3365 43.0323 39.2588 43.0323 37.0492C43.0323 35.6404 43.4448 34.2756 44.2269 33.1025C45.5496 31.1193 47.763 29.935 50.1466 29.935H51.3244C52.0138 30.6759 52.5985 31.5141 53.0578 32.4318C53.8436 34.0034 54.2581 35.762 54.2581 37.5188V40.5086L55.3245 42.1073C55.8512 42.8969 56.129 43.8164 56.129 44.7669C56.129 46.6902 54.9101 48.4124 53.0962 49.0532Z" fill="white"/>
</svg>
