<svg width="44" height="52" viewBox="0 0 44 52" fill="none" xmlns="http://www.w3.org/2000/svg">
<path d="M43.5345 38.5584C42.763 36.8257 40.9937 35.8432 39.2022 35.9834L35.9582 31.6358C35.3696 30.8471 34.5858 30.2827 33.718 29.9705C34.0346 29.5497 34.1209 28.974 33.8926 28.4594L33.2729 27.0678C32.5238 25.3869 30.5469 24.6281 28.866 25.3768L20.3567 29.1653L19.3783 26.9677L20.9681 26.2598C22.6599 25.5065 23.4235 23.5173 22.6703 21.8255L20.9559 17.9751C20.7848 17.5908 20.3347 17.4178 19.9503 17.589C19.5659 17.7602 19.3932 18.2104 19.5642 18.5947L21.2786 22.4451C21.6901 23.3696 21.2729 24.4565 20.3486 24.8681L18.7586 25.576L13.587 13.9609C13.542 13.8599 13.5873 13.7423 13.6882 13.6974L15.096 13.0706C16.0205 12.6591 17.1073 13.0763 17.5189 14.0006L18.0878 15.2785C18.2589 15.6628 18.7094 15.8358 19.0935 15.6645C19.4778 15.4934 19.6506 15.0432 19.4795 14.6589L18.9106 13.381C18.5456 12.5615 17.8835 11.933 17.0459 11.6115C16.2085 11.29 15.2958 11.3139 14.4762 11.6788L13.0685 12.3056C12.648 12.4927 12.3257 12.8326 12.1607 13.2622C11.9958 13.6919 12.0081 14.1601 12.1952 14.5807L12.3106 14.8396L11.4053 15.2427L9.85352 11.7582C9.60185 11.1931 9.58529 10.564 9.80711 9.98658C10.0288 9.40929 10.4621 8.95287 11.0276 8.7014L14.9718 6.94488C15.3689 7.5699 16.0582 7.93339 16.7754 7.93339C17.065 7.93339 17.3591 7.87418 17.6402 7.74905L24.037 4.90094C24.5576 4.66907 24.9569 4.2484 25.1611 3.71631C25.3654 3.18423 25.3502 2.60441 25.1184 2.0838L24.7542 1.26561C24.2757 0.190773 23.0119 -0.294391 21.9369 0.184172L15.5401 3.03219C14.563 3.46728 14.0759 4.55105 14.3545 5.55215L10.4083 7.30959C9.47124 7.7264 8.75268 8.48304 8.38503 9.44047C8.01737 10.3978 8.04469 11.4412 8.46201 12.3781L10.0137 15.8625L9.514 16.085C8.52295 16.5267 8.07557 17.6926 8.51686 18.6842L10.991 24.2412L7.52439 27.491C6.38333 28.5584 5.60181 29.9941 5.32383 31.5336L2.61831 46.5075H2.1627C1.01758 46.5075 0.0858459 47.4392 0.0858459 48.5843V50.8194C0.0858459 51.4704 0.615495 52 1.26651 52H33.2114C33.8624 52 34.392 51.4704 34.392 50.8194V48.5843C34.392 47.4392 33.4604 46.5075 32.3153 46.5075H28.0781L24.2743 37.9642L31.4154 34.7851C31.8157 34.6068 32.2783 34.7279 32.5406 35.079L35.4164 38.9334C35.0757 39.9372 35.096 41.0664 35.5601 42.1091C36.2829 43.7325 37.8814 44.6982 39.5537 44.6982C40.1459 44.6982 40.7475 44.577 41.3226 44.321C42.3877 43.8469 43.2042 42.9863 43.622 41.8979C44.0397 40.8095 44.0087 39.6235 43.5345 38.5584ZM16.1595 4.4241L22.5564 1.57609C22.8664 1.43806 23.2266 1.58055 23.3622 1.88544L23.7266 2.70353C23.8637 3.01157 23.7254 3.37222 23.4172 3.50943L17.0204 6.35754C16.7131 6.49465 16.3514 6.35561 16.2145 6.04819L15.8503 5.2301C15.7134 4.92257 15.8521 4.56111 16.1595 4.4241ZM29.4857 26.7688C30.3992 26.3618 31.4741 26.7741 31.8812 27.6878L32.4901 29.0552L22.3229 33.5816L20.9763 30.5572L29.4857 26.7688ZM6.82269 31.8043C7.04278 30.5852 7.6615 29.4486 8.5654 28.603L11.6467 25.7144L12.3383 27.2677L9.66309 29.7741C9.01025 30.3848 8.56246 31.2069 8.40199 32.09L5.7962 46.5075H4.16642L6.82269 31.8043ZM32.8685 48.5843V50.4765H1.60928V48.5843C1.60928 48.2792 1.8575 48.031 2.1627 48.031H9.95732C10.378 48.031 10.719 47.6899 10.719 47.2692C10.719 46.8486 10.378 46.5075 9.95732 46.5075H7.34442L9.90095 32.3618C10.0032 31.7993 10.2883 31.2754 10.7042 30.8864L12.9942 28.741L20.9046 46.5076H13.5121C13.0914 46.5076 12.7504 46.8487 12.7504 47.2693C12.7504 47.69 13.0914 48.0311 13.5121 48.0311H32.3153C32.6203 48.031 32.8685 48.2791 32.8685 48.5843ZM22.5722 46.5075L9.90836 18.0648C9.80853 17.8404 9.90968 17.5765 10.1337 17.4768C11.1876 17.0073 11.9198 16.6816 12.9304 16.2317C14.7583 20.3371 25.3371 44.0972 26.4102 46.5075H22.5722ZM33.7612 34.1678C33.0701 33.2421 31.8506 32.9236 30.7957 33.3934L23.6545 36.5725L22.9429 34.9741L30.754 31.496C32.1734 30.8727 33.8092 31.3035 34.7374 32.5472L37.6247 36.4168C37.0795 36.6841 36.6132 37.0519 36.239 37.4884L33.7612 34.1678ZM42.1997 41.3519C41.9277 42.0604 41.3961 42.6205 40.7027 42.9292C39.2715 43.5663 37.5889 42.9204 36.9517 41.4893C36.3145 40.0581 36.9605 38.3754 38.3916 37.7382C39.0849 37.4296 39.8567 37.4094 40.5654 37.6812C41.2739 37.9532 41.8341 38.4848 42.1428 39.1781C42.4513 39.8714 42.4716 40.6434 42.1997 41.3519Z" fill="white"/>
<path d="M39.279 39.6193L39.1956 39.6565C38.8113 39.8276 38.6385 40.278 38.8096 40.6622C38.9359 40.9458 39.2142 41.1142 39.5059 41.1142C39.7158 41.1142 39.847 41.0294 39.8987 41.011C40.2831 40.8399 40.4559 40.3896 40.2848 40.0054C40.1136 39.621 39.6635 39.4481 39.279 39.6193Z" fill="white"/>
</svg>
