<svg width="43" height="39" viewBox="0 0 43 39" fill="none" xmlns="http://www.w3.org/2000/svg">
<path d="M22.3957 27.6667C22.3903 27.6667 22.3849 27.6667 22.3795 27.6667C22.0194 27.6595 21.6987 27.4392 21.5643 27.1041L18.2068 18.7084H13.4373C12.9428 18.7084 12.5415 18.307 12.5415 17.8125C12.5415 17.318 12.9428 16.9167 13.4373 16.9167H18.8123C19.1796 16.9167 19.5075 17.1407 19.6437 17.4793L22.4387 24.4668L28.7435 10.2822C28.8815 9.97399 29.1807 9.76795 29.5175 9.75003C29.8813 9.73211 30.1733 9.9077 30.3399 10.1997L37.2486 22.2917H42.104C42.5985 22.2917 42.9998 22.693 42.9998 23.1875C42.9998 23.682 42.5985 24.0834 42.104 24.0834H36.729C36.4083 24.0834 36.1109 23.9114 35.9514 23.6319L29.6627 12.6257L23.2145 27.1346C23.0693 27.4589 22.7486 27.6667 22.3957 27.6667Z" fill="white"/>
<path d="M19.7083 38.4167C19.565 38.4167 19.4235 38.3827 19.2927 38.3146C18.5043 37.9007 0 28.0197 0 11.5955C0 5.63821 4.84646 0.791748 10.8038 0.791748C14.4659 0.791748 17.75 2.48487 19.7083 5.29779C21.6666 2.48487 24.9508 0.791748 28.6129 0.791748C34.5702 0.791748 39.4167 5.63821 39.4167 11.5955C39.4167 12.8443 39.3145 14.0357 39.1157 15.1412C39.0279 15.6267 38.5638 15.9492 38.0747 15.8632C37.5874 15.7755 37.2649 15.3078 37.3527 14.8223C37.5354 13.8082 37.625 12.7529 37.625 11.5955C37.625 6.62542 33.583 2.58341 28.6129 2.58341C25.078 2.58341 21.9748 4.45033 20.5128 7.45496C20.2118 8.07129 19.2031 8.07129 18.9021 7.45496C17.4419 4.45033 14.3369 2.58341 10.8038 2.58341C5.83367 2.58341 1.79167 6.62542 1.79167 11.5955C1.79167 25.6404 16.9814 34.9409 19.7083 36.4961C21.0127 35.7543 25.1532 33.255 29.0931 29.3581C29.4443 29.0105 30.014 29.0123 30.3598 29.3652C30.7074 29.7164 30.7038 30.2844 30.3526 30.632C25.4238 35.5089 20.3372 38.2017 20.124 38.3146C19.995 38.3827 19.8517 38.4167 19.7083 38.4167Z" fill="white"/>
</svg>
