<svg width="183" height="37" viewBox="0 0 183 37" fill="none" xmlns="http://www.w3.org/2000/svg">
<path d="M49 30.6084L54.1347 5.39157H72.4083L71.3134 10.8735H60.1378L59.2317 15.2199H68.9726L67.8399 20.7801H58.099L56.098 30.6084H49Z" fill="#1C1C1C"/>
<path d="M69.9601 30.6084L75.0949 5.39157H82.1929L77.0581 30.6084H69.9601Z" fill="#1C1C1C"/>
<path d="M86.5837 30.6084L90.6235 10.8735H83.7898L84.8847 5.39157H105.65L104.555 10.8735H97.7215L93.6817 30.6084H86.5837Z" fill="#1C1C1C"/>
<path d="M103.179 30.6084L108.314 5.39157H114.996L118.432 18.1958L127.04 5.39157H134.138L129.004 30.6084H121.906L124.473 18L118.885 26.3012H115.072L112.844 18L110.277 30.6084H103.179Z" fill="#1C1C1C"/>
<path d="M132.416 30.6084L146.877 5.39157H154.39L158.581 30.6084H151.181L150.312 25.244H142.912L139.816 30.6084H132.416ZM144.913 19.9578H150.35L149.142 12.5572L144.913 19.9578Z" fill="#1C1C1C"/>
<path d="M168.917 31C167.281 31 165.758 30.8695 164.349 30.6084C162.939 30.3213 161.781 29.9297 160.875 29.4337L162.121 23.3645C163.153 23.9126 164.324 24.3564 165.633 24.6958C166.941 25.0351 168.2 25.2048 169.408 25.2048C170.667 25.2048 171.636 25.1004 172.315 24.8916C172.995 24.6566 173.423 24.1476 173.599 23.3645C173.624 23.26 173.637 23.1295 173.637 22.9729C173.637 22.3203 173.247 21.8374 172.466 21.5241C171.686 21.2108 170.528 20.7801 168.993 20.2319C167.281 19.6054 165.985 18.8484 165.104 17.9608C164.223 17.0472 163.783 15.8725 163.783 14.4367C163.783 14.1496 163.795 13.8625 163.82 13.5753C163.845 13.262 163.896 12.9357 163.971 12.5964C164.475 10.1165 165.658 8.23695 167.52 6.95783C169.408 5.65261 172.126 5 175.675 5C177.009 5 178.356 5.11747 179.715 5.35241C181.1 5.58735 182.195 5.84839 183 6.13554L181.754 12.244C180.672 11.748 179.615 11.3956 178.583 11.1867C177.551 10.9779 176.556 10.8735 175.6 10.8735C174.492 10.8735 173.523 10.9649 172.693 11.1476C171.887 11.3303 171.397 11.8002 171.22 12.5572C171.195 12.6355 171.183 12.753 171.183 12.9096C171.183 13.4056 171.497 13.7841 172.126 14.0452C172.756 14.3062 173.8 14.6717 175.26 15.1416C177.45 15.8203 178.973 16.6556 179.829 17.6476C180.684 18.6396 181.112 19.8143 181.112 21.1717C181.112 21.511 181.087 21.8635 181.037 22.2289C180.986 22.5944 180.923 22.9729 180.848 23.3645C180.546 24.8785 179.954 26.2098 179.073 27.3584C178.218 28.507 176.972 29.4076 175.336 30.0602C173.7 30.6867 171.56 31 168.917 31Z" fill="#1C1C1C"/>
<path d="M10.2627 16.9939L19.5387 18.6849L10.4947 34.7464C4.29342 31.8342 0 25.5351 0 18.2337C0 13.2652 1.98808 8.76094 5.2125 5.47223C5.34368 5.33846 5.47672 5.20707 5.61159 5.07779C5.71955 4.97384 5.82883 4.87147 5.93942 4.77095C5.99459 4.72003 6.05002 4.67016 6.10597 4.62056C6.27253 4.47176 6.44172 4.32639 6.61382 4.18418C6.622 4.17758 6.63018 4.17072 6.63836 4.16386C6.68878 4.12191 6.73972 4.08049 6.79093 4.03933C6.82022 4.01585 6.84952 3.99237 6.87856 3.96915C6.90812 3.94567 6.93742 3.92245 6.96672 3.89924C7.05303 3.83169 7.13961 3.76442 7.22697 3.69819C7.23172 3.69476 7.23647 3.69133 7.24096 3.68764C7.35789 3.59899 7.47614 3.51166 7.59545 3.42591C7.62607 3.40401 7.65642 3.38238 7.68704 3.36048C7.80925 3.27342 7.93278 3.18793 8.05736 3.1043C8.18195 3.02013 8.30759 2.93782 8.43428 2.85708C8.51585 2.80458 8.5982 2.75313 8.68055 2.70221C8.72621 2.67424 8.77161 2.64628 8.81754 2.61884C8.84974 2.59931 8.88194 2.58005 8.91441 2.56079C8.94661 2.54153 8.97908 2.52227 9.01154 2.50328C9.04401 2.48428 9.07648 2.46529 9.10894 2.44629C9.14167 2.42756 9.1744 2.40882 9.20687 2.39009C9.2396 2.37136 9.27259 2.35289 9.30532 2.33416C9.33805 2.31569 9.37105 2.29749 9.40404 2.27902C9.43703 2.26081 9.47003 2.24261 9.50302 2.22467C9.53628 2.20646 9.56927 2.18852 9.60253 2.17058C9.66905 2.13496 9.73556 2.09934 9.80261 2.06452C9.83613 2.0471 9.86965 2.02969 9.90317 2.01228C9.97021 1.97772 10.0378 1.94368 10.1054 1.90991C10.1391 1.89302 10.1732 1.87614 10.207 1.85952C10.2748 1.82627 10.3432 1.7933 10.4115 1.76058C10.4796 1.72813 10.5483 1.69594 10.6172 1.66428C10.6562 1.64634 10.6953 1.62866 10.7344 1.61072C10.799 1.5817 10.8637 1.55294 10.9284 1.52445C10.998 1.4941 11.0677 1.46403 11.1377 1.43448C13.3211 0.510788 15.7217 0 18.2416 0C19.8032 0 21.3193 0.196032 22.7658 0.565402L10.2627 16.9939Z" fill="#1C1C1C"/>
<path d="M36.4839 18.2337C36.4839 28.3038 28.3167 36.4674 18.2422 36.4674C15.532 36.4674 12.9603 35.8769 10.6478 34.8168L31.9838 15.8721L21.7045 14.3875L30.6648 4.88144C34.2445 8.21052 36.4839 12.9606 36.4839 18.2337Z" fill="#F41E1E"/>
</svg>
