<svg xmlns="http://www.w3.org/2000/svg" width="128" height="77" viewBox="0 0 128 77" fill="none"><path d="M0 76.6084L4.90482 51.3916H22.3602L21.3143 56.8735H10.6391L9.77357 61.2199H19.0783L17.9964 66.7801H8.69162L6.78019 76.6084H0Z" fill="#1C1C1C"></path><path d="M20.0216 76.6084L24.9264 51.3916H31.7066L26.8018 76.6084H20.0216Z" fill="#1C1C1C"></path><path d="M35.9008 76.6084L39.7598 56.8735H33.232L34.2779 51.3916H54.1136L53.0677 56.8735H46.54L42.681 76.6084H35.9008Z" fill="#1C1C1C"></path><path d="M51.753 76.6084L56.6578 51.3916H63.0413L66.3232 64.1958L74.546 51.3916H81.3262L76.4214 76.6084H69.6412L72.0936 64L66.756 72.3012H63.1135L60.9856 64L58.5332 76.6084H51.753Z" fill="#1C1C1C"></path><path d="M79.6813 76.6084L93.4941 51.3916H100.671L104.674 76.6084H97.6055L96.776 71.244H89.7073L86.75 76.6084H79.6813ZM91.6188 65.9578H96.8121L95.658 58.5572L91.6188 65.9578Z" fill="#1C1C1C"></path><path d="M114.548 77C112.985 77 111.53 76.8695 110.184 76.6084C108.838 76.3213 107.732 75.9297 106.866 75.4337L108.056 69.3645C109.042 69.9126 110.16 70.3564 111.41 70.6958C112.66 71.0351 113.863 71.2048 115.017 71.2048C116.219 71.2048 117.144 71.1004 117.794 70.8916C118.443 70.6566 118.852 70.1476 119.02 69.3645C119.044 69.26 119.056 69.1295 119.056 68.9729C119.056 68.3203 118.683 67.8374 117.938 67.5241C117.193 67.2108 116.087 66.7801 114.62 66.2319C112.985 65.6054 111.747 64.8484 110.905 63.9608C110.064 63.0472 109.643 61.8725 109.643 60.4367C109.643 60.1496 109.655 59.8625 109.679 59.5753C109.703 59.262 109.751 58.9357 109.823 58.5964C110.304 56.1165 111.434 54.2369 113.213 52.9578C115.017 51.6526 117.613 51 121.003 51C122.278 51 123.564 51.1175 124.862 51.3524C126.185 51.5873 127.231 51.8484 128 52.1355L126.81 58.244C125.776 57.748 124.766 57.3956 123.78 57.1867C122.795 56.9779 121.845 56.8735 120.931 56.8735C119.873 56.8735 118.948 56.9649 118.154 57.1476C117.385 57.3303 116.916 57.8002 116.748 58.5572C116.724 58.6355 116.712 58.753 116.712 58.9096C116.712 59.4056 117.012 59.7841 117.613 60.0452C118.214 60.3062 119.212 60.6717 120.607 61.1416C122.698 61.8203 124.153 62.6556 124.971 63.6476C125.788 64.6396 126.197 65.8143 126.197 67.1717C126.197 67.511 126.173 67.8635 126.125 68.2289C126.077 68.5944 126.016 68.9729 125.944 69.3645C125.656 70.8785 125.091 72.2098 124.249 73.3584C123.432 74.507 122.242 75.4076 120.679 76.0602C119.116 76.6867 117.072 77 114.548 77Z" fill="#1C1C1C"></path><path d="M56.2627 16.9939L65.5387 18.6849L56.4947 34.7464C50.2934 31.8342 46 25.5351 46 18.2337C46 13.2652 47.9881 8.76094 51.2125 5.47223C51.3437 5.33846 51.4767 5.20707 51.6116 5.07779C51.7196 4.97384 51.8288 4.87147 51.9394 4.77095C51.9946 4.72003 52.05 4.67016 52.106 4.62056C52.2725 4.47176 52.4417 4.32639 52.6138 4.18418C52.622 4.17758 52.6302 4.17072 52.6384 4.16386C52.6888 4.12191 52.7397 4.08049 52.7909 4.03933C52.8202 4.01585 52.8495 3.99237 52.8786 3.96915C52.9081 3.94567 52.9374 3.92245 52.9667 3.89924C53.053 3.83169 53.1396 3.76442 53.227 3.69819C53.2317 3.69476 53.2365 3.69133 53.241 3.68764C53.3579 3.59899 53.4761 3.51166 53.5954 3.42591C53.6261 3.40401 53.6564 3.38238 53.687 3.36048C53.8092 3.27342 53.9328 3.18793 54.0574 3.1043C54.1819 3.02013 54.3076 2.93782 54.4343 2.85708C54.5158 2.80458 54.5982 2.75313 54.6805 2.70221C54.7262 2.67424 54.7716 2.64628 54.8175 2.61884C54.8497 2.59931 54.8819 2.58005 54.9144 2.56079C54.9466 2.54153 54.9791 2.52227 55.0115 2.50328C55.044 2.48428 55.0765 2.46529 55.1089 2.44629C55.1417 2.42756 55.1744 2.40882 55.2069 2.39009C55.2396 2.37136 55.2726 2.35289 55.3053 2.33416C55.3381 2.31569 55.371 2.29749 55.404 2.27902C55.437 2.26081 55.47 2.24261 55.503 2.22467C55.5363 2.20646 55.5693 2.18852 55.6025 2.17058C55.669 2.13496 55.7356 2.09934 55.8026 2.06452C55.8361 2.0471 55.8696 2.02969 55.9032 2.01228C55.9702 1.97772 56.0378 1.94368 56.1054 1.90991C56.1391 1.89302 56.1732 1.87614 56.207 1.85952C56.2748 1.82627 56.3432 1.7933 56.4115 1.76058C56.4796 1.72813 56.5483 1.69594 56.6172 1.66428C56.6562 1.64634 56.6953 1.62866 56.7344 1.61072C56.799 1.5817 56.8637 1.55294 56.9284 1.52445C56.998 1.4941 57.0677 1.46403 57.1377 1.43448C59.3211 0.510788 61.7217 0 64.2416 0C65.8032 0 67.3193 0.196032 68.7658 0.565402L56.2627 16.9939Z" fill="#1C1C1C"></path><path d="M82.484 18.2337C82.484 28.3038 74.3168 36.4674 64.2423 36.4674C61.5321 36.4674 58.9604 35.8769 56.6479 34.8169L77.9839 15.8721L67.7046 14.3875L76.6649 4.88147C80.2446 8.21055 82.484 12.9607 82.484 18.2337Z" fill="#F41E1E"></path></svg>