<svg width="49" height="50" viewBox="0 0 49 50" fill="none" xmlns="http://www.w3.org/2000/svg">
<path d="M18.9062 23C18.9062 21.4062 17.5 20 15.9062 20H12.9062C9.53125 20 6.90625 22.7188 6.90625 26V32C6.90625 35.2812 9.625 38 12.9062 38H15.9062C17.5938 38 18.9062 36.6875 18.9062 35V23ZM15.9062 35H12.9062C11.2188 35 9.90625 33.6875 9.90625 32V26C9.90625 24.4062 11.2188 23 12.9062 23H15.9062V35ZM36.9062 38C40.1875 38 42.9062 35.2812 42.9062 32V26C42.9062 22.7188 40.1875 20.0938 36.9062 20.0938H34C32.3125 20.0938 31 21.5 31 23.0938V35.0938C31 36.7812 32.3125 38.0938 34 38.0938H36.9062V38ZM33.9062 23H36.8125C38.4062 23 39.8125 24.4062 39.8125 26V32C39.8125 33.6875 38.4062 35 36.8125 35H33.8125L33.9062 23ZM27.25 2.1875C12.8125 0.78125 1.375 12.3125 1 26.0938L0.90625 27.5C0.90625 28.3438 1.65625 29 2.5 29C3.25 29 3.90625 28.3438 4 27.5938V26C4.28125 14.0938 14.3125 3.96875 26.875 5.09375C37.8438 6.125 46 15.6875 46 26.6562V42.5C46 44.9375 43.9375 47 41.5 47H33.625C34.0938 45.9688 34.0938 44.75 33.4375 43.5312C32.5938 41.9375 30.8125 41 29.0312 41H23.5938C21.4375 41 19.4688 42.5 19 44.6562C18.5312 47.5625 20.6875 50 23.4062 50H41.3125C45.4375 50 48.8125 46.7188 48.8125 42.5938V26.6562C49 14.1875 39.625 3.3125 27.25 2.1875ZM29.4062 47H23.4062C22.5625 47 21.9062 46.3438 21.9062 45.5C21.9062 44.75 22.5625 44 23.4062 44H29.4062C30.1562 44 30.9062 44.75 30.9062 45.5C30.9062 46.3438 30.25 47 29.4062 47Z" fill="#DF0A0A"/>
</svg>
