<svg width="45" height="45" viewBox="0 0 45 45" fill="none" xmlns="http://www.w3.org/2000/svg">
<path d="M40.0781 24.2789V10.4906C42.4596 10.1475 44.2969 8.0993 44.2969 5.625C44.2969 2.91164 42.0891 0.703125 39.375 0.703125C36.6609 0.703125 34.4531 2.91164 34.4531 5.625H0.703125V33.75H21.8327C22.1984 39.6253 27.0816 44.2969 33.0469 44.2969C39.2498 44.2969 44.2969 39.2498 44.2969 33.0469C44.2969 29.5038 42.6466 26.3426 40.0781 24.2789ZM39.375 2.10938C41.3135 2.10938 42.8906 3.68648 42.8906 5.625C42.8906 7.56352 41.3135 9.14062 39.375 9.14062C37.4365 9.14062 35.8594 7.56352 35.8594 5.625C35.8594 3.68648 37.4365 2.10938 39.375 2.10938ZM2.10938 7.03125H34.6605C34.8286 7.59234 35.0958 8.10914 35.4389 8.56758L31.1386 12.8679C30.863 12.7357 30.5592 12.6562 30.2344 12.6562C29.9095 12.6562 29.6058 12.7357 29.3309 12.8679L27.9141 11.4511C28.0455 11.1755 28.125 10.8717 28.125 10.5469C28.125 9.38391 27.1786 8.4375 26.0156 8.4375C24.8527 8.4375 23.9062 9.38391 23.9062 10.5469C23.9062 10.8717 23.9857 11.1755 24.1179 11.4504L20.5917 14.9766C20.3161 14.8451 20.0123 14.7656 19.6875 14.7656C18.5245 14.7656 17.5781 15.712 17.5781 16.875C17.5781 18.038 18.5245 18.9844 19.6875 18.9844C20.8505 18.9844 21.7969 18.038 21.7969 16.875C21.7969 16.5502 21.7174 16.2464 21.5852 15.9715L25.1114 12.4453C25.387 12.5768 25.6908 12.6562 26.0156 12.6562C26.3405 12.6562 26.6442 12.5768 26.9191 12.4446L28.3359 13.8614C28.2045 14.137 28.125 14.4408 28.125 14.7656C28.125 15.9286 29.0714 16.875 30.2344 16.875C31.3973 16.875 32.3438 15.9286 32.3438 14.7656C32.3438 14.4408 32.2643 14.137 32.1321 13.8621L36.4331 9.5618C37.0765 10.0441 37.8401 10.3711 38.6719 10.4913V23.3198C37.0146 22.3573 35.0972 21.7969 33.0469 21.7969C29.6859 21.7969 26.6723 23.2861 24.6094 25.631V22.5H20.3906V30.9375H22.0022C21.915 31.3966 21.8623 31.867 21.8327 32.3438H2.10938V7.03125ZM30.2344 14.0625C30.6218 14.0625 30.9375 14.3775 30.9375 14.7656C30.9375 15.1538 30.6218 15.4688 30.2344 15.4688C29.847 15.4688 29.5312 15.1538 29.5312 14.7656C29.5312 14.3775 29.847 14.0625 30.2344 14.0625ZM25.3125 10.5469C25.3125 10.1587 25.6282 9.84375 26.0156 9.84375C26.403 9.84375 26.7188 10.1587 26.7188 10.5469C26.7188 10.935 26.403 11.25 26.0156 11.25C25.6282 11.25 25.3125 10.935 25.3125 10.5469ZM20.3906 16.875C20.3906 17.2631 20.0749 17.5781 19.6875 17.5781C19.3001 17.5781 18.9844 17.2631 18.9844 16.875C18.9844 16.4869 19.3001 16.1719 19.6875 16.1719C20.0749 16.1719 20.3906 16.4869 20.3906 16.875ZM33.0469 38.6719C29.9454 38.6719 27.4219 36.1484 27.4219 33.0469C27.4219 29.9454 29.9454 27.4219 33.0469 27.4219C36.1484 27.4219 38.6719 29.9454 38.6719 33.0469C38.6719 36.1484 36.1484 38.6719 33.0469 38.6719ZM23.2031 27.6124C22.8663 28.2199 22.5879 28.8619 22.3671 29.5312H21.7969V23.9062H23.2031V27.6124ZM32.3438 23.239V26.0515C28.7958 26.4059 26.0156 29.4075 26.0156 33.0469C26.0156 34.0755 26.2434 35.0508 26.6421 35.9325L24.203 37.3409C23.5688 36.0415 23.2031 34.5874 23.2031 33.0469C23.2031 27.8564 27.244 23.6018 32.3438 23.239ZM33.0469 42.8906C29.662 42.8906 26.6709 41.1729 24.8991 38.5629L27.348 37.1489C28.6263 38.9194 30.7013 40.0781 33.0469 40.0781C35.3925 40.0781 37.4674 38.9194 38.7457 37.1489L41.1947 38.5629C39.4228 41.1729 36.4317 42.8906 33.0469 42.8906ZM41.8908 37.3409L39.4516 35.9325C39.8503 35.0508 40.0781 34.0755 40.0781 33.0469C40.0781 29.4075 37.298 26.4052 33.75 26.0515V23.239C38.8498 23.6018 42.8906 27.8564 42.8906 33.0469C42.8906 34.5874 42.525 36.0415 41.8908 37.3409Z" fill="white"/>
<path d="M33.0469 28.8281C30.7202 28.8281 28.8281 30.7202 28.8281 33.0469C28.8281 35.3735 30.7202 37.2656 33.0469 37.2656C35.3735 37.2656 37.2656 35.3735 37.2656 33.0469C37.2656 30.7202 35.3735 28.8281 33.0469 28.8281ZM33.0469 35.8594C31.4958 35.8594 30.2344 34.598 30.2344 33.0469C30.2344 31.4958 31.4958 30.2344 33.0469 30.2344C34.598 30.2344 35.8594 31.4958 35.8594 33.0469C35.8594 34.598 34.598 35.8594 33.0469 35.8594Z" fill="white"/>
<path d="M3.51562 8.4375H4.92188V9.84375H3.51562V8.4375Z" fill="white"/>
<path d="M6.32812 8.4375H16.1719V9.84375H6.32812V8.4375Z" fill="white"/>
<path d="M3.51562 11.25H4.92188V12.6562H3.51562V11.25Z" fill="white"/>
<path d="M6.32812 11.25H16.1719V12.6562H6.32812V11.25Z" fill="white"/>
<path d="M3.51562 14.0625H4.92188V15.4688H3.51562V14.0625Z" fill="white"/>
<path d="M6.32812 14.0625H16.1719V15.4688H6.32812V14.0625Z" fill="white"/>
<path d="M3.51562 16.875H4.92188V18.2812H3.51562V16.875Z" fill="white"/>
<path d="M6.32812 16.875H16.1719V18.2812H6.32812V16.875Z" fill="white"/>
<path d="M3.51562 30.9375H7.73438V23.9062H3.51562V30.9375ZM4.92188 25.3125H6.32812V29.5312H4.92188V25.3125Z" fill="white"/>
<path d="M9.14062 30.9375H13.3594V25.3125H9.14062V30.9375ZM10.5469 26.7188H11.9531V29.5312H10.5469V26.7188Z" fill="white"/>
<path d="M14.7656 30.9375H18.9844V19.6875H14.7656V30.9375ZM16.1719 21.0938H17.5781V29.5312H16.1719V21.0938Z" fill="white"/>
</svg>
