<svg width="58" height="58" viewBox="0 0 58 58" fill="none" xmlns="http://www.w3.org/2000/svg">
<path d="M56.5401 50.6512L54.4986 44.9349C55.7314 43.3905 56.5493 41.5567 56.8745 39.6075C57.1997 37.6584 57.0215 35.6584 56.3569 33.7974C55.6922 31.9364 54.5631 30.2761 53.0767 28.9739C51.5903 27.6718 49.7958 26.771 47.8635 26.357L42.9384 12.5667H44.4667C46.7733 12.5641 48.9846 11.6466 50.6156 10.0156C52.2466 8.38463 53.1641 6.17325 53.1667 3.86667V2.9C53.1667 2.13087 52.8611 1.39325 52.3173 0.84939C51.7734 0.305535 51.0358 0 50.2667 0C49.4975 0 48.7599 0.305535 48.2161 0.84939C47.6722 1.39325 47.3667 2.13087 47.3667 2.9V3.86667C47.3658 4.63553 47.06 5.37265 46.5163 5.91632C45.9727 6.45999 45.2355 6.7658 44.4667 6.76667H37.7C36.993 6.76661 36.3104 7.02479 35.7804 7.49268C35.2505 7.96057 34.9097 8.60593 34.8221 9.30745C34.7345 10.009 34.9062 10.7183 35.3049 11.3021C35.7036 11.8859 36.3018 12.304 36.9871 12.4777L38.8212 17.6131L23.4805 31.4924L14.5597 30.9351C14.5399 30.9339 14.5199 30.9333 14.5 30.9333C14.426 30.9333 14.3528 30.9366 14.2794 30.9389L10.1163 20.3H12.5667C13.3355 20.2991 14.0727 19.9933 14.6163 19.4497C15.16 18.906 15.4658 18.1689 15.4667 17.4V17.1435C15.4637 16.4462 15.2109 15.7731 14.754 15.2464C14.2972 14.7196 13.6666 14.3741 12.9768 14.2726L3.31011 12.8916C2.89879 12.8328 2.47966 12.8631 2.08108 12.9805C1.6825 13.0978 1.31378 13.2994 0.999901 13.5716C0.686019 13.8439 0.434299 14.1804 0.261787 14.5584C0.0892739 14.9363 -3.39435e-06 15.347 0 15.7625V17.4C0.000863514 18.1689 0.306676 18.906 0.850344 19.4497C1.39401 19.9933 2.13114 20.2991 2.9 20.3H4.17358L9.29341 33.3834C8.70045 34.0967 8.26078 34.9246 8.00183 35.8154C7.74287 36.7062 7.67017 37.6407 7.78827 38.5608C7.90636 39.481 8.21271 40.3669 8.68823 41.1634C9.16374 41.9599 9.79823 42.6499 10.5521 43.1904L2.72419 50.2725C1.98722 50.318 1.2953 50.6427 0.789223 51.1803C0.283144 51.718 0.000927805 52.4283 0 53.1667V55.1C0.000863514 55.8689 0.306676 56.606 0.850344 57.1497C1.39401 57.6933 2.13114 57.9991 2.9 58H4.83333C5.6022 57.9991 6.33932 57.6933 6.88299 57.1497C7.42666 56.606 7.73247 55.8689 7.73333 55.1H50.2667C50.2675 55.8689 50.5733 56.606 51.117 57.1497C51.6607 57.6933 52.3978 57.9991 53.1667 58H55.1C55.8689 57.9991 56.606 57.6933 57.1497 57.1497C57.6933 56.606 57.9991 55.8689 58 55.1V53.1667C57.9996 52.656 57.8644 52.1544 57.6081 51.7127C57.3517 51.271 56.9833 50.9048 56.5401 50.6512ZM52.7679 31.4033C54.0945 32.9486 54.8991 34.8734 55.0669 36.9031C55.2347 38.9328 54.7572 40.9637 53.7024 42.7059L48.6596 28.5864C50.2511 29.1514 51.6673 30.1224 52.7679 31.4033ZM54.3497 50.2667H53.1667C52.9625 50.2667 52.759 50.2884 52.5594 50.3312L39.0717 12.5667H40.8854L54.3497 50.2667ZM49.1792 46.6133C47.1033 47.4844 44.7886 47.6041 42.6341 46.9515C40.4795 46.299 38.6201 44.9153 37.3764 43.0388L45.4652 42.5333C46.1872 42.5289 46.8989 42.3625 47.5479 42.0464L49.1792 46.6133ZM42.0336 26.6075C39.1079 27.5103 36.6552 29.5283 35.2055 32.2252L31.2531 31.9781L40.8136 23.192L42.0336 26.6075ZM42.6844 28.4298L44.2416 32.7901L37.3751 32.3607C38.6311 30.4703 40.5096 29.0795 42.6844 28.43V28.4298ZM37.7 8.7H44.4667C45.7481 8.69856 46.9766 8.18887 47.8828 7.28276C48.7889 6.37665 49.2986 5.1481 49.3 3.86667V2.9C49.3 2.64362 49.4018 2.39775 49.5831 2.21646C49.7644 2.03518 50.0103 1.93333 50.2667 1.93333C50.523 1.93333 50.7689 2.03518 50.9502 2.21646C51.1315 2.39775 51.2333 2.64362 51.2333 2.9V3.86667C51.2313 5.66068 50.5178 7.38064 49.2492 8.6492C47.9806 9.91776 46.2607 10.6313 44.4667 10.6333H37.7C37.4436 10.6333 37.1977 10.5315 37.0165 10.3502C36.8352 10.1689 36.7333 9.92304 36.7333 9.66667C36.7333 9.41029 36.8352 9.16442 37.0165 8.98313C37.1977 8.80184 37.4436 8.7 37.7 8.7ZM39.5246 19.5837L40.1074 21.215L28.5776 31.8107L26.1758 31.6605L39.5246 19.5837ZM1.93333 17.4V15.7625C1.93333 15.5069 2.03454 15.2617 2.21484 15.0805C2.39513 14.8994 2.63983 14.797 2.89541 14.7958C2.94267 14.7959 2.98987 14.7992 3.03666 14.8058L12.7033 16.1868C12.9333 16.2207 13.1435 16.3359 13.2958 16.5114C13.4481 16.687 13.5323 16.9114 13.5333 17.1438V17.4C13.533 17.6563 13.4311 17.902 13.2499 18.0832C13.0687 18.2644 12.823 18.3664 12.5667 18.3667H2.9C2.64371 18.3664 2.398 18.2644 2.21678 18.0832C2.03556 17.902 1.93362 17.6563 1.93333 17.4ZM8.04025 20.3L12.3403 31.2888C11.8102 31.4679 11.3044 31.7124 10.8346 32.0166L6.24962 20.3H8.04025ZM9.66667 37.7C9.66807 36.4235 10.1738 35.1992 11.0738 34.2939C11.9738 33.3886 13.195 32.8756 14.4715 32.8667L44.9493 34.7716L46.8899 40.2054C46.4478 40.4635 45.9452 40.5997 45.4333 40.6C45.4133 40.6 45.3931 40.6 45.3729 40.6019L18.0966 42.307L16.6522 39.6414C17.1086 39.134 17.3711 38.4816 17.3931 37.7994C17.4151 37.1172 17.1954 36.4492 16.7727 35.9134C16.3499 35.3775 15.7514 35.0084 15.0828 34.871C14.4143 34.7337 13.7187 34.8371 13.119 35.1629C12.5192 35.4887 12.0539 36.016 11.8053 36.6516C11.5567 37.2873 11.5407 37.9903 11.7602 38.6366C11.9797 39.2829 12.4205 39.8308 13.0048 40.1835C13.5891 40.5363 14.2793 40.6711 14.9534 40.5644L15.9697 42.44L14.4715 42.5333C13.195 42.5244 11.9738 42.0114 11.0738 41.1061C10.1738 40.2008 9.66807 38.9765 9.66667 37.7ZM14.5 38.6667C14.3088 38.6667 14.1219 38.61 13.9629 38.5038C13.804 38.3975 13.6801 38.2466 13.6069 38.0699C13.5338 37.8933 13.5146 37.6989 13.5519 37.5114C13.5892 37.3239 13.6813 37.1517 13.8165 37.0165C13.9517 36.8813 14.1239 36.7892 14.3114 36.7519C14.4989 36.7146 14.6933 36.7338 14.8699 36.8069C15.0466 36.8801 15.1975 37.004 15.3038 37.1629C15.41 37.3219 15.4667 37.5088 15.4667 37.7C15.4664 37.9563 15.3644 38.202 15.1832 38.3832C15.002 38.5644 14.7563 38.6664 14.5 38.6667ZM14.5 44.4667C14.5199 44.4667 14.5399 44.4667 14.5597 44.4649L14.8255 44.4483L7.18354 51.4706C6.77978 50.9115 6.19037 50.5142 5.52063 50.3497L12.396 44.1299C13.0751 44.353 13.7853 44.4667 14.5 44.4667ZM5.8 55.1C5.79971 55.3563 5.69777 55.602 5.51655 55.7832C5.33533 55.9644 5.08962 56.0664 4.83333 56.0667H2.9C2.64371 56.0664 2.398 55.9644 2.21678 55.7832C2.03556 55.602 1.93362 55.3563 1.93333 55.1V53.1667C1.93362 52.9104 2.03556 52.6647 2.21678 52.4834C2.398 52.3022 2.64371 52.2003 2.9 52.2H4.83333C5.08962 52.2003 5.33533 52.3022 5.51655 52.4834C5.69777 52.6647 5.79971 52.9104 5.8 53.1667V55.1ZM8.19528 53.1667L17.2655 44.8315L18.2563 46.6594L17.4069 47.1199C17.2941 47.1797 17.1942 47.2613 17.1131 47.3599C17.0319 47.4585 16.9711 47.5723 16.9342 47.6945C16.8973 47.8167 16.8849 47.9451 16.8979 48.0721C16.9109 48.1992 16.9489 48.3224 17.0097 48.4347C17.0706 48.5469 17.1531 48.646 17.2524 48.7263C17.3518 48.8065 17.4661 48.8662 17.5887 48.902C17.7113 48.9378 17.8397 48.9489 17.9666 48.9348C18.0936 48.9206 18.2164 48.8815 18.3281 48.8196L21.7275 46.977C21.8404 46.9172 21.9402 46.8356 22.0214 46.737C22.1025 46.6384 22.1633 46.5246 22.2002 46.4024C22.2371 46.2802 22.2495 46.1518 22.2365 46.0248C22.2235 45.8977 22.1855 45.7745 22.1247 45.6622C22.0638 45.55 21.9813 45.4509 21.882 45.3706C21.7826 45.2904 21.6683 45.2307 21.5457 45.1949C21.4231 45.1591 21.2947 45.148 21.1678 45.1621C21.0408 45.1763 20.918 45.2154 20.8063 45.2773L19.956 45.7382L19.1118 44.1803L35.2076 43.1744C36.5624 45.7046 38.807 47.6429 41.5077 48.6147C44.2083 49.5865 47.1733 49.5228 49.8297 48.4359L50.8824 51.3835C50.4831 51.8921 50.2663 52.5201 50.2667 53.1667H8.19528ZM56.0667 55.1C56.0664 55.3563 55.9644 55.602 55.7832 55.7832C55.602 55.9644 55.3563 56.0664 55.1 56.0667H53.1667C52.9104 56.0664 52.6647 55.9644 52.4834 55.7832C52.3022 55.602 52.2003 55.3563 52.2 55.1V53.1667C52.2003 52.9104 52.3022 52.6647 52.4834 52.4834C52.6647 52.3022 52.9104 52.2003 53.1667 52.2H55.1C55.3563 52.2003 55.602 52.3022 55.7832 52.4834C55.9644 52.6647 56.0664 52.9104 56.0667 53.1667V55.1Z" fill="white"/>
</svg>
