<svg width="54" height="58" viewBox="0 0 54 58" fill="none" xmlns="http://www.w3.org/2000/svg">
<path d="M17.6538 29C17.0806 29 16.6154 29.464 16.6154 30.0357V51.7857H1.03846C0.465231 51.7857 0 52.2497 0 52.8214C0 53.3931 0.465231 53.8571 1.03846 53.8571H16.6154V55.9286H13.5C12.9268 55.9286 12.4615 56.3926 12.4615 56.9643C12.4615 57.536 12.9268 58 13.5 58H32.1923C32.7655 58 33.2308 57.536 33.2308 56.9643C33.2308 56.3926 32.7655 55.9286 32.1923 55.9286H29.0769V47.6429H43.6154V55.9286H42.5769C42.0037 55.9286 41.5385 56.3926 41.5385 56.9643C41.5385 57.536 42.0037 58 42.5769 58H50.8846C51.4578 58 51.9231 57.536 51.9231 56.9643C51.9231 56.3926 51.4578 55.9286 50.8846 55.9286H49.8462V47.6429H52.9615C53.5348 47.6429 54 47.1789 54 46.6071V42.4643C54 41.8926 53.5348 41.4286 52.9615 41.4286H51.732C51.8483 41.1034 51.9231 40.7574 51.9231 40.3929C51.9231 38.6798 50.5253 37.2857 48.8077 37.2857H29.0769V30.0357C29.0769 29.464 28.6117 29 28.0385 29H27V2.95386L35.7418 2.33657C35.4718 2.88343 35.3077 3.49243 35.3077 4.14286C35.3077 6.42764 37.1707 8.28571 39.4615 8.28571C40.2217 8.28571 40.9258 8.06614 41.5385 7.70986V16.8469L32.1798 22.4149C31.6876 22.707 31.5256 23.3429 31.8185 23.8359C32.0137 24.1611 32.3585 24.3414 32.7115 24.3414C32.8943 24.3414 33.0771 24.2937 33.2432 24.1943L42.5271 18.6719L48.5522 22.9411C48.735 23.0716 48.9448 23.1316 49.1545 23.1316C49.4785 23.1316 49.8005 22.9804 49.9998 22.6966C50.3322 22.2306 50.2221 21.5843 49.7568 21.2529L43.6154 16.8987C43.6154 16.8987 43.6154 4.22571 43.6154 4.14286C43.6154 1.85807 41.7524 0 39.4615 0C39.4428 0 39.4262 0.00621433 39.4075 0.00621433C39.4013 0.00621433 39.3951 0.00414305 39.3888 0.00414305L10.3119 2.07557C10.3036 2.07557 10.2953 2.08179 10.287 2.08179C8.04392 2.13564 6.23077 3.96264 6.23077 6.21429V29.3459L0.720692 31.1211C0.290769 31.2599 0 31.6576 0 32.1071V48.6786C0 49.2503 0.465231 49.7143 1.03846 49.7143H13.5C14.0732 49.7143 14.5385 49.2503 14.5385 48.6786V32.1071C14.5385 31.6659 14.256 31.2724 13.8385 31.1274L8.30769 29.2299V9.78129C8.92038 10.1376 9.62446 10.3571 10.3846 10.3571C12.6755 10.3571 14.5385 8.49907 14.5385 6.21429C14.5385 5.35879 14.2768 4.56129 13.8282 3.9005L18.6923 3.55664V29H17.6538ZM18.6923 55.9286V31.0714H27V55.9286H18.6923ZM47.7692 55.9286H45.6923V47.6429H47.7692V55.9286ZM51.9231 45.5714H48.8077H44.6538H29.0769V43.5H29.2182H48.8077H51.9231V45.5714ZM48.8077 39.3571C49.3788 39.3571 49.8462 39.8211 49.8462 40.3929C49.8462 40.9646 49.3788 41.4286 48.8077 41.4286H29.2182H29.0769V39.3571H48.8077ZM41.5385 4.14286C41.5385 5.28421 40.608 6.21429 39.4615 6.21429C38.3151 6.21429 37.3846 5.28421 37.3846 4.14286C37.3846 3.00564 38.3068 2.08386 39.4449 2.07557L39.4678 2.0735C40.6122 2.07764 41.5385 3.00357 41.5385 4.14286ZM12.4615 41.4576C12.4138 41.4493 12.3722 41.4286 12.3224 41.4286H2.60654C2.40923 41.4286 2.23477 41.499 2.07692 41.5943V37.12C2.23477 37.2153 2.40923 37.2857 2.60654 37.2857H12.3224C12.3722 37.2857 12.4138 37.265 12.4615 37.2567V41.4576ZM2.07692 47.6429V43.3343C2.23477 43.4296 2.40923 43.5 2.60654 43.5H12.3224C12.3722 43.5 12.4138 43.4793 12.4615 43.471V47.6429H2.07692ZM12.4615 35.2433C12.4138 35.235 12.3722 35.2143 12.3224 35.2143H2.60654C2.40923 35.2143 2.23477 35.2847 2.07692 35.38V32.8611L7.45615 31.1274L12.4615 32.8466V35.2433ZM10.3846 8.28571C9.23815 8.28571 8.30769 7.35564 8.30769 6.21429C8.30769 5.07293 9.23815 4.14286 10.3846 4.14286C11.5311 4.14286 12.4615 5.07293 12.4615 6.21429C12.4615 7.35564 11.5311 8.28571 10.3846 8.28571ZM20.7692 3.4075L24.9231 3.103V29H20.7692V3.4075Z" fill="white"/>
</svg>
