<svg width="44" height="50" viewBox="0 0 44 50" fill="none" xmlns="http://www.w3.org/2000/svg">
<path d="M43.9063 15.1146H42.3137V9.54051C42.3137 8.22344 41.2418 7.15162 39.9248 7.15162H28.7766V5.55903H27.9166C27.528 2.86277 25.2084 0.78125 22.4063 0.78125C19.6041 0.78125 17.2845 2.86277 16.8959 5.55903H16.0359V7.15162H4.88773C3.57066 7.15162 2.49884 8.22344 2.49884 9.54051V15.1146H0.90625V24.6701H2.49884V28.6516C2.49884 29.9687 3.57066 31.0405 4.88773 31.0405C6.20481 31.0405 7.27662 29.9687 7.27662 28.6516V24.6701H8.86921V15.1146H7.27662V11.9294H16.0359V18.2998H15.3328L13.6876 31.4617C12.7185 32.008 12.0544 33.0352 12.0544 34.2257C12.0544 34.9081 12.2742 35.538 12.6413 36.0564C9.56119 36.859 7.27662 39.6564 7.27662 42.985V50.1516H37.5359V42.985C37.5359 39.6564 35.2513 36.859 32.1712 36.0564C32.5383 35.538 32.7581 34.9081 32.7581 34.2257C32.7581 33.0352 32.094 32.008 31.1249 31.4617L29.4797 18.2998H28.7766V11.9294H37.5359V15.1146H35.9433V24.6701H37.5359V28.6516C37.5359 29.9687 38.6077 31.0405 39.9248 31.0405C41.2418 31.0405 42.3137 29.9687 42.3137 28.6516V24.6701H43.9063V15.1146ZM22.4063 2.37384C24.3285 2.37384 25.937 3.74427 26.3073 5.55903H18.5052C18.8755 3.74427 20.484 2.37384 22.4063 2.37384ZM28.0735 19.8924L29.467 31.0405H15.3455L16.739 19.8924H28.0735ZM23.9988 15.1146H20.8137V13.522H23.9988V15.1146ZM23.9988 11.9294H20.8137V10.3368H23.9988V11.9294ZM20.8137 18.2998V16.7072H23.9988V18.2998H20.8137ZM23.9988 8.74421H20.8137V7.15162H23.9988V8.74421ZM5.68403 28.6516C5.68403 29.0912 5.32649 29.4479 4.88773 29.4479C4.44897 29.4479 4.09144 29.0912 4.09144 28.6516V24.6701H5.68403V28.6516ZM7.27662 23.0775H2.49884V16.7072H7.27662V23.0775ZM5.68403 10.3368V15.1146H4.09144V9.54051C4.09144 9.10095 4.44897 8.74421 4.88773 8.74421H16.0359V10.3368H5.68403ZM17.6285 7.15162H19.2211V18.2998H17.6285V7.15162ZM35.9433 42.985V48.559H8.86921V42.985C8.86921 39.912 11.3696 37.4109 14.4433 37.4109H20.0174V42.1887H16.0359V46.9664H28.7766V42.1887H24.7951V37.4109H30.3692C33.4429 37.4109 35.9433 39.912 35.9433 42.985ZM27.184 43.7813V45.3738H17.6285V43.7813H27.184ZM21.61 42.1887V37.4109H23.2025V42.1887H21.61ZM29.5729 35.8183H15.2396C14.3613 35.8183 13.647 35.104 13.647 34.2257C13.647 33.3474 14.3613 32.6331 15.2396 32.6331H29.5729C30.4512 32.6331 31.1655 33.3474 31.1655 34.2257C31.1655 35.104 30.4512 35.8183 29.5729 35.8183ZM25.5914 18.2998V7.15162H27.184V18.2998H25.5914ZM28.7766 10.3368V8.74421H39.9248C40.3635 8.74421 40.7211 9.10095 40.7211 9.54051V15.1146H39.1285V10.3368H28.7766ZM40.7211 28.6516C40.7211 29.0912 40.3635 29.4479 39.9248 29.4479C39.486 29.4479 39.1285 29.0912 39.1285 28.6516V24.6701H40.7211V28.6516ZM42.3137 23.0775H37.5359V16.7072H42.3137V23.0775Z" fill="white"/>
<path d="M30.3691 45.3738H31.9617V46.9664H30.3691V45.3738Z" fill="white"/>
<path d="M12.8506 45.3738H14.4432V46.9664H12.8506V45.3738Z" fill="white"/>
</svg>
