<svg width="45" height="49" viewBox="0 0 45 49" fill="none" xmlns="http://www.w3.org/2000/svg">
<path d="M41.7901 43.624H35.15L32.1823 38.1355H33.0989C35.2791 38.1409 37.3784 37.3103 38.9646 35.8146C40.5508 34.3189 41.5033 32.272 41.6259 30.0953C41.7485 27.9186 41.0319 25.7777 39.6236 24.1134C38.2154 22.4491 36.2227 21.3879 34.0557 21.1485V10.6641L34.7948 10.0626C34.9114 9.96678 34.9855 9.82884 35.001 9.67872C35.0092 9.60322 35.0022 9.52686 34.9806 9.45408C34.9589 9.3813 34.923 9.31355 34.875 9.25476L28.6588 1.63497C28.2744 1.16393 27.7186 0.864901 27.1137 0.803659C26.5088 0.742417 25.9044 0.923979 25.4333 1.3084C24.9623 1.69283 24.6633 2.24863 24.602 2.85353C24.5408 3.45843 24.7223 4.06289 25.1068 4.53392L29.4724 9.88497V21.0912H16.9484L12.4338 12.4001H13.1614C13.6725 12.3986 14.1621 12.1945 14.523 11.8326C14.8838 11.4706 15.0864 10.9804 15.0864 10.4693V9.74174C15.0849 9.23166 14.8816 8.74291 14.521 8.38223C14.1603 8.02154 13.6715 7.81825 13.1614 7.81674H3.86301C3.35193 7.81673 2.86171 8.01936 2.49979 8.38021C2.13788 8.74105 1.93379 9.23067 1.93228 9.74174V10.4693C1.93228 10.7229 1.98222 10.974 2.07924 11.2082C2.17627 11.4424 2.31849 11.6553 2.49777 11.8346C2.67706 12.0139 2.8899 12.1561 3.12415 12.2531C3.35839 12.3501 3.60946 12.4001 3.86301 12.4001H7.2604L11.7864 21.0969C9.52699 21.1121 7.36612 22.0243 5.77919 23.6327C4.19226 25.2411 3.30927 27.4141 3.32446 29.6735C3.33966 31.933 4.25179 34.0938 5.86021 35.6808C7.46863 37.2677 9.64158 38.1507 11.901 38.1355H12.8177L9.84999 43.624H3.20988C2.60209 43.624 2.0192 43.8655 1.58943 44.2952C1.15966 44.725 0.918213 45.3079 0.918213 45.9157C0.918213 46.5235 1.15966 47.1064 1.58943 47.5361C2.0192 47.9659 2.60209 48.2074 3.20988 48.2074H41.7901C42.3979 48.2074 42.9808 47.9659 43.4105 47.5361C43.8403 47.1064 44.0818 46.5235 44.0818 45.9157C44.0818 45.3079 43.8403 44.725 43.4105 44.2952C42.9808 43.8655 42.3979 43.624 41.7901 43.624ZM33.8437 43.624H32.5432L29.5755 38.1355H30.876L33.8437 43.624ZM28.2693 38.1355L31.237 43.624H13.763L16.7307 38.1355H28.2693ZM26.1552 2.19643C26.272 2.10092 26.4066 2.02944 26.5512 1.98609C26.6957 1.94274 26.8474 1.92837 26.9975 1.94381C27.1477 1.95925 27.2932 2.00419 27.4259 2.07605C27.5586 2.14792 27.6759 2.24529 27.7708 2.36257L33.626 9.53549L31.85 10.985L25.9948 3.80632C25.803 3.57137 25.7122 3.26999 25.7423 2.96822C25.7724 2.66646 25.9209 2.38892 26.1552 2.19643ZM30.6182 11.2886L31.3229 12.1537C31.3706 12.2121 31.4294 12.2606 31.4958 12.2963C31.5623 12.3319 31.6351 12.3541 31.7102 12.3616C31.7852 12.369 31.861 12.3616 31.9332 12.3397C32.0053 12.3178 32.0725 12.2818 32.1307 12.2339L32.9099 11.598V21.0912H30.6182V11.2886ZM3.07811 10.4693V9.74174C3.07962 9.53456 3.16298 9.33639 3.31002 9.19043C3.45705 9.04447 3.65583 8.96256 3.86301 8.96257H13.1614C13.3681 8.96257 13.5663 9.04466 13.7124 9.19078C13.8585 9.3369 13.9406 9.53509 13.9406 9.74174V10.4693C13.9414 10.5721 13.9218 10.6741 13.883 10.7693C13.8441 10.8645 13.7869 10.951 13.7144 11.024C13.642 11.097 13.5559 11.1549 13.4609 11.1944C13.366 11.2339 13.2642 11.2542 13.1614 11.2542H3.86301C3.75993 11.2542 3.65787 11.2339 3.56264 11.1945C3.46741 11.155 3.38088 11.0972 3.308 11.0243C3.23512 10.9515 3.1773 10.8649 3.13786 10.7697C3.09841 10.6745 3.07811 10.5724 3.07811 10.4693ZM11.139 12.4001L15.6536 21.0912H13.0755L8.55519 12.4001H11.139ZM4.52759 29.5876C4.53516 27.6365 5.31516 25.7677 6.69697 24.3902C8.07877 23.0127 9.9499 22.2385 11.901 22.237H33.0989C34.0849 22.2096 35.0664 22.38 35.9853 22.7384C36.9043 23.0967 37.7421 23.6356 38.4492 24.3233C39.1563 25.011 39.7184 25.8334 40.1022 26.742C40.486 27.6507 40.6837 28.627 40.6837 29.6133C40.6837 30.5997 40.486 31.576 40.1022 32.4847C39.7184 33.3933 39.1563 34.2157 38.4492 34.9034C37.7421 35.5911 36.9043 36.13 35.9853 36.4883C35.0664 36.8467 34.0849 37.0171 33.0989 36.9897H11.901C9.94541 36.9866 8.07084 36.208 6.68855 34.8246C5.30625 33.4413 4.5291 31.5661 4.52759 29.6105V29.5876ZM14.1239 38.1355H15.4245L12.4568 43.624H11.1562L14.1239 38.1355ZM41.7901 47.0615H3.20988C2.90599 47.0615 2.61454 46.9408 2.39965 46.7259C2.18477 46.511 2.06405 46.2196 2.06405 45.9157C2.06405 45.6118 2.18477 45.3204 2.39965 45.1055C2.61454 44.8906 2.90599 44.7699 3.20988 44.7699H41.7901C42.094 44.7699 42.3854 44.8906 42.6003 45.1055C42.8152 45.3204 42.9359 45.6118 42.9359 45.9157C42.9359 46.2196 42.8152 46.511 42.6003 46.7259C42.3854 46.9408 42.094 47.0615 41.7901 47.0615Z" fill="white"/>
<path d="M25.4105 27.5537H23.812C23.6594 27.5535 23.5084 27.5839 23.3677 27.6429C23.227 27.7019 23.0995 27.7885 22.9927 27.8974H20.9875C20.5777 26.6186 19.7244 25.5283 18.5815 24.8232C17.4386 24.1181 16.0814 23.8446 14.7546 24.052C13.4279 24.2594 12.2189 24.934 11.3457 25.9543C10.4725 26.9746 9.99268 28.2733 9.99268 29.6162C9.99268 30.9591 10.4725 32.2577 11.3457 33.278C12.2189 34.2983 13.4279 34.9729 14.7546 35.1804C16.0814 35.3878 17.4386 35.1142 18.5815 34.4091C19.7244 33.704 20.5777 32.6137 20.9875 31.3349H22.9927C23.1 31.4428 23.2277 31.5283 23.3684 31.5863C23.509 31.6444 23.6599 31.6738 23.812 31.6729H25.4105C25.717 31.673 26.0115 31.5532 26.231 31.3391C26.4504 31.125 26.5775 30.8336 26.5849 30.5271V28.7511C26.588 28.5949 26.5599 28.4397 26.5022 28.2946C26.4445 28.1494 26.3585 28.0172 26.2491 27.9057C26.1398 27.7942 26.0093 27.7057 25.8653 27.6452C25.7213 27.5848 25.5666 27.5536 25.4105 27.5537ZM22.6433 30.1891H17.5901C17.6492 30.0038 17.6801 29.8106 17.6818 29.6162C17.6807 29.4221 17.6518 29.2291 17.5959 29.0432H22.6433V30.1891ZM16.536 29.6162C16.5348 29.7961 16.4805 29.9716 16.3797 30.1207C16.2789 30.2697 16.1362 30.3856 15.9697 30.4537C15.8031 30.5217 15.6202 30.539 15.4438 30.5032C15.2675 30.4674 15.1057 30.3802 14.9789 30.2525C14.8521 30.1249 14.7659 29.9626 14.7312 29.786C14.6965 29.6095 14.7149 29.4266 14.784 29.2605C14.8531 29.0944 14.9699 28.9525 15.1195 28.8526C15.2692 28.7528 15.4451 28.6995 15.625 28.6995C15.8666 28.6995 16.0983 28.7955 16.2692 28.9663C16.44 29.1371 16.536 29.3688 16.536 29.6104V29.6162ZM15.625 34.1021C14.8112 34.1029 14.0124 33.8825 13.3141 33.4646C12.6158 33.0466 12.0441 32.4468 11.6602 31.7292C11.2763 31.0116 11.0946 30.2032 11.1345 29.3903C11.1744 28.5775 11.4344 27.7907 11.8867 27.1141C12.339 26.4376 12.9666 25.8966 13.7025 25.549C14.4384 25.2014 15.2549 25.0603 16.0647 25.1408C16.8746 25.2212 17.6473 25.5202 18.3005 26.0057C18.9536 26.4912 19.4626 27.1451 19.773 27.8974H16.7709C16.4319 27.6709 16.0328 27.5511 15.625 27.5537C15.3061 27.5576 14.9924 27.6356 14.7088 27.7816C14.4251 27.9276 14.1794 28.1376 13.9909 28.3949C13.8024 28.6523 13.6763 28.9499 13.6227 29.2644C13.5691 29.5789 13.5893 29.9015 13.6818 30.2068C13.7743 30.512 13.9366 30.7916 14.1557 31.0234C14.3749 31.2552 14.645 31.4328 14.9446 31.5422C15.2442 31.6517 15.5652 31.6899 15.8822 31.6539C16.1991 31.6179 16.5034 31.5087 16.7709 31.3349H19.7901C19.4522 32.1598 18.8747 32.8643 18.1322 33.3576C17.3897 33.8509 16.5164 34.1102 15.625 34.1021ZM25.4391 30.5042C25.4391 30.5042 25.4391 30.5042 25.4105 30.5042H23.7891V28.6995L25.4162 28.7281L25.4391 30.5042Z" fill="white"/>
</svg>
