<svg width="67" height="60" viewBox="0 0 67 60" fill="none" xmlns="http://www.w3.org/2000/svg">
<path d="M33.2435 16.6351C35.4036 16.6351 37.4738 15.5676 39.0724 13.63C40.5325 11.8606 41.3697 9.62886 41.3697 7.50499C41.3697 3.22643 37.8767 0 33.2435 0C28.6104 0 25.1173 3.22223 25.1173 7.50499C25.1173 9.62886 25.9545 11.8606 27.4146 13.63C29.0132 15.569 31.0834 16.6351 33.2435 16.6351ZM33.2435 2.3116C36.5866 2.3116 39.0124 4.49571 39.0124 7.50499C39.0124 11.2876 35.8565 14.3235 33.2435 14.3235C30.0476 14.3235 27.4746 10.5927 27.4746 7.50499C27.4746 4.50131 29.9004 2.3116 33.2435 2.3116Z" fill="white"/>
<path d="M23.6272 27.728L22.8 39.2986C22.7891 39.45 22.8087 39.602 22.8578 39.746C22.9068 39.89 22.9843 40.0231 23.0858 40.1377C23.1873 40.2523 23.3108 40.3462 23.4493 40.414C23.5878 40.4818 23.7385 40.5222 23.8929 40.5328H23.9758C24.274 40.5325 24.5609 40.4215 24.7791 40.2222C24.9972 40.0228 25.1303 39.7499 25.1516 39.4583L25.9788 27.8975C25.9897 27.7461 25.97 27.594 25.921 27.4501C25.8719 27.3061 25.7945 27.173 25.693 27.0584C25.5915 26.9438 25.468 26.8499 25.3295 26.7821C25.191 26.7143 25.0403 26.6739 24.8858 26.6632C24.7314 26.6526 24.5764 26.6718 24.4296 26.7199C24.2828 26.768 24.147 26.844 24.0302 26.9435C23.9133 27.043 23.8175 27.1641 23.7484 27.2999C23.6793 27.4357 23.6381 27.5836 23.6272 27.735V27.728Z" fill="white"/>
<path d="M49.2288 40.5314C49.5486 40.5036 49.8441 40.3527 50.0506 40.1116C50.2571 39.8705 50.3576 39.559 50.3303 39.2453C50.3303 39.2453 49.0845 30.4851 48.9016 27.5458C48.563 22.2684 45.2757 18.0347 40.1397 17.2641C38.3338 16.9923 35.0536 16.7878 33.3392 16.7864C30.999 16.8262 28.6624 16.9847 26.3388 17.2613C23.9299 17.5847 21.7236 18.7576 20.1327 20.5606C18.4612 22.4533 17.714 24.8728 17.5611 27.5514C17.3897 30.4935 16.2539 39.2579 16.2539 39.2579C16.2347 39.4099 16.2466 39.564 16.2887 39.7115C16.3308 39.8589 16.4024 39.9966 16.4993 40.1167C16.5961 40.2368 16.7164 40.3368 16.853 40.4109C16.9896 40.485 17.1398 40.5318 17.295 40.5485C17.4502 40.5652 17.6073 40.5515 17.757 40.5082C17.9068 40.4649 18.0463 40.3928 18.1674 40.2962C18.2885 40.1996 18.3888 40.0804 18.4626 39.9454C18.5363 39.8105 18.5819 39.6625 18.5969 39.5101C18.5969 39.5101 19.7498 30.6504 19.9141 27.6789C20.1484 23.4676 22.69 20.0829 26.6602 19.5533C28.8762 19.2894 31.1045 19.1379 33.3364 19.0994C34.9336 19.0994 38.1038 19.2983 39.7811 19.5505C41.6252 19.8242 43.3112 20.7283 44.5414 22.1031C45.85 23.5769 46.4172 25.5565 46.5415 27.6859C46.7229 30.6616 47.9887 39.5227 47.9887 39.5227C48.0345 39.8102 48.1859 40.0713 48.4142 40.2571C48.6426 40.4428 48.9323 40.5404 49.2288 40.5314Z" fill="white"/>
<path d="M41.5669 26.6562C41.4117 26.6667 41.2602 26.7072 41.121 26.7753C40.9819 26.8435 40.8579 26.938 40.7561 27.0534C40.6544 27.1688 40.577 27.3028 40.5283 27.4476C40.4796 27.5925 40.4607 27.7454 40.4725 27.8975L41.3012 39.4667C41.3218 39.7584 41.4544 40.0317 41.6723 40.2314C41.8903 40.431 42.1773 40.5423 42.4755 40.5426H42.5598C42.8715 40.5207 43.1616 40.3785 43.3665 40.1471C43.5714 39.9157 43.6743 39.6141 43.6527 39.3084L42.8241 27.7378C42.8141 27.5858 42.7737 27.4372 42.705 27.3005C42.6364 27.1638 42.541 27.0418 42.4242 26.9413C42.3075 26.8409 42.1716 26.764 42.0245 26.7151C41.8774 26.6661 41.7219 26.6461 41.5669 26.6562Z" fill="white"/>
<path d="M40.764 50.9966L46.4329 45.5777C46.5903 45.4272 46.7016 45.2365 46.7543 45.0272C46.807 44.8178 46.7989 44.5983 46.731 44.3932C46.6631 44.1882 46.538 44.0058 46.37 43.8668C46.2019 43.7278 45.9976 43.6376 45.78 43.6065L37.9467 42.4858L34.4436 35.53C34.3463 35.3364 34.1957 35.1734 34.0089 35.0595C33.8221 34.9455 33.6064 34.8851 33.3864 34.8851C33.1663 34.8851 32.9507 34.9455 32.7639 35.0595C32.577 35.1734 32.4264 35.3364 32.3292 35.53L28.8261 42.49L20.9927 43.6107C20.7752 43.6418 20.5708 43.732 20.4028 43.871C20.2347 44.01 20.1097 44.1924 20.0418 44.3974C19.9738 44.6025 19.9658 44.822 20.0184 45.0314C20.0711 45.2407 20.1824 45.4314 20.3398 45.5819L26.0088 51.0009L24.6715 58.6459C24.6337 58.8591 24.6576 59.0784 24.7406 59.2789C24.8236 59.4793 24.9623 59.653 25.1409 59.78C25.3195 59.9069 25.5309 59.9822 25.751 59.9972C25.9711 60.0122 26.1911 59.9663 26.3859 59.8648L33.3864 56.2531L40.3868 59.8648C40.5561 59.9517 40.7443 59.9973 40.9354 59.9979C41.1071 59.9976 41.2766 59.9607 41.4321 59.8896C41.5877 59.8185 41.7256 59.715 41.8362 59.5863C41.9467 59.4576 42.0274 59.3067 42.0724 59.1443C42.1174 58.9819 42.1258 58.8118 42.0969 58.6459L40.764 50.9966ZM32.8378 53.9247C31.4691 54.6083 27.3974 56.7266 27.3974 56.7266L28.4361 50.7851C28.4684 50.6005 28.4544 50.4109 28.3954 50.2328C28.3365 50.0546 28.2342 49.8932 28.0975 49.7624L23.6958 45.5595L29.779 44.6923C29.968 44.6652 30.1475 44.5936 30.302 44.4836C30.4565 44.3735 30.5815 44.2283 30.6662 44.0605L33.3807 38.6541L36.0951 44.0605C36.1798 44.2283 36.3048 44.3735 36.4593 44.4836C36.6139 44.5936 36.7933 44.6652 36.9823 44.6923L43.0656 45.5595L38.6639 49.7624C38.5271 49.8932 38.4249 50.0546 38.3659 50.2328C38.3069 50.4109 38.293 50.6005 38.3253 50.7851L39.3639 56.7266C39.3639 56.7266 35.2922 54.6055 33.9236 53.9247C33.7568 53.8364 33.5702 53.7902 33.3807 53.7902C33.1911 53.7902 33.0046 53.8364 32.8378 53.9247Z" fill="white"/>
<path d="M65.7641 47.1202L60.0366 46.3034L57.475 41.2151C57.378 41.0215 57.2276 40.8584 57.0408 40.7444C56.8541 40.6304 56.6385 40.5699 56.4185 40.5699C56.1986 40.5699 55.983 40.6304 55.7962 40.7444C55.6095 40.8584 55.4591 41.0215 55.362 41.2151L52.8005 46.3034L47.073 47.1202C46.8554 47.1513 46.651 47.2414 46.483 47.3804C46.3149 47.5194 46.1899 47.7018 46.122 47.9068C46.0541 48.1119 46.046 48.3315 46.0987 48.5408C46.1513 48.7501 46.2627 48.9408 46.4201 49.0913L50.5632 53.0533L49.5845 58.6459C49.5467 58.8591 49.5706 59.0784 49.6536 59.2789C49.7366 59.4793 49.8753 59.653 50.0539 59.78C50.2325 59.9069 50.4439 59.9822 50.664 59.9972C50.8841 60.0122 51.1041 59.9663 51.2989 59.8648L56.4207 57.2239L61.5439 59.8648C61.7132 59.9517 61.9014 59.9973 62.0925 59.9979C62.2641 59.9976 62.4336 59.9607 62.5892 59.8896C62.7447 59.8185 62.8826 59.715 62.9932 59.5863C63.1038 59.4576 63.1844 59.3067 63.2294 59.1443C63.2745 58.9819 63.2829 58.8118 63.254 58.6459L62.2753 53.0533L66.4185 49.0913C66.5759 48.9408 66.6872 48.7501 66.7399 48.5408C66.7925 48.3315 66.7845 48.1119 66.7165 47.9068C66.6486 47.7018 66.5236 47.5194 66.3555 47.3804C66.1875 47.2414 65.9831 47.1513 65.7656 47.1202H65.7641ZM55.8707 54.8955C54.972 55.3382 52.3119 56.7294 52.3119 56.7294L52.9919 52.8445C53.0242 52.6599 53.0103 52.4704 52.9513 52.2922C52.8923 52.1141 52.79 51.9526 52.6533 51.8218L49.7746 49.0703L53.7519 48.5099C53.9412 48.4831 54.1209 48.4114 54.2755 48.301C54.4301 48.1907 54.5549 48.045 54.6391 47.8767L56.4178 44.3435L58.1965 47.8767C58.2813 48.0449 58.4064 48.1904 58.5612 48.3007C58.716 48.411 58.8958 48.4828 59.0851 48.5099L63.0611 49.0703L60.1838 51.8218C60.0469 51.9525 59.9445 52.1139 59.8855 52.2921C59.8265 52.4703 59.8126 52.6599 59.8452 52.8445L60.5309 56.7294C60.5309 56.7294 57.8722 55.3382 56.9736 54.8955C56.8041 54.806 56.6146 54.7592 56.4221 54.7592C56.2296 54.7592 56.0401 54.806 55.8707 54.8955Z" fill="white"/>
<path d="M19.6998 47.1202L13.9723 46.3034L11.4107 41.2151C11.3137 41.0215 11.1633 40.8584 10.9765 40.7444C10.7898 40.6304 10.5742 40.5699 10.3542 40.5699C10.1342 40.5699 9.91865 40.6304 9.73191 40.7444C9.54517 40.8584 9.39476 41.0215 9.29772 41.2151L6.73613 46.3034L1.00863 47.1202C0.791068 47.1513 0.586717 47.2414 0.418667 47.3804C0.250617 47.5194 0.125567 47.7018 0.0576491 47.9068C-0.0102688 48.1119 -0.0183469 48.3315 0.0343276 48.5408C0.0870021 48.7501 0.198329 48.9408 0.355728 49.0913L4.49885 53.0533L3.52736 58.6459C3.48951 58.8591 3.51343 59.0784 3.59641 59.2789C3.67938 59.4793 3.81807 59.653 3.9967 59.78C4.17533 59.9069 4.38673 59.9822 4.60684 59.9972C4.82695 60.0122 5.04693 59.9663 5.24175 59.8648L10.3649 57.2239L15.4867 59.8648C15.656 59.9517 15.8442 59.9973 16.0353 59.9979C16.2069 59.9976 16.3764 59.9607 16.532 59.8896C16.6876 59.8185 16.8254 59.715 16.936 59.5863C17.0466 59.4576 17.1272 59.3067 17.1723 59.1443C17.2173 58.9819 17.2257 58.8118 17.1968 58.6459L16.2182 53.0533L20.3613 49.0913C20.5187 48.9408 20.63 48.7501 20.6827 48.5408C20.7353 48.3315 20.7273 48.1119 20.6594 47.9068C20.5914 47.7018 20.4664 47.5194 20.2983 47.3804C20.1303 47.2414 19.9259 47.1513 19.7084 47.1202H19.6998ZM9.81347 54.8955L6.24896 56.7294L6.92757 52.8445C6.96011 52.6599 6.94629 52.4703 6.88729 52.2921C6.82829 52.1139 6.7259 51.9525 6.58898 51.8218L3.71165 49.0703L7.68762 48.5099C7.87696 48.4828 8.05675 48.411 8.21154 48.3007C8.36633 48.1904 8.49149 48.0449 8.57624 47.8767L10.3549 44.3435L12.1336 47.8767C12.2178 48.045 12.3427 48.1907 12.4973 48.301C12.6519 48.4114 12.8316 48.4831 13.0208 48.5099L16.9982 49.0703L14.1195 51.8218C13.9827 51.9526 13.8805 52.1141 13.8215 52.2922C13.7625 52.4704 13.7486 52.6599 13.7809 52.8445L14.4609 56.7294L10.9021 54.8955C10.7382 54.7972 10.5499 54.7452 10.3578 54.7452C10.1657 54.7452 9.97732 54.7972 9.81347 54.8955Z" fill="white"/>
</svg>
